G04 #@! TF.GenerationSoftware,KiCad,Pcbnew,(5.1.6)-1*
G04 #@! TF.CreationDate,2020-12-31T13:30:19+09:00*
G04 #@! TF.ProjectId,ERK01_PSU_EXT,45524b30-315f-4505-9355-5f4558542e6b,Ver.1.1*
G04 #@! TF.SameCoordinates,Original*
G04 #@! TF.FileFunction,Legend,Top*
G04 #@! TF.FilePolarity,Positive*
%FSLAX46Y46*%
G04 Gerber Fmt 4.6, Leading zero omitted, Abs format (unit mm)*
G04 Created by KiCad (PCBNEW (5.1.6)-1) date 2020-12-31 13:30:19*
%MOMM*%
%LPD*%
G01*
G04 APERTURE LIST*
%ADD10C,0.150000*%
%ADD11C,0.300000*%
%ADD12C,0.120000*%
%ADD13C,0.010000*%
G04 APERTURE END LIST*
D10*
X157719619Y-125166380D02*
X157719619Y-124166380D01*
X158148190Y-125166380D02*
X158148190Y-124642571D01*
X158100571Y-124547333D01*
X158005333Y-124499714D01*
X157862476Y-124499714D01*
X157767238Y-124547333D01*
X157719619Y-124594952D01*
X158481523Y-124499714D02*
X158862476Y-124499714D01*
X158624380Y-124166380D02*
X158624380Y-125023523D01*
X158672000Y-125118761D01*
X158767238Y-125166380D01*
X158862476Y-125166380D01*
X159052952Y-124499714D02*
X159433904Y-124499714D01*
X159195809Y-124166380D02*
X159195809Y-125023523D01*
X159243428Y-125118761D01*
X159338666Y-125166380D01*
X159433904Y-125166380D01*
X159767238Y-124499714D02*
X159767238Y-125499714D01*
X159767238Y-124547333D02*
X159862476Y-124499714D01*
X160052952Y-124499714D01*
X160148190Y-124547333D01*
X160195809Y-124594952D01*
X160243428Y-124690190D01*
X160243428Y-124975904D01*
X160195809Y-125071142D01*
X160148190Y-125118761D01*
X160052952Y-125166380D01*
X159862476Y-125166380D01*
X159767238Y-125118761D01*
X160624380Y-125118761D02*
X160719619Y-125166380D01*
X160910095Y-125166380D01*
X161005333Y-125118761D01*
X161052952Y-125023523D01*
X161052952Y-124975904D01*
X161005333Y-124880666D01*
X160910095Y-124833047D01*
X160767238Y-124833047D01*
X160672000Y-124785428D01*
X160624380Y-124690190D01*
X160624380Y-124642571D01*
X160672000Y-124547333D01*
X160767238Y-124499714D01*
X160910095Y-124499714D01*
X161005333Y-124547333D01*
X161481523Y-125071142D02*
X161529142Y-125118761D01*
X161481523Y-125166380D01*
X161433904Y-125118761D01*
X161481523Y-125071142D01*
X161481523Y-125166380D01*
X161481523Y-124547333D02*
X161529142Y-124594952D01*
X161481523Y-124642571D01*
X161433904Y-124594952D01*
X161481523Y-124547333D01*
X161481523Y-124642571D01*
X162672000Y-124118761D02*
X161814857Y-125404476D01*
X163719619Y-124118761D02*
X162862476Y-125404476D01*
X164481523Y-125166380D02*
X164481523Y-124166380D01*
X164481523Y-125118761D02*
X164386285Y-125166380D01*
X164195809Y-125166380D01*
X164100571Y-125118761D01*
X164052952Y-125071142D01*
X164005333Y-124975904D01*
X164005333Y-124690190D01*
X164052952Y-124594952D01*
X164100571Y-124547333D01*
X164195809Y-124499714D01*
X164386285Y-124499714D01*
X164481523Y-124547333D01*
X165386285Y-125166380D02*
X165386285Y-124642571D01*
X165338666Y-124547333D01*
X165243428Y-124499714D01*
X165052952Y-124499714D01*
X164957714Y-124547333D01*
X165386285Y-125118761D02*
X165291047Y-125166380D01*
X165052952Y-125166380D01*
X164957714Y-125118761D01*
X164910095Y-125023523D01*
X164910095Y-124928285D01*
X164957714Y-124833047D01*
X165052952Y-124785428D01*
X165291047Y-124785428D01*
X165386285Y-124737809D01*
X166291047Y-125166380D02*
X166291047Y-124166380D01*
X166291047Y-125118761D02*
X166195809Y-125166380D01*
X166005333Y-125166380D01*
X165910095Y-125118761D01*
X165862476Y-125071142D01*
X165814857Y-124975904D01*
X165814857Y-124690190D01*
X165862476Y-124594952D01*
X165910095Y-124547333D01*
X166005333Y-124499714D01*
X166195809Y-124499714D01*
X166291047Y-124547333D01*
X166910095Y-124594952D02*
X166814857Y-124547333D01*
X166767238Y-124499714D01*
X166719619Y-124404476D01*
X166719619Y-124356857D01*
X166767238Y-124261619D01*
X166814857Y-124214000D01*
X166910095Y-124166380D01*
X167100571Y-124166380D01*
X167195809Y-124214000D01*
X167243428Y-124261619D01*
X167291047Y-124356857D01*
X167291047Y-124404476D01*
X167243428Y-124499714D01*
X167195809Y-124547333D01*
X167100571Y-124594952D01*
X166910095Y-124594952D01*
X166814857Y-124642571D01*
X166767238Y-124690190D01*
X166719619Y-124785428D01*
X166719619Y-124975904D01*
X166767238Y-125071142D01*
X166814857Y-125118761D01*
X166910095Y-125166380D01*
X167100571Y-125166380D01*
X167195809Y-125118761D01*
X167243428Y-125071142D01*
X167291047Y-124975904D01*
X167291047Y-124785428D01*
X167243428Y-124690190D01*
X167195809Y-124642571D01*
X167100571Y-124594952D01*
X167862476Y-124594952D02*
X167767238Y-124547333D01*
X167719619Y-124499714D01*
X167672000Y-124404476D01*
X167672000Y-124356857D01*
X167719619Y-124261619D01*
X167767238Y-124214000D01*
X167862476Y-124166380D01*
X168052952Y-124166380D01*
X168148190Y-124214000D01*
X168195809Y-124261619D01*
X168243428Y-124356857D01*
X168243428Y-124404476D01*
X168195809Y-124499714D01*
X168148190Y-124547333D01*
X168052952Y-124594952D01*
X167862476Y-124594952D01*
X167767238Y-124642571D01*
X167719619Y-124690190D01*
X167672000Y-124785428D01*
X167672000Y-124975904D01*
X167719619Y-125071142D01*
X167767238Y-125118761D01*
X167862476Y-125166380D01*
X168052952Y-125166380D01*
X168148190Y-125118761D01*
X168195809Y-125071142D01*
X168243428Y-124975904D01*
X168243428Y-124785428D01*
X168195809Y-124690190D01*
X168148190Y-124642571D01*
X168052952Y-124594952D01*
X168719619Y-125166380D02*
X168910095Y-125166380D01*
X169005333Y-125118761D01*
X169052952Y-125071142D01*
X169148190Y-124928285D01*
X169195809Y-124737809D01*
X169195809Y-124356857D01*
X169148190Y-124261619D01*
X169100571Y-124214000D01*
X169005333Y-124166380D01*
X168814857Y-124166380D01*
X168719619Y-124214000D01*
X168672000Y-124261619D01*
X168624380Y-124356857D01*
X168624380Y-124594952D01*
X168672000Y-124690190D01*
X168719619Y-124737809D01*
X168814857Y-124785428D01*
X169005333Y-124785428D01*
X169100571Y-124737809D01*
X169148190Y-124690190D01*
X169195809Y-124594952D01*
X169529142Y-124166380D02*
X170148190Y-124166380D01*
X169814857Y-124547333D01*
X169957714Y-124547333D01*
X170052952Y-124594952D01*
X170100571Y-124642571D01*
X170148190Y-124737809D01*
X170148190Y-124975904D01*
X170100571Y-125071142D01*
X170052952Y-125118761D01*
X169957714Y-125166380D01*
X169672000Y-125166380D01*
X169576761Y-125118761D01*
X169529142Y-125071142D01*
X170576761Y-125071142D02*
X170624380Y-125118761D01*
X170576761Y-125166380D01*
X170529142Y-125118761D01*
X170576761Y-125071142D01*
X170576761Y-125166380D01*
X171052952Y-125166380D02*
X171052952Y-124166380D01*
X171052952Y-124547333D02*
X171148190Y-124499714D01*
X171338666Y-124499714D01*
X171433904Y-124547333D01*
X171481523Y-124594952D01*
X171529142Y-124690190D01*
X171529142Y-124975904D01*
X171481523Y-125071142D01*
X171433904Y-125118761D01*
X171338666Y-125166380D01*
X171148190Y-125166380D01*
X171052952Y-125118761D01*
X172100571Y-125166380D02*
X172005333Y-125118761D01*
X171957714Y-125023523D01*
X171957714Y-124166380D01*
X172624380Y-125166380D02*
X172529142Y-125118761D01*
X172481523Y-125071142D01*
X172433904Y-124975904D01*
X172433904Y-124690190D01*
X172481523Y-124594952D01*
X172529142Y-124547333D01*
X172624380Y-124499714D01*
X172767238Y-124499714D01*
X172862476Y-124547333D01*
X172910095Y-124594952D01*
X172957714Y-124690190D01*
X172957714Y-124975904D01*
X172910095Y-125071142D01*
X172862476Y-125118761D01*
X172767238Y-125166380D01*
X172624380Y-125166380D01*
X173814857Y-124499714D02*
X173814857Y-125309238D01*
X173767238Y-125404476D01*
X173719619Y-125452095D01*
X173624380Y-125499714D01*
X173481523Y-125499714D01*
X173386285Y-125452095D01*
X173814857Y-125118761D02*
X173719619Y-125166380D01*
X173529142Y-125166380D01*
X173433904Y-125118761D01*
X173386285Y-125071142D01*
X173338666Y-124975904D01*
X173338666Y-124690190D01*
X173386285Y-124594952D01*
X173433904Y-124547333D01*
X173529142Y-124499714D01*
X173719619Y-124499714D01*
X173814857Y-124547333D01*
X174243428Y-125118761D02*
X174338666Y-125166380D01*
X174529142Y-125166380D01*
X174624380Y-125118761D01*
X174672000Y-125023523D01*
X174672000Y-124975904D01*
X174624380Y-124880666D01*
X174529142Y-124833047D01*
X174386285Y-124833047D01*
X174291047Y-124785428D01*
X174243428Y-124690190D01*
X174243428Y-124642571D01*
X174291047Y-124547333D01*
X174386285Y-124499714D01*
X174529142Y-124499714D01*
X174624380Y-124547333D01*
X175100571Y-124499714D02*
X175100571Y-125499714D01*
X175100571Y-124547333D02*
X175195809Y-124499714D01*
X175386285Y-124499714D01*
X175481523Y-124547333D01*
X175529142Y-124594952D01*
X175576761Y-124690190D01*
X175576761Y-124975904D01*
X175529142Y-125071142D01*
X175481523Y-125118761D01*
X175386285Y-125166380D01*
X175195809Y-125166380D01*
X175100571Y-125118761D01*
X176148190Y-125166380D02*
X176052952Y-125118761D01*
X176005333Y-125071142D01*
X175957714Y-124975904D01*
X175957714Y-124690190D01*
X176005333Y-124594952D01*
X176052952Y-124547333D01*
X176148190Y-124499714D01*
X176291047Y-124499714D01*
X176386285Y-124547333D01*
X176433904Y-124594952D01*
X176481523Y-124690190D01*
X176481523Y-124975904D01*
X176433904Y-125071142D01*
X176386285Y-125118761D01*
X176291047Y-125166380D01*
X176148190Y-125166380D01*
X176767238Y-124499714D02*
X177148190Y-124499714D01*
X176910095Y-124166380D02*
X176910095Y-125023523D01*
X176957714Y-125118761D01*
X177052952Y-125166380D01*
X177148190Y-125166380D01*
X177481523Y-125071142D02*
X177529142Y-125118761D01*
X177481523Y-125166380D01*
X177433904Y-125118761D01*
X177481523Y-125071142D01*
X177481523Y-125166380D01*
X178386285Y-125118761D02*
X178291047Y-125166380D01*
X178100571Y-125166380D01*
X178005333Y-125118761D01*
X177957714Y-125071142D01*
X177910095Y-124975904D01*
X177910095Y-124690190D01*
X177957714Y-124594952D01*
X178005333Y-124547333D01*
X178100571Y-124499714D01*
X178291047Y-124499714D01*
X178386285Y-124547333D01*
X178957714Y-125166380D02*
X178862476Y-125118761D01*
X178814857Y-125071142D01*
X178767238Y-124975904D01*
X178767238Y-124690190D01*
X178814857Y-124594952D01*
X178862476Y-124547333D01*
X178957714Y-124499714D01*
X179100571Y-124499714D01*
X179195809Y-124547333D01*
X179243428Y-124594952D01*
X179291047Y-124690190D01*
X179291047Y-124975904D01*
X179243428Y-125071142D01*
X179195809Y-125118761D01*
X179100571Y-125166380D01*
X178957714Y-125166380D01*
X179719619Y-125166380D02*
X179719619Y-124499714D01*
X179719619Y-124594952D02*
X179767238Y-124547333D01*
X179862476Y-124499714D01*
X180005333Y-124499714D01*
X180100571Y-124547333D01*
X180148190Y-124642571D01*
X180148190Y-125166380D01*
X180148190Y-124642571D02*
X180195809Y-124547333D01*
X180291047Y-124499714D01*
X180433904Y-124499714D01*
X180529142Y-124547333D01*
X180576761Y-124642571D01*
X180576761Y-125166380D01*
X181767238Y-124118761D02*
X180910095Y-125404476D01*
D11*
X105507523Y-73771142D02*
X106174190Y-73771142D01*
X106459904Y-74818761D02*
X105507523Y-74818761D01*
X105507523Y-72818761D01*
X106459904Y-72818761D01*
X108459904Y-74818761D02*
X107793238Y-73866380D01*
X107317047Y-74818761D02*
X107317047Y-72818761D01*
X108078952Y-72818761D01*
X108269428Y-72914000D01*
X108364666Y-73009238D01*
X108459904Y-73199714D01*
X108459904Y-73485428D01*
X108364666Y-73675904D01*
X108269428Y-73771142D01*
X108078952Y-73866380D01*
X107317047Y-73866380D01*
X109317047Y-74818761D02*
X109317047Y-72818761D01*
X110459904Y-74818761D02*
X109602761Y-73675904D01*
X110459904Y-72818761D02*
X109317047Y-73961619D01*
X111698000Y-72818761D02*
X111888476Y-72818761D01*
X112078952Y-72914000D01*
X112174190Y-73009238D01*
X112269428Y-73199714D01*
X112364666Y-73580666D01*
X112364666Y-74056857D01*
X112269428Y-74437809D01*
X112174190Y-74628285D01*
X112078952Y-74723523D01*
X111888476Y-74818761D01*
X111698000Y-74818761D01*
X111507523Y-74723523D01*
X111412285Y-74628285D01*
X111317047Y-74437809D01*
X111221809Y-74056857D01*
X111221809Y-73580666D01*
X111317047Y-73199714D01*
X111412285Y-73009238D01*
X111507523Y-72914000D01*
X111698000Y-72818761D01*
X114269428Y-74818761D02*
X113126571Y-74818761D01*
X113698000Y-74818761D02*
X113698000Y-72818761D01*
X113507523Y-73104476D01*
X113317047Y-73294952D01*
X113126571Y-73390190D01*
X116650380Y-74818761D02*
X116650380Y-72818761D01*
X117412285Y-72818761D01*
X117602761Y-72914000D01*
X117698000Y-73009238D01*
X117793238Y-73199714D01*
X117793238Y-73485428D01*
X117698000Y-73675904D01*
X117602761Y-73771142D01*
X117412285Y-73866380D01*
X116650380Y-73866380D01*
X118555142Y-74723523D02*
X118840857Y-74818761D01*
X119317047Y-74818761D01*
X119507523Y-74723523D01*
X119602761Y-74628285D01*
X119698000Y-74437809D01*
X119698000Y-74247333D01*
X119602761Y-74056857D01*
X119507523Y-73961619D01*
X119317047Y-73866380D01*
X118936095Y-73771142D01*
X118745619Y-73675904D01*
X118650380Y-73580666D01*
X118555142Y-73390190D01*
X118555142Y-73199714D01*
X118650380Y-73009238D01*
X118745619Y-72914000D01*
X118936095Y-72818761D01*
X119412285Y-72818761D01*
X119698000Y-72914000D01*
X120555142Y-72818761D02*
X120555142Y-74437809D01*
X120650380Y-74628285D01*
X120745619Y-74723523D01*
X120936095Y-74818761D01*
X121317047Y-74818761D01*
X121507523Y-74723523D01*
X121602761Y-74628285D01*
X121698000Y-74437809D01*
X121698000Y-72818761D01*
X124174190Y-73771142D02*
X124840857Y-73771142D01*
X125126571Y-74818761D02*
X124174190Y-74818761D01*
X124174190Y-72818761D01*
X125126571Y-72818761D01*
X125793238Y-72818761D02*
X127126571Y-74818761D01*
X127126571Y-72818761D02*
X125793238Y-74818761D01*
X127602761Y-72818761D02*
X128745619Y-72818761D01*
X128174190Y-74818761D02*
X128174190Y-72818761D01*
X130650380Y-72818761D02*
X131317047Y-74818761D01*
X131983714Y-72818761D01*
X133412285Y-74723523D02*
X133221809Y-74818761D01*
X132840857Y-74818761D01*
X132650380Y-74723523D01*
X132555142Y-74533047D01*
X132555142Y-73771142D01*
X132650380Y-73580666D01*
X132840857Y-73485428D01*
X133221809Y-73485428D01*
X133412285Y-73580666D01*
X133507523Y-73771142D01*
X133507523Y-73961619D01*
X132555142Y-74152095D01*
X134364666Y-74818761D02*
X134364666Y-73485428D01*
X134364666Y-73866380D02*
X134459904Y-73675904D01*
X134555142Y-73580666D01*
X134745619Y-73485428D01*
X134936095Y-73485428D01*
X135602761Y-74628285D02*
X135698000Y-74723523D01*
X135602761Y-74818761D01*
X135507523Y-74723523D01*
X135602761Y-74628285D01*
X135602761Y-74818761D01*
X139126571Y-74818761D02*
X137983714Y-74818761D01*
X138555142Y-74818761D02*
X138555142Y-72818761D01*
X138364666Y-73104476D01*
X138174190Y-73294952D01*
X137983714Y-73390190D01*
X139983714Y-74628285D02*
X140078952Y-74723523D01*
X139983714Y-74818761D01*
X139888476Y-74723523D01*
X139983714Y-74628285D01*
X139983714Y-74818761D01*
X141983714Y-74818761D02*
X140840857Y-74818761D01*
X141412285Y-74818761D02*
X141412285Y-72818761D01*
X141221809Y-73104476D01*
X141031333Y-73294952D01*
X140840857Y-73390190D01*
D10*
X136414095Y-102179428D02*
X137176000Y-102179428D01*
X138176000Y-102560380D02*
X137604571Y-102560380D01*
X137890285Y-102560380D02*
X137890285Y-101560380D01*
X137795047Y-101703238D01*
X137699809Y-101798476D01*
X137604571Y-101846095D01*
X138556952Y-101655619D02*
X138604571Y-101608000D01*
X138699809Y-101560380D01*
X138937904Y-101560380D01*
X139033142Y-101608000D01*
X139080761Y-101655619D01*
X139128380Y-101750857D01*
X139128380Y-101846095D01*
X139080761Y-101988952D01*
X138509333Y-102560380D01*
X139128380Y-102560380D01*
X139414095Y-101560380D02*
X139747428Y-102560380D01*
X140080761Y-101560380D01*
X137668095Y-96274000D02*
X137572857Y-96226380D01*
X137430000Y-96226380D01*
X137287142Y-96274000D01*
X137191904Y-96369238D01*
X137144285Y-96464476D01*
X137096666Y-96654952D01*
X137096666Y-96797809D01*
X137144285Y-96988285D01*
X137191904Y-97083523D01*
X137287142Y-97178761D01*
X137430000Y-97226380D01*
X137525238Y-97226380D01*
X137668095Y-97178761D01*
X137715714Y-97131142D01*
X137715714Y-96797809D01*
X137525238Y-96797809D01*
X138144285Y-97226380D02*
X138144285Y-96226380D01*
X138715714Y-97226380D01*
X138715714Y-96226380D01*
X139191904Y-97226380D02*
X139191904Y-96226380D01*
X139430000Y-96226380D01*
X139572857Y-96274000D01*
X139668095Y-96369238D01*
X139715714Y-96464476D01*
X139763333Y-96654952D01*
X139763333Y-96797809D01*
X139715714Y-96988285D01*
X139668095Y-97083523D01*
X139572857Y-97178761D01*
X139430000Y-97226380D01*
X139191904Y-97226380D01*
X136668095Y-91511428D02*
X137430000Y-91511428D01*
X137049047Y-91892380D02*
X137049047Y-91130476D01*
X138430000Y-91892380D02*
X137858571Y-91892380D01*
X138144285Y-91892380D02*
X138144285Y-90892380D01*
X138049047Y-91035238D01*
X137953809Y-91130476D01*
X137858571Y-91178095D01*
X138810952Y-90987619D02*
X138858571Y-90940000D01*
X138953809Y-90892380D01*
X139191904Y-90892380D01*
X139287142Y-90940000D01*
X139334761Y-90987619D01*
X139382380Y-91082857D01*
X139382380Y-91178095D01*
X139334761Y-91320952D01*
X138763333Y-91892380D01*
X139382380Y-91892380D01*
X139668095Y-90892380D02*
X140001428Y-91892380D01*
X140334761Y-90892380D01*
X136890285Y-88971428D02*
X137652190Y-88971428D01*
X137271238Y-89352380D02*
X137271238Y-88590476D01*
X138604571Y-88352380D02*
X138128380Y-88352380D01*
X138080761Y-88828571D01*
X138128380Y-88780952D01*
X138223619Y-88733333D01*
X138461714Y-88733333D01*
X138556952Y-88780952D01*
X138604571Y-88828571D01*
X138652190Y-88923809D01*
X138652190Y-89161904D01*
X138604571Y-89257142D01*
X138556952Y-89304761D01*
X138461714Y-89352380D01*
X138223619Y-89352380D01*
X138128380Y-89304761D01*
X138080761Y-89257142D01*
X138937904Y-88352380D02*
X139271238Y-89352380D01*
X139604571Y-88352380D01*
X138310952Y-86717142D02*
X138263333Y-86764761D01*
X138120476Y-86812380D01*
X138025238Y-86812380D01*
X137882380Y-86764761D01*
X137787142Y-86669523D01*
X137739523Y-86574285D01*
X137691904Y-86383809D01*
X137691904Y-86240952D01*
X137739523Y-86050476D01*
X137787142Y-85955238D01*
X137882380Y-85860000D01*
X138025238Y-85812380D01*
X138120476Y-85812380D01*
X138263333Y-85860000D01*
X138310952Y-85907619D01*
X138596666Y-85812380D02*
X138930000Y-86812380D01*
X139263333Y-85812380D01*
X137525238Y-83320000D02*
X137430000Y-83272380D01*
X137287142Y-83272380D01*
X137144285Y-83320000D01*
X137049047Y-83415238D01*
X137001428Y-83510476D01*
X136953809Y-83700952D01*
X136953809Y-83843809D01*
X137001428Y-84034285D01*
X137049047Y-84129523D01*
X137144285Y-84224761D01*
X137287142Y-84272380D01*
X137382380Y-84272380D01*
X137525238Y-84224761D01*
X137572857Y-84177142D01*
X137572857Y-83843809D01*
X137382380Y-83843809D01*
X138430000Y-84272380D02*
X138430000Y-83748571D01*
X138382380Y-83653333D01*
X138287142Y-83605714D01*
X138096666Y-83605714D01*
X138001428Y-83653333D01*
X138430000Y-84224761D02*
X138334761Y-84272380D01*
X138096666Y-84272380D01*
X138001428Y-84224761D01*
X137953809Y-84129523D01*
X137953809Y-84034285D01*
X138001428Y-83939047D01*
X138096666Y-83891428D01*
X138334761Y-83891428D01*
X138430000Y-83843809D01*
X138763333Y-83605714D02*
X139144285Y-83605714D01*
X138906190Y-83272380D02*
X138906190Y-84129523D01*
X138953809Y-84224761D01*
X139049047Y-84272380D01*
X139144285Y-84272380D01*
X139858571Y-84224761D02*
X139763333Y-84272380D01*
X139572857Y-84272380D01*
X139477619Y-84224761D01*
X139430000Y-84129523D01*
X139430000Y-83748571D01*
X139477619Y-83653333D01*
X139572857Y-83605714D01*
X139763333Y-83605714D01*
X139858571Y-83653333D01*
X139906190Y-83748571D01*
X139906190Y-83843809D01*
X139430000Y-83939047D01*
D12*
X140716000Y-100838000D02*
X136144000Y-100838000D01*
X140716000Y-92710000D02*
X136144000Y-92710000D01*
X140716000Y-90170000D02*
X136144000Y-90170000D01*
X140716000Y-87630000D02*
X136144000Y-87630000D01*
X136144000Y-85090000D02*
X136652000Y-85090000D01*
X140716000Y-85090000D02*
X136144000Y-85090000D01*
X136144000Y-103378000D02*
X136144000Y-82550000D01*
X140716000Y-103378000D02*
X136144000Y-103378000D01*
X140716000Y-82550000D02*
X140716000Y-103378000D01*
X136144000Y-82550000D02*
X140716000Y-82550000D01*
D10*
X161277428Y-117405142D02*
X161886952Y-117405142D01*
X161582190Y-117709904D02*
X161582190Y-117100380D01*
X162648857Y-116909904D02*
X162267904Y-116909904D01*
X162229809Y-117290857D01*
X162267904Y-117252761D01*
X162344095Y-117214666D01*
X162534571Y-117214666D01*
X162610761Y-117252761D01*
X162648857Y-117290857D01*
X162686952Y-117367047D01*
X162686952Y-117557523D01*
X162648857Y-117633714D01*
X162610761Y-117671809D01*
X162534571Y-117709904D01*
X162344095Y-117709904D01*
X162267904Y-117671809D01*
X162229809Y-117633714D01*
X162915523Y-116909904D02*
X163182190Y-117709904D01*
X163448857Y-116909904D01*
X161950476Y-113392000D02*
X161874285Y-113353904D01*
X161760000Y-113353904D01*
X161645714Y-113392000D01*
X161569523Y-113468190D01*
X161531428Y-113544380D01*
X161493333Y-113696761D01*
X161493333Y-113811047D01*
X161531428Y-113963428D01*
X161569523Y-114039619D01*
X161645714Y-114115809D01*
X161760000Y-114153904D01*
X161836190Y-114153904D01*
X161950476Y-114115809D01*
X161988571Y-114077714D01*
X161988571Y-113811047D01*
X161836190Y-113811047D01*
X162331428Y-114153904D02*
X162331428Y-113353904D01*
X162788571Y-114153904D01*
X162788571Y-113353904D01*
X163169523Y-114153904D02*
X163169523Y-113353904D01*
X163360000Y-113353904D01*
X163474285Y-113392000D01*
X163550476Y-113468190D01*
X163588571Y-113544380D01*
X163626666Y-113696761D01*
X163626666Y-113811047D01*
X163588571Y-113963428D01*
X163550476Y-114039619D01*
X163474285Y-114115809D01*
X163360000Y-114153904D01*
X163169523Y-114153904D01*
D12*
X164338000Y-115570000D02*
X160528000Y-115570000D01*
X164338000Y-119380000D02*
X164338000Y-111760000D01*
X160528000Y-119380000D02*
X164338000Y-119380000D01*
X160528000Y-111760000D02*
X160528000Y-119380000D01*
X164338000Y-111760000D02*
X160528000Y-111760000D01*
D10*
X119748476Y-117913142D02*
X120358000Y-117913142D01*
X120053238Y-118217904D02*
X120053238Y-117608380D01*
X121158000Y-118217904D02*
X120700857Y-118217904D01*
X120929428Y-118217904D02*
X120929428Y-117417904D01*
X120853238Y-117532190D01*
X120777047Y-117608380D01*
X120700857Y-117646476D01*
X121462761Y-117494095D02*
X121500857Y-117456000D01*
X121577047Y-117417904D01*
X121767523Y-117417904D01*
X121843714Y-117456000D01*
X121881809Y-117494095D01*
X121919904Y-117570285D01*
X121919904Y-117646476D01*
X121881809Y-117760761D01*
X121424666Y-118217904D01*
X121919904Y-118217904D01*
X122148476Y-117417904D02*
X122415142Y-118217904D01*
X122681809Y-117417904D01*
X120802476Y-113900000D02*
X120726285Y-113861904D01*
X120612000Y-113861904D01*
X120497714Y-113900000D01*
X120421523Y-113976190D01*
X120383428Y-114052380D01*
X120345333Y-114204761D01*
X120345333Y-114319047D01*
X120383428Y-114471428D01*
X120421523Y-114547619D01*
X120497714Y-114623809D01*
X120612000Y-114661904D01*
X120688190Y-114661904D01*
X120802476Y-114623809D01*
X120840571Y-114585714D01*
X120840571Y-114319047D01*
X120688190Y-114319047D01*
X121183428Y-114661904D02*
X121183428Y-113861904D01*
X121640571Y-114661904D01*
X121640571Y-113861904D01*
X122021523Y-114661904D02*
X122021523Y-113861904D01*
X122212000Y-113861904D01*
X122326285Y-113900000D01*
X122402476Y-113976190D01*
X122440571Y-114052380D01*
X122478666Y-114204761D01*
X122478666Y-114319047D01*
X122440571Y-114471428D01*
X122402476Y-114547619D01*
X122326285Y-114623809D01*
X122212000Y-114661904D01*
X122021523Y-114661904D01*
X119748476Y-110801142D02*
X120358000Y-110801142D01*
X121158000Y-111105904D02*
X120700857Y-111105904D01*
X120929428Y-111105904D02*
X120929428Y-110305904D01*
X120853238Y-110420190D01*
X120777047Y-110496380D01*
X120700857Y-110534476D01*
X121462761Y-110382095D02*
X121500857Y-110344000D01*
X121577047Y-110305904D01*
X121767523Y-110305904D01*
X121843714Y-110344000D01*
X121881809Y-110382095D01*
X121919904Y-110458285D01*
X121919904Y-110534476D01*
X121881809Y-110648761D01*
X121424666Y-111105904D01*
X121919904Y-111105904D01*
X122148476Y-110305904D02*
X122415142Y-111105904D01*
X122681809Y-110305904D01*
D12*
X119380000Y-116205000D02*
X123190000Y-116205000D01*
X119380000Y-112395000D02*
X123190000Y-112395000D01*
X119380000Y-119380000D02*
X119380000Y-109220000D01*
X123190000Y-119380000D02*
X119380000Y-119380000D01*
X123190000Y-109220000D02*
X123190000Y-119380000D01*
X119380000Y-109220000D02*
X123190000Y-109220000D01*
D13*
G04 #@! TO.C,G\u002A\u002A\u002A*
G36*
X150827999Y-124563306D02*
G01*
X150878377Y-124615400D01*
X150850237Y-124695210D01*
X150794965Y-124753690D01*
X150705409Y-124865915D01*
X150613009Y-125038738D01*
X150555903Y-125177076D01*
X150435103Y-125439724D01*
X150295185Y-125633910D01*
X150141227Y-125755461D01*
X149978308Y-125800205D01*
X149831018Y-125772511D01*
X149736147Y-125705362D01*
X149692464Y-125648691D01*
X149670957Y-125571081D01*
X149711625Y-125498358D01*
X149732030Y-125476970D01*
X149822378Y-125405110D01*
X149891702Y-125407677D01*
X149962706Y-125486601D01*
X149969726Y-125497167D01*
X150040278Y-125581099D01*
X150092072Y-125598194D01*
X150113886Y-125545242D01*
X150114000Y-125538443D01*
X150093823Y-125461548D01*
X150040954Y-125334913D01*
X149966886Y-125181022D01*
X149883110Y-125022356D01*
X149801121Y-124881399D01*
X149732411Y-124780635D01*
X149717874Y-124763505D01*
X149658344Y-124692937D01*
X149655090Y-124651568D01*
X149706366Y-124606932D01*
X149709341Y-124604755D01*
X149803030Y-124569484D01*
X149943911Y-124549750D01*
X150096364Y-124546958D01*
X150224767Y-124562511D01*
X150277280Y-124582363D01*
X150314527Y-124649596D01*
X150308832Y-124700352D01*
X150308541Y-124788279D01*
X150347390Y-124868168D01*
X150406259Y-124912156D01*
X150450047Y-124906119D01*
X150483573Y-124837180D01*
X150476639Y-124735230D01*
X150472588Y-124629618D01*
X150518908Y-124570493D01*
X150628703Y-124546758D01*
X150701663Y-124544667D01*
X150827999Y-124563306D01*
G37*
X150827999Y-124563306D02*
X150878377Y-124615400D01*
X150850237Y-124695210D01*
X150794965Y-124753690D01*
X150705409Y-124865915D01*
X150613009Y-125038738D01*
X150555903Y-125177076D01*
X150435103Y-125439724D01*
X150295185Y-125633910D01*
X150141227Y-125755461D01*
X149978308Y-125800205D01*
X149831018Y-125772511D01*
X149736147Y-125705362D01*
X149692464Y-125648691D01*
X149670957Y-125571081D01*
X149711625Y-125498358D01*
X149732030Y-125476970D01*
X149822378Y-125405110D01*
X149891702Y-125407677D01*
X149962706Y-125486601D01*
X149969726Y-125497167D01*
X150040278Y-125581099D01*
X150092072Y-125598194D01*
X150113886Y-125545242D01*
X150114000Y-125538443D01*
X150093823Y-125461548D01*
X150040954Y-125334913D01*
X149966886Y-125181022D01*
X149883110Y-125022356D01*
X149801121Y-124881399D01*
X149732411Y-124780635D01*
X149717874Y-124763505D01*
X149658344Y-124692937D01*
X149655090Y-124651568D01*
X149706366Y-124606932D01*
X149709341Y-124604755D01*
X149803030Y-124569484D01*
X149943911Y-124549750D01*
X150096364Y-124546958D01*
X150224767Y-124562511D01*
X150277280Y-124582363D01*
X150314527Y-124649596D01*
X150308832Y-124700352D01*
X150308541Y-124788279D01*
X150347390Y-124868168D01*
X150406259Y-124912156D01*
X150450047Y-124906119D01*
X150483573Y-124837180D01*
X150476639Y-124735230D01*
X150472588Y-124629618D01*
X150518908Y-124570493D01*
X150628703Y-124546758D01*
X150701663Y-124544667D01*
X150827999Y-124563306D01*
G36*
X139273874Y-124212472D02*
G01*
X139369035Y-124228379D01*
X139379038Y-124231696D01*
X139436381Y-124290973D01*
X139437182Y-124380644D01*
X139393084Y-124453682D01*
X139362438Y-124529082D01*
X139345471Y-124663330D01*
X139341336Y-124831861D01*
X139349189Y-125010110D01*
X139368184Y-125173512D01*
X139397475Y-125297503D01*
X139423862Y-125347927D01*
X139470676Y-125409754D01*
X139453337Y-125447106D01*
X139409962Y-125472631D01*
X139311057Y-125501996D01*
X139173153Y-125515984D01*
X139026070Y-125514967D01*
X138899627Y-125499315D01*
X138823644Y-125469397D01*
X138819684Y-125465296D01*
X138802128Y-125394592D01*
X138835667Y-125330205D01*
X138874783Y-125244692D01*
X138893883Y-125140303D01*
X138892416Y-125044478D01*
X138869828Y-124984660D01*
X138842750Y-124978339D01*
X138797771Y-125023276D01*
X138733694Y-125122813D01*
X138674146Y-125235867D01*
X138607609Y-125360736D01*
X138549145Y-125447572D01*
X138515001Y-125476000D01*
X138476383Y-125440724D01*
X138415054Y-125347742D01*
X138343561Y-125216327D01*
X138335852Y-125200833D01*
X138265430Y-125066642D01*
X138205921Y-124968684D01*
X138169102Y-124926140D01*
X138166914Y-124925667D01*
X138139684Y-124961776D01*
X138130291Y-125050035D01*
X138136505Y-125160339D01*
X138156092Y-125262585D01*
X138186821Y-125326667D01*
X138197167Y-125333691D01*
X138254466Y-125387664D01*
X138244190Y-125455262D01*
X138193704Y-125492637D01*
X138080889Y-125516759D01*
X137952452Y-125518283D01*
X137839495Y-125499893D01*
X137773119Y-125464274D01*
X137768393Y-125455921D01*
X137776112Y-125379490D01*
X137812055Y-125325897D01*
X137849844Y-125243674D01*
X137874000Y-125102946D01*
X137884571Y-124928761D01*
X137881605Y-124746169D01*
X137865149Y-124580217D01*
X137835250Y-124455955D01*
X137810324Y-124411211D01*
X137764841Y-124325093D01*
X137795779Y-124260114D01*
X137896412Y-124221454D01*
X138060012Y-124214294D01*
X138065606Y-124214607D01*
X138180015Y-124224172D01*
X138255992Y-124247496D01*
X138316812Y-124301346D01*
X138385749Y-124402487D01*
X138432088Y-124478601D01*
X138513938Y-124606424D01*
X138583693Y-124701711D01*
X138626503Y-124744210D01*
X138626999Y-124744388D01*
X138668214Y-124718220D01*
X138723262Y-124635498D01*
X138749562Y-124582428D01*
X138842902Y-124398040D01*
X138930906Y-124282722D01*
X139027723Y-124223151D01*
X139147501Y-124206002D01*
X139149277Y-124206000D01*
X139273874Y-124212472D01*
G37*
X139273874Y-124212472D02*
X139369035Y-124228379D01*
X139379038Y-124231696D01*
X139436381Y-124290973D01*
X139437182Y-124380644D01*
X139393084Y-124453682D01*
X139362438Y-124529082D01*
X139345471Y-124663330D01*
X139341336Y-124831861D01*
X139349189Y-125010110D01*
X139368184Y-125173512D01*
X139397475Y-125297503D01*
X139423862Y-125347927D01*
X139470676Y-125409754D01*
X139453337Y-125447106D01*
X139409962Y-125472631D01*
X139311057Y-125501996D01*
X139173153Y-125515984D01*
X139026070Y-125514967D01*
X138899627Y-125499315D01*
X138823644Y-125469397D01*
X138819684Y-125465296D01*
X138802128Y-125394592D01*
X138835667Y-125330205D01*
X138874783Y-125244692D01*
X138893883Y-125140303D01*
X138892416Y-125044478D01*
X138869828Y-124984660D01*
X138842750Y-124978339D01*
X138797771Y-125023276D01*
X138733694Y-125122813D01*
X138674146Y-125235867D01*
X138607609Y-125360736D01*
X138549145Y-125447572D01*
X138515001Y-125476000D01*
X138476383Y-125440724D01*
X138415054Y-125347742D01*
X138343561Y-125216327D01*
X138335852Y-125200833D01*
X138265430Y-125066642D01*
X138205921Y-124968684D01*
X138169102Y-124926140D01*
X138166914Y-124925667D01*
X138139684Y-124961776D01*
X138130291Y-125050035D01*
X138136505Y-125160339D01*
X138156092Y-125262585D01*
X138186821Y-125326667D01*
X138197167Y-125333691D01*
X138254466Y-125387664D01*
X138244190Y-125455262D01*
X138193704Y-125492637D01*
X138080889Y-125516759D01*
X137952452Y-125518283D01*
X137839495Y-125499893D01*
X137773119Y-125464274D01*
X137768393Y-125455921D01*
X137776112Y-125379490D01*
X137812055Y-125325897D01*
X137849844Y-125243674D01*
X137874000Y-125102946D01*
X137884571Y-124928761D01*
X137881605Y-124746169D01*
X137865149Y-124580217D01*
X137835250Y-124455955D01*
X137810324Y-124411211D01*
X137764841Y-124325093D01*
X137795779Y-124260114D01*
X137896412Y-124221454D01*
X138060012Y-124214294D01*
X138065606Y-124214607D01*
X138180015Y-124224172D01*
X138255992Y-124247496D01*
X138316812Y-124301346D01*
X138385749Y-124402487D01*
X138432088Y-124478601D01*
X138513938Y-124606424D01*
X138583693Y-124701711D01*
X138626503Y-124744210D01*
X138626999Y-124744388D01*
X138668214Y-124718220D01*
X138723262Y-124635498D01*
X138749562Y-124582428D01*
X138842902Y-124398040D01*
X138930906Y-124282722D01*
X139027723Y-124223151D01*
X139147501Y-124206002D01*
X139149277Y-124206000D01*
X139273874Y-124212472D01*
G36*
X140284199Y-124583260D02*
G01*
X140407894Y-124642783D01*
X140477306Y-124756010D01*
X140503330Y-124934281D01*
X140504334Y-124991753D01*
X140512663Y-125140702D01*
X140541427Y-125226955D01*
X140578417Y-125262109D01*
X140620574Y-125296625D01*
X140610781Y-125336569D01*
X140542254Y-125404747D01*
X140533723Y-125412379D01*
X140401513Y-125495596D01*
X140274560Y-125515019D01*
X140175282Y-125468681D01*
X140115008Y-125440218D01*
X140023478Y-125465613D01*
X140016657Y-125468681D01*
X139836963Y-125515372D01*
X139681139Y-125480855D01*
X139592243Y-125414424D01*
X139512408Y-125321837D01*
X139497176Y-125248023D01*
X139513036Y-125219873D01*
X139920530Y-125219873D01*
X139963708Y-125288141D01*
X140016172Y-125306667D01*
X140068619Y-125270008D01*
X140081000Y-125200833D01*
X140055096Y-125119263D01*
X139996772Y-125092972D01*
X139935110Y-125133925D01*
X139931581Y-125139360D01*
X139920530Y-125219873D01*
X139513036Y-125219873D01*
X139545792Y-125161736D01*
X139584980Y-125114363D01*
X139690844Y-125028995D01*
X139838829Y-124985142D01*
X139881314Y-124979496D01*
X140003248Y-124960619D01*
X140062338Y-124931169D01*
X140080351Y-124877612D01*
X140081000Y-124855332D01*
X140055948Y-124758731D01*
X139988614Y-124728968D01*
X139890731Y-124767682D01*
X139827000Y-124819833D01*
X139720180Y-124895761D01*
X139634405Y-124909630D01*
X139584783Y-124863351D01*
X139580614Y-124788669D01*
X139635361Y-124690195D01*
X139760544Y-124617235D01*
X139944439Y-124574860D01*
X140095324Y-124566101D01*
X140284199Y-124583260D01*
G37*
X140284199Y-124583260D02*
X140407894Y-124642783D01*
X140477306Y-124756010D01*
X140503330Y-124934281D01*
X140504334Y-124991753D01*
X140512663Y-125140702D01*
X140541427Y-125226955D01*
X140578417Y-125262109D01*
X140620574Y-125296625D01*
X140610781Y-125336569D01*
X140542254Y-125404747D01*
X140533723Y-125412379D01*
X140401513Y-125495596D01*
X140274560Y-125515019D01*
X140175282Y-125468681D01*
X140115008Y-125440218D01*
X140023478Y-125465613D01*
X140016657Y-125468681D01*
X139836963Y-125515372D01*
X139681139Y-125480855D01*
X139592243Y-125414424D01*
X139512408Y-125321837D01*
X139497176Y-125248023D01*
X139513036Y-125219873D01*
X139920530Y-125219873D01*
X139963708Y-125288141D01*
X140016172Y-125306667D01*
X140068619Y-125270008D01*
X140081000Y-125200833D01*
X140055096Y-125119263D01*
X139996772Y-125092972D01*
X139935110Y-125133925D01*
X139931581Y-125139360D01*
X139920530Y-125219873D01*
X139513036Y-125219873D01*
X139545792Y-125161736D01*
X139584980Y-125114363D01*
X139690844Y-125028995D01*
X139838829Y-124985142D01*
X139881314Y-124979496D01*
X140003248Y-124960619D01*
X140062338Y-124931169D01*
X140080351Y-124877612D01*
X140081000Y-124855332D01*
X140055948Y-124758731D01*
X139988614Y-124728968D01*
X139890731Y-124767682D01*
X139827000Y-124819833D01*
X139720180Y-124895761D01*
X139634405Y-124909630D01*
X139584783Y-124863351D01*
X139580614Y-124788669D01*
X139635361Y-124690195D01*
X139760544Y-124617235D01*
X139944439Y-124574860D01*
X140095324Y-124566101D01*
X140284199Y-124583260D01*
G36*
X141690030Y-124582050D02*
G01*
X141794708Y-124687426D01*
X141851229Y-124850635D01*
X141859000Y-124953902D01*
X141873845Y-125110612D01*
X141910517Y-125260994D01*
X141920226Y-125286587D01*
X141956467Y-125385135D01*
X141953171Y-125437218D01*
X141907434Y-125472705D01*
X141901843Y-125475727D01*
X141801113Y-125504257D01*
X141661259Y-125516159D01*
X141519960Y-125511057D01*
X141414898Y-125488577D01*
X141399546Y-125480735D01*
X141364224Y-125432441D01*
X141388963Y-125357167D01*
X141423512Y-125245008D01*
X141434973Y-125103812D01*
X141424296Y-124966337D01*
X141392432Y-124865341D01*
X141374021Y-124842539D01*
X141300005Y-124806771D01*
X141252235Y-124846166D01*
X141229621Y-124962908D01*
X141229667Y-125131462D01*
X141231553Y-125283363D01*
X141223894Y-125404521D01*
X141209584Y-125465417D01*
X141148990Y-125497104D01*
X141036642Y-125514086D01*
X140904287Y-125515640D01*
X140783674Y-125501044D01*
X140716000Y-125476643D01*
X140675303Y-125431876D01*
X140696104Y-125366376D01*
X140705417Y-125350866D01*
X140742640Y-125244463D01*
X140757709Y-125103115D01*
X140751265Y-124958779D01*
X140723953Y-124843406D01*
X140694311Y-124798233D01*
X140656603Y-124732989D01*
X140701372Y-124670928D01*
X140826435Y-124614187D01*
X140905360Y-124591703D01*
X141052026Y-124557555D01*
X141135143Y-124549560D01*
X141172431Y-124570131D01*
X141181612Y-124621682D01*
X141181667Y-124629333D01*
X141196671Y-124698164D01*
X141217439Y-124714000D01*
X141269694Y-124685693D01*
X141329834Y-124629333D01*
X141442644Y-124560646D01*
X141544989Y-124544667D01*
X141690030Y-124582050D01*
G37*
X141690030Y-124582050D02*
X141794708Y-124687426D01*
X141851229Y-124850635D01*
X141859000Y-124953902D01*
X141873845Y-125110612D01*
X141910517Y-125260994D01*
X141920226Y-125286587D01*
X141956467Y-125385135D01*
X141953171Y-125437218D01*
X141907434Y-125472705D01*
X141901843Y-125475727D01*
X141801113Y-125504257D01*
X141661259Y-125516159D01*
X141519960Y-125511057D01*
X141414898Y-125488577D01*
X141399546Y-125480735D01*
X141364224Y-125432441D01*
X141388963Y-125357167D01*
X141423512Y-125245008D01*
X141434973Y-125103812D01*
X141424296Y-124966337D01*
X141392432Y-124865341D01*
X141374021Y-124842539D01*
X141300005Y-124806771D01*
X141252235Y-124846166D01*
X141229621Y-124962908D01*
X141229667Y-125131462D01*
X141231553Y-125283363D01*
X141223894Y-125404521D01*
X141209584Y-125465417D01*
X141148990Y-125497104D01*
X141036642Y-125514086D01*
X140904287Y-125515640D01*
X140783674Y-125501044D01*
X140716000Y-125476643D01*
X140675303Y-125431876D01*
X140696104Y-125366376D01*
X140705417Y-125350866D01*
X140742640Y-125244463D01*
X140757709Y-125103115D01*
X140751265Y-124958779D01*
X140723953Y-124843406D01*
X140694311Y-124798233D01*
X140656603Y-124732989D01*
X140701372Y-124670928D01*
X140826435Y-124614187D01*
X140905360Y-124591703D01*
X141052026Y-124557555D01*
X141135143Y-124549560D01*
X141172431Y-124570131D01*
X141181612Y-124621682D01*
X141181667Y-124629333D01*
X141196671Y-124698164D01*
X141217439Y-124714000D01*
X141269694Y-124685693D01*
X141329834Y-124629333D01*
X141442644Y-124560646D01*
X141544989Y-124544667D01*
X141690030Y-124582050D01*
G36*
X143945449Y-124261609D02*
G01*
X144084005Y-124306284D01*
X144165230Y-124385150D01*
X144179344Y-124473259D01*
X144133801Y-124553129D01*
X144040760Y-124579114D01*
X143920424Y-124548171D01*
X143870163Y-124519823D01*
X143770032Y-124474691D01*
X143716232Y-124490835D01*
X143715524Y-124540116D01*
X143772420Y-124603978D01*
X143865630Y-124666262D01*
X143973870Y-124710810D01*
X144018555Y-124720325D01*
X144104712Y-124759419D01*
X144142079Y-124826923D01*
X144126129Y-124894288D01*
X144052336Y-124932966D01*
X144052265Y-124932976D01*
X143984145Y-124957983D01*
X143960684Y-125023879D01*
X143960776Y-125084726D01*
X144005302Y-125234167D01*
X144066609Y-125306948D01*
X144132597Y-125368378D01*
X144136859Y-125407437D01*
X144083992Y-125454805D01*
X143985847Y-125493864D01*
X143837259Y-125514746D01*
X143670545Y-125517161D01*
X143518018Y-125500815D01*
X143411994Y-125465417D01*
X143405346Y-125460930D01*
X143333305Y-125425559D01*
X143255193Y-125442174D01*
X143217338Y-125460669D01*
X143090475Y-125504791D01*
X142960150Y-125516802D01*
X142854825Y-125497211D01*
X142805059Y-125453314D01*
X142778824Y-125411885D01*
X142732214Y-125421773D01*
X142680877Y-125453314D01*
X142533341Y-125509997D01*
X142379112Y-125506381D01*
X142250959Y-125443927D01*
X142240000Y-125433667D01*
X142187899Y-125358476D01*
X142161896Y-125250128D01*
X142155334Y-125098024D01*
X142143592Y-124915492D01*
X142106842Y-124803745D01*
X142087722Y-124779436D01*
X142041350Y-124697355D01*
X142072193Y-124628679D01*
X142173277Y-124577843D01*
X142337626Y-124549280D01*
X142456959Y-124544667D01*
X142578667Y-124544667D01*
X142578667Y-124878150D01*
X142588533Y-125091995D01*
X142617557Y-125229098D01*
X142664876Y-125287454D01*
X142729629Y-125265056D01*
X142740541Y-125254859D01*
X142776788Y-125171846D01*
X142789413Y-125043185D01*
X142779461Y-124904219D01*
X142747976Y-124790295D01*
X142725766Y-124755153D01*
X142683410Y-124694247D01*
X142705135Y-124648421D01*
X142727170Y-124629054D01*
X142806836Y-124592841D01*
X142933908Y-124563244D01*
X143003405Y-124554098D01*
X143213667Y-124533894D01*
X143213667Y-124893930D01*
X143221077Y-125111375D01*
X143245688Y-125252337D01*
X143291071Y-125323893D01*
X143360797Y-125333123D01*
X143422627Y-125308115D01*
X143483899Y-125240957D01*
X143514297Y-125140578D01*
X143513619Y-125035566D01*
X143481664Y-124954509D01*
X143425334Y-124925667D01*
X143354581Y-124895732D01*
X143340667Y-124841000D01*
X143358602Y-124772213D01*
X143383500Y-124756333D01*
X143406840Y-124718791D01*
X143403963Y-124618242D01*
X143400857Y-124597009D01*
X143405127Y-124450123D01*
X143475387Y-124346686D01*
X143616242Y-124282386D01*
X143762883Y-124258007D01*
X143945449Y-124261609D01*
G37*
X143945449Y-124261609D02*
X144084005Y-124306284D01*
X144165230Y-124385150D01*
X144179344Y-124473259D01*
X144133801Y-124553129D01*
X144040760Y-124579114D01*
X143920424Y-124548171D01*
X143870163Y-124519823D01*
X143770032Y-124474691D01*
X143716232Y-124490835D01*
X143715524Y-124540116D01*
X143772420Y-124603978D01*
X143865630Y-124666262D01*
X143973870Y-124710810D01*
X144018555Y-124720325D01*
X144104712Y-124759419D01*
X144142079Y-124826923D01*
X144126129Y-124894288D01*
X144052336Y-124932966D01*
X144052265Y-124932976D01*
X143984145Y-124957983D01*
X143960684Y-125023879D01*
X143960776Y-125084726D01*
X144005302Y-125234167D01*
X144066609Y-125306948D01*
X144132597Y-125368378D01*
X144136859Y-125407437D01*
X144083992Y-125454805D01*
X143985847Y-125493864D01*
X143837259Y-125514746D01*
X143670545Y-125517161D01*
X143518018Y-125500815D01*
X143411994Y-125465417D01*
X143405346Y-125460930D01*
X143333305Y-125425559D01*
X143255193Y-125442174D01*
X143217338Y-125460669D01*
X143090475Y-125504791D01*
X142960150Y-125516802D01*
X142854825Y-125497211D01*
X142805059Y-125453314D01*
X142778824Y-125411885D01*
X142732214Y-125421773D01*
X142680877Y-125453314D01*
X142533341Y-125509997D01*
X142379112Y-125506381D01*
X142250959Y-125443927D01*
X142240000Y-125433667D01*
X142187899Y-125358476D01*
X142161896Y-125250128D01*
X142155334Y-125098024D01*
X142143592Y-124915492D01*
X142106842Y-124803745D01*
X142087722Y-124779436D01*
X142041350Y-124697355D01*
X142072193Y-124628679D01*
X142173277Y-124577843D01*
X142337626Y-124549280D01*
X142456959Y-124544667D01*
X142578667Y-124544667D01*
X142578667Y-124878150D01*
X142588533Y-125091995D01*
X142617557Y-125229098D01*
X142664876Y-125287454D01*
X142729629Y-125265056D01*
X142740541Y-125254859D01*
X142776788Y-125171846D01*
X142789413Y-125043185D01*
X142779461Y-124904219D01*
X142747976Y-124790295D01*
X142725766Y-124755153D01*
X142683410Y-124694247D01*
X142705135Y-124648421D01*
X142727170Y-124629054D01*
X142806836Y-124592841D01*
X142933908Y-124563244D01*
X143003405Y-124554098D01*
X143213667Y-124533894D01*
X143213667Y-124893930D01*
X143221077Y-125111375D01*
X143245688Y-125252337D01*
X143291071Y-125323893D01*
X143360797Y-125333123D01*
X143422627Y-125308115D01*
X143483899Y-125240957D01*
X143514297Y-125140578D01*
X143513619Y-125035566D01*
X143481664Y-124954509D01*
X143425334Y-124925667D01*
X143354581Y-124895732D01*
X143340667Y-124841000D01*
X143358602Y-124772213D01*
X143383500Y-124756333D01*
X143406840Y-124718791D01*
X143403963Y-124618242D01*
X143400857Y-124597009D01*
X143405127Y-124450123D01*
X143475387Y-124346686D01*
X143616242Y-124282386D01*
X143762883Y-124258007D01*
X143945449Y-124261609D01*
G36*
X145025532Y-124583260D02*
G01*
X145149227Y-124642783D01*
X145218639Y-124756010D01*
X145244663Y-124934281D01*
X145245667Y-124991753D01*
X145253996Y-125140702D01*
X145282761Y-125226955D01*
X145319750Y-125262109D01*
X145361908Y-125296625D01*
X145352114Y-125336569D01*
X145283587Y-125404747D01*
X145275056Y-125412379D01*
X145142847Y-125495596D01*
X145015893Y-125515019D01*
X144916615Y-125468681D01*
X144856341Y-125440218D01*
X144764811Y-125465613D01*
X144757990Y-125468681D01*
X144578296Y-125515372D01*
X144422472Y-125480855D01*
X144333576Y-125414424D01*
X144253741Y-125321837D01*
X144238510Y-125248023D01*
X144254370Y-125219873D01*
X144661863Y-125219873D01*
X144705042Y-125288141D01*
X144757505Y-125306667D01*
X144809952Y-125270008D01*
X144822334Y-125200833D01*
X144796429Y-125119263D01*
X144738105Y-125092972D01*
X144676444Y-125133925D01*
X144672914Y-125139360D01*
X144661863Y-125219873D01*
X144254370Y-125219873D01*
X144287126Y-125161736D01*
X144326314Y-125114363D01*
X144432177Y-125028995D01*
X144580162Y-124985142D01*
X144622647Y-124979496D01*
X144744582Y-124960619D01*
X144803671Y-124931169D01*
X144821684Y-124877612D01*
X144822334Y-124855332D01*
X144797281Y-124758731D01*
X144729947Y-124728968D01*
X144632065Y-124767682D01*
X144568334Y-124819833D01*
X144461514Y-124895761D01*
X144375738Y-124909630D01*
X144326117Y-124863351D01*
X144321948Y-124788669D01*
X144376694Y-124690195D01*
X144501877Y-124617235D01*
X144685772Y-124574860D01*
X144836657Y-124566101D01*
X145025532Y-124583260D01*
G37*
X145025532Y-124583260D02*
X145149227Y-124642783D01*
X145218639Y-124756010D01*
X145244663Y-124934281D01*
X145245667Y-124991753D01*
X145253996Y-125140702D01*
X145282761Y-125226955D01*
X145319750Y-125262109D01*
X145361908Y-125296625D01*
X145352114Y-125336569D01*
X145283587Y-125404747D01*
X145275056Y-125412379D01*
X145142847Y-125495596D01*
X145015893Y-125515019D01*
X144916615Y-125468681D01*
X144856341Y-125440218D01*
X144764811Y-125465613D01*
X144757990Y-125468681D01*
X144578296Y-125515372D01*
X144422472Y-125480855D01*
X144333576Y-125414424D01*
X144253741Y-125321837D01*
X144238510Y-125248023D01*
X144254370Y-125219873D01*
X144661863Y-125219873D01*
X144705042Y-125288141D01*
X144757505Y-125306667D01*
X144809952Y-125270008D01*
X144822334Y-125200833D01*
X144796429Y-125119263D01*
X144738105Y-125092972D01*
X144676444Y-125133925D01*
X144672914Y-125139360D01*
X144661863Y-125219873D01*
X144254370Y-125219873D01*
X144287126Y-125161736D01*
X144326314Y-125114363D01*
X144432177Y-125028995D01*
X144580162Y-124985142D01*
X144622647Y-124979496D01*
X144744582Y-124960619D01*
X144803671Y-124931169D01*
X144821684Y-124877612D01*
X144822334Y-124855332D01*
X144797281Y-124758731D01*
X144729947Y-124728968D01*
X144632065Y-124767682D01*
X144568334Y-124819833D01*
X144461514Y-124895761D01*
X144375738Y-124909630D01*
X144326117Y-124863351D01*
X144321948Y-124788669D01*
X144376694Y-124690195D01*
X144501877Y-124617235D01*
X144685772Y-124574860D01*
X144836657Y-124566101D01*
X145025532Y-124583260D01*
G36*
X146101745Y-124560475D02*
G01*
X146264069Y-124608766D01*
X146375619Y-124692862D01*
X146409179Y-124754270D01*
X146414123Y-124869510D01*
X146363786Y-124955956D01*
X146280605Y-125003382D01*
X146187015Y-125001567D01*
X146105453Y-124940286D01*
X146083748Y-124902562D01*
X146016460Y-124818650D01*
X145947072Y-124807312D01*
X145871680Y-124853207D01*
X145845247Y-124947054D01*
X145871155Y-125065454D01*
X145901633Y-125121802D01*
X145956992Y-125187726D01*
X146027966Y-125215469D01*
X146146236Y-125216056D01*
X146168303Y-125214604D01*
X146312329Y-125221470D01*
X146382343Y-125261839D01*
X146375154Y-125327595D01*
X146287569Y-125410621D01*
X146253969Y-125432375D01*
X146072327Y-125500497D01*
X145868889Y-125511303D01*
X145681742Y-125463532D01*
X145658949Y-125452065D01*
X145514179Y-125331150D01*
X145435419Y-125173047D01*
X145425405Y-124996825D01*
X145486874Y-124821554D01*
X145555209Y-124729095D01*
X145662629Y-124628839D01*
X145772117Y-124577541D01*
X145908032Y-124555671D01*
X146101745Y-124560475D01*
G37*
X146101745Y-124560475D02*
X146264069Y-124608766D01*
X146375619Y-124692862D01*
X146409179Y-124754270D01*
X146414123Y-124869510D01*
X146363786Y-124955956D01*
X146280605Y-125003382D01*
X146187015Y-125001567D01*
X146105453Y-124940286D01*
X146083748Y-124902562D01*
X146016460Y-124818650D01*
X145947072Y-124807312D01*
X145871680Y-124853207D01*
X145845247Y-124947054D01*
X145871155Y-125065454D01*
X145901633Y-125121802D01*
X145956992Y-125187726D01*
X146027966Y-125215469D01*
X146146236Y-125216056D01*
X146168303Y-125214604D01*
X146312329Y-125221470D01*
X146382343Y-125261839D01*
X146375154Y-125327595D01*
X146287569Y-125410621D01*
X146253969Y-125432375D01*
X146072327Y-125500497D01*
X145868889Y-125511303D01*
X145681742Y-125463532D01*
X145658949Y-125452065D01*
X145514179Y-125331150D01*
X145435419Y-125173047D01*
X145425405Y-124996825D01*
X145486874Y-124821554D01*
X145555209Y-124729095D01*
X145662629Y-124628839D01*
X145772117Y-124577541D01*
X145908032Y-124555671D01*
X146101745Y-124560475D01*
G36*
X147043129Y-124357649D02*
G01*
X147066000Y-124436151D01*
X147081111Y-124510147D01*
X147142793Y-124543858D01*
X147203584Y-124552568D01*
X147303232Y-124575803D01*
X147339598Y-124628408D01*
X147341167Y-124650500D01*
X147319417Y-124713533D01*
X147240693Y-124743690D01*
X147201555Y-124748583D01*
X147061944Y-124762000D01*
X147074555Y-125002583D01*
X147083999Y-125138482D01*
X147101701Y-125210238D01*
X147139205Y-125238312D01*
X147208054Y-125243166D01*
X147210288Y-125243167D01*
X147316024Y-125261488D01*
X147346145Y-125310196D01*
X147299779Y-125379902D01*
X147227856Y-125432242D01*
X147044638Y-125506958D01*
X146872266Y-125507343D01*
X146725323Y-125433895D01*
X146704243Y-125414424D01*
X146646053Y-125343824D01*
X146614468Y-125261522D01*
X146601901Y-125139703D01*
X146600334Y-125033424D01*
X146597730Y-124883879D01*
X146586122Y-124800285D01*
X146559809Y-124763990D01*
X146515667Y-124756333D01*
X146439888Y-124735938D01*
X146431140Y-124681603D01*
X146484247Y-124603607D01*
X146594037Y-124512227D01*
X146659866Y-124469890D01*
X146843155Y-124372730D01*
X146969881Y-124335402D01*
X147043129Y-124357649D01*
G37*
X147043129Y-124357649D02*
X147066000Y-124436151D01*
X147081111Y-124510147D01*
X147142793Y-124543858D01*
X147203584Y-124552568D01*
X147303232Y-124575803D01*
X147339598Y-124628408D01*
X147341167Y-124650500D01*
X147319417Y-124713533D01*
X147240693Y-124743690D01*
X147201555Y-124748583D01*
X147061944Y-124762000D01*
X147074555Y-125002583D01*
X147083999Y-125138482D01*
X147101701Y-125210238D01*
X147139205Y-125238312D01*
X147208054Y-125243166D01*
X147210288Y-125243167D01*
X147316024Y-125261488D01*
X147346145Y-125310196D01*
X147299779Y-125379902D01*
X147227856Y-125432242D01*
X147044638Y-125506958D01*
X146872266Y-125507343D01*
X146725323Y-125433895D01*
X146704243Y-125414424D01*
X146646053Y-125343824D01*
X146614468Y-125261522D01*
X146601901Y-125139703D01*
X146600334Y-125033424D01*
X146597730Y-124883879D01*
X146586122Y-124800285D01*
X146559809Y-124763990D01*
X146515667Y-124756333D01*
X146439888Y-124735938D01*
X146431140Y-124681603D01*
X146484247Y-124603607D01*
X146594037Y-124512227D01*
X146659866Y-124469890D01*
X146843155Y-124372730D01*
X146969881Y-124335402D01*
X147043129Y-124357649D01*
G36*
X148147109Y-124559637D02*
G01*
X148321811Y-124631570D01*
X148455342Y-124755352D01*
X148533400Y-124923227D01*
X148547667Y-125044855D01*
X148509180Y-125202921D01*
X148405704Y-125336439D01*
X148255210Y-125437756D01*
X148075674Y-125499218D01*
X147885069Y-125513173D01*
X147701368Y-125471966D01*
X147629619Y-125435774D01*
X147485917Y-125315557D01*
X147418660Y-125169472D01*
X147417490Y-125000945D01*
X147454460Y-124883986D01*
X147871383Y-124883986D01*
X147872714Y-125003349D01*
X147895955Y-125123999D01*
X147936730Y-125213289D01*
X148004587Y-125279900D01*
X148053803Y-125266251D01*
X148079446Y-125175631D01*
X148082000Y-125116424D01*
X148066153Y-124958497D01*
X148024270Y-124834245D01*
X147964839Y-124764444D01*
X147934881Y-124756333D01*
X147892069Y-124792714D01*
X147871383Y-124883986D01*
X147454460Y-124883986D01*
X147477088Y-124812402D01*
X147602271Y-124673745D01*
X147731390Y-124602324D01*
X147945535Y-124547304D01*
X148147109Y-124559637D01*
G37*
X148147109Y-124559637D02*
X148321811Y-124631570D01*
X148455342Y-124755352D01*
X148533400Y-124923227D01*
X148547667Y-125044855D01*
X148509180Y-125202921D01*
X148405704Y-125336439D01*
X148255210Y-125437756D01*
X148075674Y-125499218D01*
X147885069Y-125513173D01*
X147701368Y-125471966D01*
X147629619Y-125435774D01*
X147485917Y-125315557D01*
X147418660Y-125169472D01*
X147417490Y-125000945D01*
X147454460Y-124883986D01*
X147871383Y-124883986D01*
X147872714Y-125003349D01*
X147895955Y-125123999D01*
X147936730Y-125213289D01*
X148004587Y-125279900D01*
X148053803Y-125266251D01*
X148079446Y-125175631D01*
X148082000Y-125116424D01*
X148066153Y-124958497D01*
X148024270Y-124834245D01*
X147964839Y-124764444D01*
X147934881Y-124756333D01*
X147892069Y-124792714D01*
X147871383Y-124883986D01*
X147454460Y-124883986D01*
X147477088Y-124812402D01*
X147602271Y-124673745D01*
X147731390Y-124602324D01*
X147945535Y-124547304D01*
X148147109Y-124559637D01*
G36*
X149132904Y-124597134D02*
G01*
X149140334Y-124636712D01*
X149140334Y-124728758D01*
X149238312Y-124636712D01*
X149364373Y-124558022D01*
X149482399Y-124559484D01*
X149581909Y-124640636D01*
X149589863Y-124652234D01*
X149635613Y-124751186D01*
X149621655Y-124843615D01*
X149613445Y-124862733D01*
X149532550Y-124958054D01*
X149419965Y-124998504D01*
X149306741Y-124975967D01*
X149272776Y-124951758D01*
X149202167Y-124907411D01*
X149160001Y-124933886D01*
X149141856Y-125036148D01*
X149140334Y-125100566D01*
X149156572Y-125227694D01*
X149211705Y-125298803D01*
X149225000Y-125306667D01*
X149296633Y-125373568D01*
X149299960Y-125445119D01*
X149242704Y-125492637D01*
X149135430Y-125514650D01*
X148992174Y-125520777D01*
X148842103Y-125512740D01*
X148714380Y-125492263D01*
X148638173Y-125461071D01*
X148633843Y-125456652D01*
X148606323Y-125393352D01*
X148638638Y-125315538D01*
X148649826Y-125299066D01*
X148699299Y-125182422D01*
X148716118Y-125042524D01*
X148700473Y-124912316D01*
X148652558Y-124824740D01*
X148647033Y-124820339D01*
X148602369Y-124754504D01*
X148641156Y-124684945D01*
X148762350Y-124613312D01*
X148784308Y-124603847D01*
X148951340Y-124550946D01*
X149070384Y-124548971D01*
X149132904Y-124597134D01*
G37*
X149132904Y-124597134D02*
X149140334Y-124636712D01*
X149140334Y-124728758D01*
X149238312Y-124636712D01*
X149364373Y-124558022D01*
X149482399Y-124559484D01*
X149581909Y-124640636D01*
X149589863Y-124652234D01*
X149635613Y-124751186D01*
X149621655Y-124843615D01*
X149613445Y-124862733D01*
X149532550Y-124958054D01*
X149419965Y-124998504D01*
X149306741Y-124975967D01*
X149272776Y-124951758D01*
X149202167Y-124907411D01*
X149160001Y-124933886D01*
X149141856Y-125036148D01*
X149140334Y-125100566D01*
X149156572Y-125227694D01*
X149211705Y-125298803D01*
X149225000Y-125306667D01*
X149296633Y-125373568D01*
X149299960Y-125445119D01*
X149242704Y-125492637D01*
X149135430Y-125514650D01*
X148992174Y-125520777D01*
X148842103Y-125512740D01*
X148714380Y-125492263D01*
X148638173Y-125461071D01*
X148633843Y-125456652D01*
X148606323Y-125393352D01*
X148638638Y-125315538D01*
X148649826Y-125299066D01*
X148699299Y-125182422D01*
X148716118Y-125042524D01*
X148700473Y-124912316D01*
X148652558Y-124824740D01*
X148647033Y-124820339D01*
X148602369Y-124754504D01*
X148641156Y-124684945D01*
X148762350Y-124613312D01*
X148784308Y-124603847D01*
X148951340Y-124550946D01*
X149070384Y-124548971D01*
X149132904Y-124597134D01*
G36*
X139516047Y-120661914D02*
G01*
X139658389Y-120669180D01*
X139769608Y-120682503D01*
X139863066Y-120702386D01*
X139905001Y-120714244D01*
X140155226Y-120827803D01*
X140347558Y-120991179D01*
X140480623Y-121191163D01*
X140553049Y-121414541D01*
X140563461Y-121648101D01*
X140510488Y-121878632D01*
X140392754Y-122092921D01*
X140208888Y-122277758D01*
X140076437Y-122363524D01*
X139954758Y-122424422D01*
X139841242Y-122463638D01*
X139708723Y-122487185D01*
X139530036Y-122501079D01*
X139435417Y-122505452D01*
X139022667Y-122522514D01*
X139022667Y-122746961D01*
X139028843Y-122922712D01*
X139053645Y-123036930D01*
X139106479Y-123112245D01*
X139196755Y-123171286D01*
X139199708Y-123172819D01*
X139294710Y-123256997D01*
X139315481Y-123359323D01*
X139263617Y-123460267D01*
X139170834Y-123526936D01*
X139052178Y-123561751D01*
X138873551Y-123586640D01*
X138659122Y-123601091D01*
X138433062Y-123604586D01*
X138219541Y-123596612D01*
X138042728Y-123576653D01*
X137947399Y-123553013D01*
X137791819Y-123477679D01*
X137720061Y-123395733D01*
X137731341Y-123303817D01*
X137824877Y-123198573D01*
X137858500Y-123171703D01*
X138006667Y-123058691D01*
X138006667Y-121769928D01*
X139029034Y-121769928D01*
X139036666Y-121910139D01*
X139055564Y-121988421D01*
X139073965Y-122011103D01*
X139201679Y-122045567D01*
X139341870Y-122005015D01*
X139449257Y-121923256D01*
X139527703Y-121829249D01*
X139564145Y-121729614D01*
X139573000Y-121586950D01*
X139544695Y-121381297D01*
X139460603Y-121238057D01*
X139321961Y-121158750D01*
X139211048Y-121142412D01*
X139043834Y-121136833D01*
X139031632Y-121556668D01*
X139029034Y-121769928D01*
X138006667Y-121769928D01*
X138006667Y-121153680D01*
X137865714Y-121094786D01*
X137712979Y-121008318D01*
X137643019Y-120910405D01*
X137646158Y-120821463D01*
X137660780Y-120784900D01*
X137685300Y-120756267D01*
X137729710Y-120734228D01*
X137804002Y-120717449D01*
X137918169Y-120704593D01*
X138082201Y-120694325D01*
X138306092Y-120685309D01*
X138599834Y-120676209D01*
X138768667Y-120671417D01*
X139084548Y-120663536D01*
X139329221Y-120660200D01*
X139516047Y-120661914D01*
G37*
X139516047Y-120661914D02*
X139658389Y-120669180D01*
X139769608Y-120682503D01*
X139863066Y-120702386D01*
X139905001Y-120714244D01*
X140155226Y-120827803D01*
X140347558Y-120991179D01*
X140480623Y-121191163D01*
X140553049Y-121414541D01*
X140563461Y-121648101D01*
X140510488Y-121878632D01*
X140392754Y-122092921D01*
X140208888Y-122277758D01*
X140076437Y-122363524D01*
X139954758Y-122424422D01*
X139841242Y-122463638D01*
X139708723Y-122487185D01*
X139530036Y-122501079D01*
X139435417Y-122505452D01*
X139022667Y-122522514D01*
X139022667Y-122746961D01*
X139028843Y-122922712D01*
X139053645Y-123036930D01*
X139106479Y-123112245D01*
X139196755Y-123171286D01*
X139199708Y-123172819D01*
X139294710Y-123256997D01*
X139315481Y-123359323D01*
X139263617Y-123460267D01*
X139170834Y-123526936D01*
X139052178Y-123561751D01*
X138873551Y-123586640D01*
X138659122Y-123601091D01*
X138433062Y-123604586D01*
X138219541Y-123596612D01*
X138042728Y-123576653D01*
X137947399Y-123553013D01*
X137791819Y-123477679D01*
X137720061Y-123395733D01*
X137731341Y-123303817D01*
X137824877Y-123198573D01*
X137858500Y-123171703D01*
X138006667Y-123058691D01*
X138006667Y-121769928D01*
X139029034Y-121769928D01*
X139036666Y-121910139D01*
X139055564Y-121988421D01*
X139073965Y-122011103D01*
X139201679Y-122045567D01*
X139341870Y-122005015D01*
X139449257Y-121923256D01*
X139527703Y-121829249D01*
X139564145Y-121729614D01*
X139573000Y-121586950D01*
X139544695Y-121381297D01*
X139460603Y-121238057D01*
X139321961Y-121158750D01*
X139211048Y-121142412D01*
X139043834Y-121136833D01*
X139031632Y-121556668D01*
X139029034Y-121769928D01*
X138006667Y-121769928D01*
X138006667Y-121153680D01*
X137865714Y-121094786D01*
X137712979Y-121008318D01*
X137643019Y-120910405D01*
X137646158Y-120821463D01*
X137660780Y-120784900D01*
X137685300Y-120756267D01*
X137729710Y-120734228D01*
X137804002Y-120717449D01*
X137918169Y-120704593D01*
X138082201Y-120694325D01*
X138306092Y-120685309D01*
X138599834Y-120676209D01*
X138768667Y-120671417D01*
X139084548Y-120663536D01*
X139329221Y-120660200D01*
X139516047Y-120661914D01*
G36*
X141529308Y-120654379D02*
G01*
X141677323Y-120666907D01*
X141768245Y-120689099D01*
X141769792Y-120689902D01*
X141823880Y-120728716D01*
X141931147Y-120813638D01*
X142080534Y-120935621D01*
X142260982Y-121085620D01*
X142461433Y-121254589D01*
X142495929Y-121283891D01*
X142697102Y-121451759D01*
X142879541Y-121597959D01*
X143032514Y-121714375D01*
X143145289Y-121792891D01*
X143207133Y-121825390D01*
X143212337Y-121825675D01*
X143255269Y-121788344D01*
X143280924Y-121687963D01*
X143290251Y-121583199D01*
X143293257Y-121384006D01*
X143271074Y-121248472D01*
X143217373Y-121157716D01*
X143125882Y-121092888D01*
X143036657Y-121032263D01*
X143007754Y-120956469D01*
X143010079Y-120892000D01*
X143034730Y-120792839D01*
X143093849Y-120723939D01*
X143199016Y-120681182D01*
X143361811Y-120660448D01*
X143593816Y-120657618D01*
X143664419Y-120659238D01*
X143871842Y-120667760D01*
X144012824Y-120681793D01*
X144105562Y-120704583D01*
X144168251Y-120739379D01*
X144183003Y-120751811D01*
X144249184Y-120837248D01*
X144272000Y-120908892D01*
X144266046Y-120959466D01*
X144237710Y-121006248D01*
X144171282Y-121067442D01*
X144060334Y-121154172D01*
X143954500Y-121234981D01*
X143932455Y-122286574D01*
X143923614Y-122653543D01*
X143912959Y-122944711D01*
X143898640Y-123168946D01*
X143878809Y-123335113D01*
X143851616Y-123452079D01*
X143815214Y-123528711D01*
X143767752Y-123573874D01*
X143707383Y-123596435D01*
X143657872Y-123603404D01*
X143609660Y-123600652D01*
X143551549Y-123579976D01*
X143474878Y-123535027D01*
X143370988Y-123459456D01*
X143231221Y-123346913D01*
X143046916Y-123191049D01*
X142809415Y-122985514D01*
X142778680Y-122958737D01*
X142562183Y-122771072D01*
X142363584Y-122600892D01*
X142192837Y-122456569D01*
X142059896Y-122346475D01*
X141974714Y-122278981D01*
X141950899Y-122262537D01*
X141860140Y-122240975D01*
X141796100Y-122291402D01*
X141755869Y-122417761D01*
X141740765Y-122547150D01*
X141741379Y-122763040D01*
X141773285Y-122942802D01*
X141831964Y-123070384D01*
X141903994Y-123127344D01*
X141989786Y-123184557D01*
X142032697Y-123240487D01*
X142054962Y-123320086D01*
X142020887Y-123403958D01*
X141997086Y-123437695D01*
X141906658Y-123525643D01*
X141812851Y-123576356D01*
X141713657Y-123590927D01*
X141559674Y-123599829D01*
X141380607Y-123602791D01*
X141206161Y-123599542D01*
X141066041Y-123589810D01*
X141023760Y-123583568D01*
X140938184Y-123540327D01*
X140846799Y-123458466D01*
X140778017Y-123367360D01*
X140758334Y-123309133D01*
X140787164Y-123260257D01*
X140860620Y-123178962D01*
X140913266Y-123128413D01*
X141068199Y-122986476D01*
X141088045Y-122436869D01*
X141093356Y-122196983D01*
X141092911Y-121957041D01*
X141087087Y-121745835D01*
X141077067Y-121599428D01*
X141055924Y-121439606D01*
X141024540Y-121331671D01*
X140967801Y-121242984D01*
X140870593Y-121140907D01*
X140859955Y-121130543D01*
X140761993Y-121031494D01*
X140694516Y-120955926D01*
X140673667Y-120923963D01*
X140710600Y-120828432D01*
X140804350Y-120740160D01*
X140890757Y-120696786D01*
X141004925Y-120672717D01*
X141166887Y-120657489D01*
X141350422Y-120651308D01*
X141529308Y-120654379D01*
G37*
X141529308Y-120654379D02*
X141677323Y-120666907D01*
X141768245Y-120689099D01*
X141769792Y-120689902D01*
X141823880Y-120728716D01*
X141931147Y-120813638D01*
X142080534Y-120935621D01*
X142260982Y-121085620D01*
X142461433Y-121254589D01*
X142495929Y-121283891D01*
X142697102Y-121451759D01*
X142879541Y-121597959D01*
X143032514Y-121714375D01*
X143145289Y-121792891D01*
X143207133Y-121825390D01*
X143212337Y-121825675D01*
X143255269Y-121788344D01*
X143280924Y-121687963D01*
X143290251Y-121583199D01*
X143293257Y-121384006D01*
X143271074Y-121248472D01*
X143217373Y-121157716D01*
X143125882Y-121092888D01*
X143036657Y-121032263D01*
X143007754Y-120956469D01*
X143010079Y-120892000D01*
X143034730Y-120792839D01*
X143093849Y-120723939D01*
X143199016Y-120681182D01*
X143361811Y-120660448D01*
X143593816Y-120657618D01*
X143664419Y-120659238D01*
X143871842Y-120667760D01*
X144012824Y-120681793D01*
X144105562Y-120704583D01*
X144168251Y-120739379D01*
X144183003Y-120751811D01*
X144249184Y-120837248D01*
X144272000Y-120908892D01*
X144266046Y-120959466D01*
X144237710Y-121006248D01*
X144171282Y-121067442D01*
X144060334Y-121154172D01*
X143954500Y-121234981D01*
X143932455Y-122286574D01*
X143923614Y-122653543D01*
X143912959Y-122944711D01*
X143898640Y-123168946D01*
X143878809Y-123335113D01*
X143851616Y-123452079D01*
X143815214Y-123528711D01*
X143767752Y-123573874D01*
X143707383Y-123596435D01*
X143657872Y-123603404D01*
X143609660Y-123600652D01*
X143551549Y-123579976D01*
X143474878Y-123535027D01*
X143370988Y-123459456D01*
X143231221Y-123346913D01*
X143046916Y-123191049D01*
X142809415Y-122985514D01*
X142778680Y-122958737D01*
X142562183Y-122771072D01*
X142363584Y-122600892D01*
X142192837Y-122456569D01*
X142059896Y-122346475D01*
X141974714Y-122278981D01*
X141950899Y-122262537D01*
X141860140Y-122240975D01*
X141796100Y-122291402D01*
X141755869Y-122417761D01*
X141740765Y-122547150D01*
X141741379Y-122763040D01*
X141773285Y-122942802D01*
X141831964Y-123070384D01*
X141903994Y-123127344D01*
X141989786Y-123184557D01*
X142032697Y-123240487D01*
X142054962Y-123320086D01*
X142020887Y-123403958D01*
X141997086Y-123437695D01*
X141906658Y-123525643D01*
X141812851Y-123576356D01*
X141713657Y-123590927D01*
X141559674Y-123599829D01*
X141380607Y-123602791D01*
X141206161Y-123599542D01*
X141066041Y-123589810D01*
X141023760Y-123583568D01*
X140938184Y-123540327D01*
X140846799Y-123458466D01*
X140778017Y-123367360D01*
X140758334Y-123309133D01*
X140787164Y-123260257D01*
X140860620Y-123178962D01*
X140913266Y-123128413D01*
X141068199Y-122986476D01*
X141088045Y-122436869D01*
X141093356Y-122196983D01*
X141092911Y-121957041D01*
X141087087Y-121745835D01*
X141077067Y-121599428D01*
X141055924Y-121439606D01*
X141024540Y-121331671D01*
X140967801Y-121242984D01*
X140870593Y-121140907D01*
X140859955Y-121130543D01*
X140761993Y-121031494D01*
X140694516Y-120955926D01*
X140673667Y-120923963D01*
X140710600Y-120828432D01*
X140804350Y-120740160D01*
X140890757Y-120696786D01*
X141004925Y-120672717D01*
X141166887Y-120657489D01*
X141350422Y-120651308D01*
X141529308Y-120654379D01*
G36*
X146247047Y-120661914D02*
G01*
X146389389Y-120669180D01*
X146500608Y-120682503D01*
X146594066Y-120702386D01*
X146636001Y-120714244D01*
X146886226Y-120827803D01*
X147078558Y-120991179D01*
X147211623Y-121191163D01*
X147284049Y-121414541D01*
X147294461Y-121648101D01*
X147241488Y-121878632D01*
X147123754Y-122092921D01*
X146939888Y-122277758D01*
X146807437Y-122363524D01*
X146685758Y-122424422D01*
X146572242Y-122463638D01*
X146439723Y-122487185D01*
X146261036Y-122501079D01*
X146166417Y-122505452D01*
X145753667Y-122522514D01*
X145753667Y-122746961D01*
X145759843Y-122922712D01*
X145784645Y-123036930D01*
X145837479Y-123112245D01*
X145927755Y-123171286D01*
X145930708Y-123172819D01*
X146025710Y-123256997D01*
X146046481Y-123359323D01*
X145994617Y-123460267D01*
X145901834Y-123526936D01*
X145783178Y-123561751D01*
X145604551Y-123586640D01*
X145390122Y-123601091D01*
X145164062Y-123604586D01*
X144950541Y-123596612D01*
X144773728Y-123576653D01*
X144678399Y-123553013D01*
X144522819Y-123477679D01*
X144451061Y-123395733D01*
X144462341Y-123303817D01*
X144555877Y-123198573D01*
X144589500Y-123171703D01*
X144737667Y-123058691D01*
X144737667Y-121769928D01*
X145760034Y-121769928D01*
X145767666Y-121910139D01*
X145786564Y-121988421D01*
X145804965Y-122011103D01*
X145932679Y-122045567D01*
X146072870Y-122005015D01*
X146180257Y-121923256D01*
X146258703Y-121829249D01*
X146295145Y-121729614D01*
X146304000Y-121586950D01*
X146275695Y-121381297D01*
X146191603Y-121238057D01*
X146052961Y-121158750D01*
X145942048Y-121142412D01*
X145774834Y-121136833D01*
X145762632Y-121556668D01*
X145760034Y-121769928D01*
X144737667Y-121769928D01*
X144737667Y-121153680D01*
X144596714Y-121094786D01*
X144443979Y-121008318D01*
X144374019Y-120910405D01*
X144377158Y-120821463D01*
X144391780Y-120784900D01*
X144416300Y-120756267D01*
X144460710Y-120734228D01*
X144535002Y-120717449D01*
X144649169Y-120704593D01*
X144813201Y-120694325D01*
X145037092Y-120685309D01*
X145330834Y-120676209D01*
X145499667Y-120671417D01*
X145815548Y-120663536D01*
X146060221Y-120660200D01*
X146247047Y-120661914D01*
G37*
X146247047Y-120661914D02*
X146389389Y-120669180D01*
X146500608Y-120682503D01*
X146594066Y-120702386D01*
X146636001Y-120714244D01*
X146886226Y-120827803D01*
X147078558Y-120991179D01*
X147211623Y-121191163D01*
X147284049Y-121414541D01*
X147294461Y-121648101D01*
X147241488Y-121878632D01*
X147123754Y-122092921D01*
X146939888Y-122277758D01*
X146807437Y-122363524D01*
X146685758Y-122424422D01*
X146572242Y-122463638D01*
X146439723Y-122487185D01*
X146261036Y-122501079D01*
X146166417Y-122505452D01*
X145753667Y-122522514D01*
X145753667Y-122746961D01*
X145759843Y-122922712D01*
X145784645Y-123036930D01*
X145837479Y-123112245D01*
X145927755Y-123171286D01*
X145930708Y-123172819D01*
X146025710Y-123256997D01*
X146046481Y-123359323D01*
X145994617Y-123460267D01*
X145901834Y-123526936D01*
X145783178Y-123561751D01*
X145604551Y-123586640D01*
X145390122Y-123601091D01*
X145164062Y-123604586D01*
X144950541Y-123596612D01*
X144773728Y-123576653D01*
X144678399Y-123553013D01*
X144522819Y-123477679D01*
X144451061Y-123395733D01*
X144462341Y-123303817D01*
X144555877Y-123198573D01*
X144589500Y-123171703D01*
X144737667Y-123058691D01*
X144737667Y-121769928D01*
X145760034Y-121769928D01*
X145767666Y-121910139D01*
X145786564Y-121988421D01*
X145804965Y-122011103D01*
X145932679Y-122045567D01*
X146072870Y-122005015D01*
X146180257Y-121923256D01*
X146258703Y-121829249D01*
X146295145Y-121729614D01*
X146304000Y-121586950D01*
X146275695Y-121381297D01*
X146191603Y-121238057D01*
X146052961Y-121158750D01*
X145942048Y-121142412D01*
X145774834Y-121136833D01*
X145762632Y-121556668D01*
X145760034Y-121769928D01*
X144737667Y-121769928D01*
X144737667Y-121153680D01*
X144596714Y-121094786D01*
X144443979Y-121008318D01*
X144374019Y-120910405D01*
X144377158Y-120821463D01*
X144391780Y-120784900D01*
X144416300Y-120756267D01*
X144460710Y-120734228D01*
X144535002Y-120717449D01*
X144649169Y-120704593D01*
X144813201Y-120694325D01*
X145037092Y-120685309D01*
X145330834Y-120676209D01*
X145499667Y-120671417D01*
X145815548Y-120663536D01*
X146060221Y-120660200D01*
X146247047Y-120661914D01*
G36*
X148217975Y-120654379D02*
G01*
X148365990Y-120666907D01*
X148456912Y-120689099D01*
X148458458Y-120689902D01*
X148512547Y-120728716D01*
X148619813Y-120813638D01*
X148769200Y-120935621D01*
X148949649Y-121085620D01*
X149150099Y-121254589D01*
X149184595Y-121283891D01*
X149385768Y-121451759D01*
X149568208Y-121597959D01*
X149721181Y-121714375D01*
X149833956Y-121792891D01*
X149895799Y-121825390D01*
X149901003Y-121825675D01*
X149943936Y-121788344D01*
X149969590Y-121687963D01*
X149978918Y-121583199D01*
X149981923Y-121384006D01*
X149959740Y-121248472D01*
X149906040Y-121157716D01*
X149814549Y-121092888D01*
X149725323Y-121032263D01*
X149696421Y-120956469D01*
X149698746Y-120892000D01*
X149723397Y-120792839D01*
X149782516Y-120723939D01*
X149887683Y-120681182D01*
X150050478Y-120660448D01*
X150282482Y-120657618D01*
X150353086Y-120659238D01*
X150560509Y-120667760D01*
X150701491Y-120681793D01*
X150794229Y-120704583D01*
X150856918Y-120739379D01*
X150871669Y-120751811D01*
X150937850Y-120837248D01*
X150960667Y-120908892D01*
X150954713Y-120959466D01*
X150926377Y-121006248D01*
X150859948Y-121067442D01*
X150749000Y-121154172D01*
X150643167Y-121234981D01*
X150621122Y-122286574D01*
X150612281Y-122653543D01*
X150601626Y-122944711D01*
X150587307Y-123168946D01*
X150567475Y-123335113D01*
X150540283Y-123452079D01*
X150503880Y-123528711D01*
X150456419Y-123573874D01*
X150396050Y-123596435D01*
X150346539Y-123603404D01*
X150298327Y-123600652D01*
X150240215Y-123579976D01*
X150163544Y-123535027D01*
X150059655Y-123459456D01*
X149919887Y-123346913D01*
X149735583Y-123191049D01*
X149498082Y-122985514D01*
X149467347Y-122958737D01*
X149250850Y-122771072D01*
X149052251Y-122600892D01*
X148881504Y-122456569D01*
X148748562Y-122346475D01*
X148663381Y-122278981D01*
X148639566Y-122262537D01*
X148548807Y-122240975D01*
X148484767Y-122291402D01*
X148444536Y-122417761D01*
X148429431Y-122547150D01*
X148430046Y-122763040D01*
X148461951Y-122942802D01*
X148520631Y-123070384D01*
X148592661Y-123127344D01*
X148678453Y-123184557D01*
X148721364Y-123240487D01*
X148743628Y-123320086D01*
X148709553Y-123403958D01*
X148685753Y-123437695D01*
X148595325Y-123525643D01*
X148501517Y-123576356D01*
X148402324Y-123590927D01*
X148248341Y-123599829D01*
X148069274Y-123602791D01*
X147894828Y-123599542D01*
X147754708Y-123589810D01*
X147712427Y-123583568D01*
X147626850Y-123540327D01*
X147535466Y-123458466D01*
X147466684Y-123367360D01*
X147447000Y-123309133D01*
X147475830Y-123260257D01*
X147549286Y-123178962D01*
X147601933Y-123128413D01*
X147756866Y-122986476D01*
X147776712Y-122436869D01*
X147782023Y-122196983D01*
X147781577Y-121957041D01*
X147775753Y-121745835D01*
X147765733Y-121599428D01*
X147744591Y-121439606D01*
X147713207Y-121331671D01*
X147656467Y-121242984D01*
X147559259Y-121140907D01*
X147548621Y-121130543D01*
X147450660Y-121031494D01*
X147383183Y-120955926D01*
X147362334Y-120923963D01*
X147399267Y-120828432D01*
X147493017Y-120740160D01*
X147579424Y-120696786D01*
X147693591Y-120672717D01*
X147855553Y-120657489D01*
X148039089Y-120651308D01*
X148217975Y-120654379D01*
G37*
X148217975Y-120654379D02*
X148365990Y-120666907D01*
X148456912Y-120689099D01*
X148458458Y-120689902D01*
X148512547Y-120728716D01*
X148619813Y-120813638D01*
X148769200Y-120935621D01*
X148949649Y-121085620D01*
X149150099Y-121254589D01*
X149184595Y-121283891D01*
X149385768Y-121451759D01*
X149568208Y-121597959D01*
X149721181Y-121714375D01*
X149833956Y-121792891D01*
X149895799Y-121825390D01*
X149901003Y-121825675D01*
X149943936Y-121788344D01*
X149969590Y-121687963D01*
X149978918Y-121583199D01*
X149981923Y-121384006D01*
X149959740Y-121248472D01*
X149906040Y-121157716D01*
X149814549Y-121092888D01*
X149725323Y-121032263D01*
X149696421Y-120956469D01*
X149698746Y-120892000D01*
X149723397Y-120792839D01*
X149782516Y-120723939D01*
X149887683Y-120681182D01*
X150050478Y-120660448D01*
X150282482Y-120657618D01*
X150353086Y-120659238D01*
X150560509Y-120667760D01*
X150701491Y-120681793D01*
X150794229Y-120704583D01*
X150856918Y-120739379D01*
X150871669Y-120751811D01*
X150937850Y-120837248D01*
X150960667Y-120908892D01*
X150954713Y-120959466D01*
X150926377Y-121006248D01*
X150859948Y-121067442D01*
X150749000Y-121154172D01*
X150643167Y-121234981D01*
X150621122Y-122286574D01*
X150612281Y-122653543D01*
X150601626Y-122944711D01*
X150587307Y-123168946D01*
X150567475Y-123335113D01*
X150540283Y-123452079D01*
X150503880Y-123528711D01*
X150456419Y-123573874D01*
X150396050Y-123596435D01*
X150346539Y-123603404D01*
X150298327Y-123600652D01*
X150240215Y-123579976D01*
X150163544Y-123535027D01*
X150059655Y-123459456D01*
X149919887Y-123346913D01*
X149735583Y-123191049D01*
X149498082Y-122985514D01*
X149467347Y-122958737D01*
X149250850Y-122771072D01*
X149052251Y-122600892D01*
X148881504Y-122456569D01*
X148748562Y-122346475D01*
X148663381Y-122278981D01*
X148639566Y-122262537D01*
X148548807Y-122240975D01*
X148484767Y-122291402D01*
X148444536Y-122417761D01*
X148429431Y-122547150D01*
X148430046Y-122763040D01*
X148461951Y-122942802D01*
X148520631Y-123070384D01*
X148592661Y-123127344D01*
X148678453Y-123184557D01*
X148721364Y-123240487D01*
X148743628Y-123320086D01*
X148709553Y-123403958D01*
X148685753Y-123437695D01*
X148595325Y-123525643D01*
X148501517Y-123576356D01*
X148402324Y-123590927D01*
X148248341Y-123599829D01*
X148069274Y-123602791D01*
X147894828Y-123599542D01*
X147754708Y-123589810D01*
X147712427Y-123583568D01*
X147626850Y-123540327D01*
X147535466Y-123458466D01*
X147466684Y-123367360D01*
X147447000Y-123309133D01*
X147475830Y-123260257D01*
X147549286Y-123178962D01*
X147601933Y-123128413D01*
X147756866Y-122986476D01*
X147776712Y-122436869D01*
X147782023Y-122196983D01*
X147781577Y-121957041D01*
X147775753Y-121745835D01*
X147765733Y-121599428D01*
X147744591Y-121439606D01*
X147713207Y-121331671D01*
X147656467Y-121242984D01*
X147559259Y-121140907D01*
X147548621Y-121130543D01*
X147450660Y-121031494D01*
X147383183Y-120955926D01*
X147362334Y-120923963D01*
X147399267Y-120828432D01*
X147493017Y-120740160D01*
X147579424Y-120696786D01*
X147693591Y-120672717D01*
X147855553Y-120657489D01*
X148039089Y-120651308D01*
X148217975Y-120654379D01*
D12*
G04 #@! TO.C,R3*
X146780000Y-112800000D02*
X146780000Y-113130000D01*
X146780000Y-113130000D02*
X140240000Y-113130000D01*
X140240000Y-113130000D02*
X140240000Y-112800000D01*
X146780000Y-110720000D02*
X146780000Y-110390000D01*
X146780000Y-110390000D02*
X140240000Y-110390000D01*
X140240000Y-110390000D02*
X140240000Y-110720000D01*
G04 #@! TO.C,R2*
X146780000Y-117880000D02*
X146780000Y-118210000D01*
X146780000Y-118210000D02*
X140240000Y-118210000D01*
X140240000Y-118210000D02*
X140240000Y-117880000D01*
X146780000Y-115800000D02*
X146780000Y-115470000D01*
X146780000Y-115470000D02*
X140240000Y-115470000D01*
X140240000Y-115470000D02*
X140240000Y-115800000D01*
G04 #@! TO.C,R1*
X153440000Y-111030000D02*
X153770000Y-111030000D01*
X153770000Y-111030000D02*
X153770000Y-117570000D01*
X153770000Y-117570000D02*
X153440000Y-117570000D01*
X151360000Y-111030000D02*
X151030000Y-111030000D01*
X151030000Y-111030000D02*
X151030000Y-117570000D01*
X151030000Y-117570000D02*
X151360000Y-117570000D01*
G04 #@! TO.C,J15*
X124540000Y-119400000D02*
X130510000Y-119400000D01*
X130510000Y-119400000D02*
X130510000Y-109280000D01*
X130510000Y-109280000D02*
X124540000Y-109280000D01*
X124540000Y-109280000D02*
X124540000Y-119400000D01*
X124550000Y-116090000D02*
X125300000Y-116090000D01*
X125300000Y-116090000D02*
X125300000Y-112590000D01*
X125300000Y-112590000D02*
X124550000Y-112590000D01*
X124550000Y-112590000D02*
X124550000Y-116090000D01*
X124550000Y-119390000D02*
X125300000Y-119390000D01*
X125300000Y-119390000D02*
X125300000Y-117590000D01*
X125300000Y-117590000D02*
X124550000Y-117590000D01*
X124550000Y-117590000D02*
X124550000Y-119390000D01*
X124550000Y-111090000D02*
X125300000Y-111090000D01*
X125300000Y-111090000D02*
X125300000Y-109290000D01*
X125300000Y-109290000D02*
X124550000Y-109290000D01*
X124550000Y-109290000D02*
X124550000Y-111090000D01*
X126800000Y-119390000D02*
X126800000Y-118640000D01*
X126800000Y-118640000D02*
X129750000Y-118640000D01*
X129750000Y-118640000D02*
X129750000Y-114340000D01*
X126800000Y-109290000D02*
X126800000Y-110040000D01*
X126800000Y-110040000D02*
X129750000Y-110040000D01*
X129750000Y-110040000D02*
X129750000Y-114340000D01*
X124250000Y-118440000D02*
X124250000Y-119690000D01*
X124250000Y-119690000D02*
X125500000Y-119690000D01*
G04 #@! TO.C,J14*
X111840000Y-119400000D02*
X117810000Y-119400000D01*
X117810000Y-119400000D02*
X117810000Y-109280000D01*
X117810000Y-109280000D02*
X111840000Y-109280000D01*
X111840000Y-109280000D02*
X111840000Y-119400000D01*
X111850000Y-116090000D02*
X112600000Y-116090000D01*
X112600000Y-116090000D02*
X112600000Y-112590000D01*
X112600000Y-112590000D02*
X111850000Y-112590000D01*
X111850000Y-112590000D02*
X111850000Y-116090000D01*
X111850000Y-119390000D02*
X112600000Y-119390000D01*
X112600000Y-119390000D02*
X112600000Y-117590000D01*
X112600000Y-117590000D02*
X111850000Y-117590000D01*
X111850000Y-117590000D02*
X111850000Y-119390000D01*
X111850000Y-111090000D02*
X112600000Y-111090000D01*
X112600000Y-111090000D02*
X112600000Y-109290000D01*
X112600000Y-109290000D02*
X111850000Y-109290000D01*
X111850000Y-109290000D02*
X111850000Y-111090000D01*
X114100000Y-119390000D02*
X114100000Y-118640000D01*
X114100000Y-118640000D02*
X117050000Y-118640000D01*
X117050000Y-118640000D02*
X117050000Y-114340000D01*
X114100000Y-109290000D02*
X114100000Y-110040000D01*
X114100000Y-110040000D02*
X117050000Y-110040000D01*
X117050000Y-110040000D02*
X117050000Y-114340000D01*
X111550000Y-118440000D02*
X111550000Y-119690000D01*
X111550000Y-119690000D02*
X112800000Y-119690000D01*
G04 #@! TO.C,J13*
X99140000Y-119400000D02*
X105110000Y-119400000D01*
X105110000Y-119400000D02*
X105110000Y-109280000D01*
X105110000Y-109280000D02*
X99140000Y-109280000D01*
X99140000Y-109280000D02*
X99140000Y-119400000D01*
X99150000Y-116090000D02*
X99900000Y-116090000D01*
X99900000Y-116090000D02*
X99900000Y-112590000D01*
X99900000Y-112590000D02*
X99150000Y-112590000D01*
X99150000Y-112590000D02*
X99150000Y-116090000D01*
X99150000Y-119390000D02*
X99900000Y-119390000D01*
X99900000Y-119390000D02*
X99900000Y-117590000D01*
X99900000Y-117590000D02*
X99150000Y-117590000D01*
X99150000Y-117590000D02*
X99150000Y-119390000D01*
X99150000Y-111090000D02*
X99900000Y-111090000D01*
X99900000Y-111090000D02*
X99900000Y-109290000D01*
X99900000Y-109290000D02*
X99150000Y-109290000D01*
X99150000Y-109290000D02*
X99150000Y-111090000D01*
X101400000Y-119390000D02*
X101400000Y-118640000D01*
X101400000Y-118640000D02*
X104350000Y-118640000D01*
X104350000Y-118640000D02*
X104350000Y-114340000D01*
X101400000Y-109290000D02*
X101400000Y-110040000D01*
X101400000Y-110040000D02*
X104350000Y-110040000D01*
X104350000Y-110040000D02*
X104350000Y-114340000D01*
X98850000Y-118440000D02*
X98850000Y-119690000D01*
X98850000Y-119690000D02*
X100100000Y-119690000D01*
G04 #@! TO.C,J10*
X185500000Y-119400000D02*
X191470000Y-119400000D01*
X191470000Y-119400000D02*
X191470000Y-111780000D01*
X191470000Y-111780000D02*
X185500000Y-111780000D01*
X185500000Y-111780000D02*
X185500000Y-119400000D01*
X185510000Y-116090000D02*
X186260000Y-116090000D01*
X186260000Y-116090000D02*
X186260000Y-115090000D01*
X186260000Y-115090000D02*
X185510000Y-115090000D01*
X185510000Y-115090000D02*
X185510000Y-116090000D01*
X185510000Y-119390000D02*
X186260000Y-119390000D01*
X186260000Y-119390000D02*
X186260000Y-117590000D01*
X186260000Y-117590000D02*
X185510000Y-117590000D01*
X185510000Y-117590000D02*
X185510000Y-119390000D01*
X185510000Y-113590000D02*
X186260000Y-113590000D01*
X186260000Y-113590000D02*
X186260000Y-111790000D01*
X186260000Y-111790000D02*
X185510000Y-111790000D01*
X185510000Y-111790000D02*
X185510000Y-113590000D01*
X187760000Y-119390000D02*
X187760000Y-118640000D01*
X187760000Y-118640000D02*
X190710000Y-118640000D01*
X190710000Y-118640000D02*
X190710000Y-115590000D01*
X187760000Y-111790000D02*
X187760000Y-112540000D01*
X187760000Y-112540000D02*
X190710000Y-112540000D01*
X190710000Y-112540000D02*
X190710000Y-115590000D01*
X185210000Y-118440000D02*
X185210000Y-119690000D01*
X185210000Y-119690000D02*
X186460000Y-119690000D01*
G04 #@! TO.C,J9*
X175340000Y-119400000D02*
X181310000Y-119400000D01*
X181310000Y-119400000D02*
X181310000Y-111780000D01*
X181310000Y-111780000D02*
X175340000Y-111780000D01*
X175340000Y-111780000D02*
X175340000Y-119400000D01*
X175350000Y-116090000D02*
X176100000Y-116090000D01*
X176100000Y-116090000D02*
X176100000Y-115090000D01*
X176100000Y-115090000D02*
X175350000Y-115090000D01*
X175350000Y-115090000D02*
X175350000Y-116090000D01*
X175350000Y-119390000D02*
X176100000Y-119390000D01*
X176100000Y-119390000D02*
X176100000Y-117590000D01*
X176100000Y-117590000D02*
X175350000Y-117590000D01*
X175350000Y-117590000D02*
X175350000Y-119390000D01*
X175350000Y-113590000D02*
X176100000Y-113590000D01*
X176100000Y-113590000D02*
X176100000Y-111790000D01*
X176100000Y-111790000D02*
X175350000Y-111790000D01*
X175350000Y-111790000D02*
X175350000Y-113590000D01*
X177600000Y-119390000D02*
X177600000Y-118640000D01*
X177600000Y-118640000D02*
X180550000Y-118640000D01*
X180550000Y-118640000D02*
X180550000Y-115590000D01*
X177600000Y-111790000D02*
X177600000Y-112540000D01*
X177600000Y-112540000D02*
X180550000Y-112540000D01*
X180550000Y-112540000D02*
X180550000Y-115590000D01*
X175050000Y-118440000D02*
X175050000Y-119690000D01*
X175050000Y-119690000D02*
X176300000Y-119690000D01*
G04 #@! TO.C,J8*
X165180000Y-119400000D02*
X171150000Y-119400000D01*
X171150000Y-119400000D02*
X171150000Y-111780000D01*
X171150000Y-111780000D02*
X165180000Y-111780000D01*
X165180000Y-111780000D02*
X165180000Y-119400000D01*
X165190000Y-116090000D02*
X165940000Y-116090000D01*
X165940000Y-116090000D02*
X165940000Y-115090000D01*
X165940000Y-115090000D02*
X165190000Y-115090000D01*
X165190000Y-115090000D02*
X165190000Y-116090000D01*
X165190000Y-119390000D02*
X165940000Y-119390000D01*
X165940000Y-119390000D02*
X165940000Y-117590000D01*
X165940000Y-117590000D02*
X165190000Y-117590000D01*
X165190000Y-117590000D02*
X165190000Y-119390000D01*
X165190000Y-113590000D02*
X165940000Y-113590000D01*
X165940000Y-113590000D02*
X165940000Y-111790000D01*
X165940000Y-111790000D02*
X165190000Y-111790000D01*
X165190000Y-111790000D02*
X165190000Y-113590000D01*
X167440000Y-119390000D02*
X167440000Y-118640000D01*
X167440000Y-118640000D02*
X170390000Y-118640000D01*
X170390000Y-118640000D02*
X170390000Y-115590000D01*
X167440000Y-111790000D02*
X167440000Y-112540000D01*
X167440000Y-112540000D02*
X170390000Y-112540000D01*
X170390000Y-112540000D02*
X170390000Y-115590000D01*
X164890000Y-118440000D02*
X164890000Y-119690000D01*
X164890000Y-119690000D02*
X166140000Y-119690000D01*
G04 #@! TO.C,J7*
X196330000Y-106810000D02*
X187210000Y-106810000D01*
X187210000Y-106810000D02*
X187210000Y-78610000D01*
X187210000Y-78610000D02*
X196330000Y-78610000D01*
X196330000Y-78610000D02*
X196330000Y-106810000D01*
X196330000Y-94760000D02*
X195020000Y-94760000D01*
X195020000Y-94760000D02*
X195020000Y-105510000D01*
X195020000Y-105510000D02*
X188520000Y-105510000D01*
X188520000Y-105510000D02*
X188520000Y-79910000D01*
X188520000Y-79910000D02*
X195020000Y-79910000D01*
X195020000Y-79910000D02*
X195020000Y-90660000D01*
X195020000Y-90660000D02*
X195020000Y-90660000D01*
X195020000Y-90660000D02*
X196330000Y-90660000D01*
X196720000Y-101600000D02*
X197720000Y-102100000D01*
X197720000Y-102100000D02*
X197720000Y-101100000D01*
X197720000Y-101100000D02*
X196720000Y-101600000D01*
G04 #@! TO.C,J6*
X181090000Y-106810000D02*
X171970000Y-106810000D01*
X171970000Y-106810000D02*
X171970000Y-78610000D01*
X171970000Y-78610000D02*
X181090000Y-78610000D01*
X181090000Y-78610000D02*
X181090000Y-106810000D01*
X181090000Y-94760000D02*
X179780000Y-94760000D01*
X179780000Y-94760000D02*
X179780000Y-105510000D01*
X179780000Y-105510000D02*
X173280000Y-105510000D01*
X173280000Y-105510000D02*
X173280000Y-79910000D01*
X173280000Y-79910000D02*
X179780000Y-79910000D01*
X179780000Y-79910000D02*
X179780000Y-90660000D01*
X179780000Y-90660000D02*
X179780000Y-90660000D01*
X179780000Y-90660000D02*
X181090000Y-90660000D01*
X181480000Y-101600000D02*
X182480000Y-102100000D01*
X182480000Y-102100000D02*
X182480000Y-101100000D01*
X182480000Y-101100000D02*
X181480000Y-101600000D01*
G04 #@! TO.C,J5*
X165850000Y-106810000D02*
X156730000Y-106810000D01*
X156730000Y-106810000D02*
X156730000Y-78610000D01*
X156730000Y-78610000D02*
X165850000Y-78610000D01*
X165850000Y-78610000D02*
X165850000Y-106810000D01*
X165850000Y-94760000D02*
X164540000Y-94760000D01*
X164540000Y-94760000D02*
X164540000Y-105510000D01*
X164540000Y-105510000D02*
X158040000Y-105510000D01*
X158040000Y-105510000D02*
X158040000Y-79910000D01*
X158040000Y-79910000D02*
X164540000Y-79910000D01*
X164540000Y-79910000D02*
X164540000Y-90660000D01*
X164540000Y-90660000D02*
X164540000Y-90660000D01*
X164540000Y-90660000D02*
X165850000Y-90660000D01*
X166240000Y-101600000D02*
X167240000Y-102100000D01*
X167240000Y-102100000D02*
X167240000Y-101100000D01*
X167240000Y-101100000D02*
X166240000Y-101600000D01*
G04 #@! TO.C,J4*
X150610000Y-106810000D02*
X141490000Y-106810000D01*
X141490000Y-106810000D02*
X141490000Y-78610000D01*
X141490000Y-78610000D02*
X150610000Y-78610000D01*
X150610000Y-78610000D02*
X150610000Y-106810000D01*
X150610000Y-94760000D02*
X149300000Y-94760000D01*
X149300000Y-94760000D02*
X149300000Y-105510000D01*
X149300000Y-105510000D02*
X142800000Y-105510000D01*
X142800000Y-105510000D02*
X142800000Y-79910000D01*
X142800000Y-79910000D02*
X149300000Y-79910000D01*
X149300000Y-79910000D02*
X149300000Y-90660000D01*
X149300000Y-90660000D02*
X149300000Y-90660000D01*
X149300000Y-90660000D02*
X150610000Y-90660000D01*
X151000000Y-101600000D02*
X152000000Y-102100000D01*
X152000000Y-102100000D02*
X152000000Y-101100000D01*
X152000000Y-101100000D02*
X151000000Y-101600000D01*
G04 #@! TO.C,J3*
X135370000Y-106810000D02*
X126250000Y-106810000D01*
X126250000Y-106810000D02*
X126250000Y-78610000D01*
X126250000Y-78610000D02*
X135370000Y-78610000D01*
X135370000Y-78610000D02*
X135370000Y-106810000D01*
X135370000Y-94760000D02*
X134060000Y-94760000D01*
X134060000Y-94760000D02*
X134060000Y-105510000D01*
X134060000Y-105510000D02*
X127560000Y-105510000D01*
X127560000Y-105510000D02*
X127560000Y-79910000D01*
X127560000Y-79910000D02*
X134060000Y-79910000D01*
X134060000Y-79910000D02*
X134060000Y-90660000D01*
X134060000Y-90660000D02*
X134060000Y-90660000D01*
X134060000Y-90660000D02*
X135370000Y-90660000D01*
X135760000Y-101600000D02*
X136760000Y-102100000D01*
X136760000Y-102100000D02*
X136760000Y-101100000D01*
X136760000Y-101100000D02*
X135760000Y-101600000D01*
G04 #@! TO.C,J2*
X120130000Y-106810000D02*
X111010000Y-106810000D01*
X111010000Y-106810000D02*
X111010000Y-78610000D01*
X111010000Y-78610000D02*
X120130000Y-78610000D01*
X120130000Y-78610000D02*
X120130000Y-106810000D01*
X120130000Y-94760000D02*
X118820000Y-94760000D01*
X118820000Y-94760000D02*
X118820000Y-105510000D01*
X118820000Y-105510000D02*
X112320000Y-105510000D01*
X112320000Y-105510000D02*
X112320000Y-79910000D01*
X112320000Y-79910000D02*
X118820000Y-79910000D01*
X118820000Y-79910000D02*
X118820000Y-90660000D01*
X118820000Y-90660000D02*
X118820000Y-90660000D01*
X118820000Y-90660000D02*
X120130000Y-90660000D01*
X120520000Y-101600000D02*
X121520000Y-102100000D01*
X121520000Y-102100000D02*
X121520000Y-101100000D01*
X121520000Y-101100000D02*
X120520000Y-101600000D01*
G04 #@! TO.C,J1*
X104890000Y-106810000D02*
X95770000Y-106810000D01*
X95770000Y-106810000D02*
X95770000Y-78610000D01*
X95770000Y-78610000D02*
X104890000Y-78610000D01*
X104890000Y-78610000D02*
X104890000Y-106810000D01*
X104890000Y-94760000D02*
X103580000Y-94760000D01*
X103580000Y-94760000D02*
X103580000Y-105510000D01*
X103580000Y-105510000D02*
X97080000Y-105510000D01*
X97080000Y-105510000D02*
X97080000Y-79910000D01*
X97080000Y-79910000D02*
X103580000Y-79910000D01*
X103580000Y-79910000D02*
X103580000Y-90660000D01*
X103580000Y-90660000D02*
X103580000Y-90660000D01*
X103580000Y-90660000D02*
X104890000Y-90660000D01*
X105280000Y-101600000D02*
X106280000Y-102100000D01*
X106280000Y-102100000D02*
X106280000Y-101100000D01*
X106280000Y-101100000D02*
X105280000Y-101600000D01*
G04 #@! TO.C,D3*
X137450000Y-112996000D02*
X137450000Y-112840000D01*
X137450000Y-110680000D02*
X137450000Y-110524000D01*
X134848870Y-110680163D02*
G75*
G02*
X136930961Y-110680000I1041130J-1079837D01*
G01*
X134848870Y-112839837D02*
G75*
G03*
X136930961Y-112840000I1041130J1079837D01*
G01*
X134217665Y-110681392D02*
G75*
G02*
X137450000Y-110524484I1672335J-1078608D01*
G01*
X134217665Y-112838608D02*
G75*
G03*
X137450000Y-112995516I1672335J1078608D01*
G01*
G04 #@! TO.C,D2*
X137450000Y-118076000D02*
X137450000Y-117920000D01*
X137450000Y-115760000D02*
X137450000Y-115604000D01*
X134848870Y-115760163D02*
G75*
G02*
X136930961Y-115760000I1041130J-1079837D01*
G01*
X134848870Y-117919837D02*
G75*
G03*
X136930961Y-117920000I1041130J1079837D01*
G01*
X134217665Y-115761392D02*
G75*
G02*
X137450000Y-115604484I1672335J-1078608D01*
G01*
X134217665Y-117918608D02*
G75*
G03*
X137450000Y-118075516I1672335J1078608D01*
G01*
G04 #@! TO.C,D1*
X155920000Y-115604000D02*
X155920000Y-115760000D01*
X155920000Y-117920000D02*
X155920000Y-118076000D01*
X158521130Y-117919837D02*
G75*
G02*
X156439039Y-117920000I-1041130J1079837D01*
G01*
X158521130Y-115760163D02*
G75*
G03*
X156439039Y-115760000I-1041130J-1079837D01*
G01*
X159152335Y-117918608D02*
G75*
G02*
X155920000Y-118075516I-1672335J1078608D01*
G01*
X159152335Y-115761392D02*
G75*
G03*
X155920000Y-115604484I-1672335J-1078608D01*
G01*
G04 #@! TO.C,R3*
D10*
X143343333Y-114582380D02*
X143010000Y-114106190D01*
X142771904Y-114582380D02*
X142771904Y-113582380D01*
X143152857Y-113582380D01*
X143248095Y-113630000D01*
X143295714Y-113677619D01*
X143343333Y-113772857D01*
X143343333Y-113915714D01*
X143295714Y-114010952D01*
X143248095Y-114058571D01*
X143152857Y-114106190D01*
X142771904Y-114106190D01*
X143676666Y-113582380D02*
X144295714Y-113582380D01*
X143962380Y-113963333D01*
X144105238Y-113963333D01*
X144200476Y-114010952D01*
X144248095Y-114058571D01*
X144295714Y-114153809D01*
X144295714Y-114391904D01*
X144248095Y-114487142D01*
X144200476Y-114534761D01*
X144105238Y-114582380D01*
X143819523Y-114582380D01*
X143724285Y-114534761D01*
X143676666Y-114487142D01*
G04 #@! TO.C,R2*
X143343333Y-119662380D02*
X143010000Y-119186190D01*
X142771904Y-119662380D02*
X142771904Y-118662380D01*
X143152857Y-118662380D01*
X143248095Y-118710000D01*
X143295714Y-118757619D01*
X143343333Y-118852857D01*
X143343333Y-118995714D01*
X143295714Y-119090952D01*
X143248095Y-119138571D01*
X143152857Y-119186190D01*
X142771904Y-119186190D01*
X143724285Y-118757619D02*
X143771904Y-118710000D01*
X143867142Y-118662380D01*
X144105238Y-118662380D01*
X144200476Y-118710000D01*
X144248095Y-118757619D01*
X144295714Y-118852857D01*
X144295714Y-118948095D01*
X144248095Y-119090952D01*
X143676666Y-119662380D01*
X144295714Y-119662380D01*
G04 #@! TO.C,R1*
X155222380Y-114466666D02*
X154746190Y-114800000D01*
X155222380Y-115038095D02*
X154222380Y-115038095D01*
X154222380Y-114657142D01*
X154270000Y-114561904D01*
X154317619Y-114514285D01*
X154412857Y-114466666D01*
X154555714Y-114466666D01*
X154650952Y-114514285D01*
X154698571Y-114561904D01*
X154746190Y-114657142D01*
X154746190Y-115038095D01*
X155222380Y-113514285D02*
X155222380Y-114085714D01*
X155222380Y-113800000D02*
X154222380Y-113800000D01*
X154365238Y-113895238D01*
X154460476Y-113990476D01*
X154508095Y-114085714D01*
G04 #@! TO.C,J15*
X128730476Y-120737380D02*
X128730476Y-121451666D01*
X128682857Y-121594523D01*
X128587619Y-121689761D01*
X128444761Y-121737380D01*
X128349523Y-121737380D01*
X129730476Y-121737380D02*
X129159047Y-121737380D01*
X129444761Y-121737380D02*
X129444761Y-120737380D01*
X129349523Y-120880238D01*
X129254285Y-120975476D01*
X129159047Y-121023095D01*
X130635238Y-120737380D02*
X130159047Y-120737380D01*
X130111428Y-121213571D01*
X130159047Y-121165952D01*
X130254285Y-121118333D01*
X130492380Y-121118333D01*
X130587619Y-121165952D01*
X130635238Y-121213571D01*
X130682857Y-121308809D01*
X130682857Y-121546904D01*
X130635238Y-121642142D01*
X130587619Y-121689761D01*
X130492380Y-121737380D01*
X130254285Y-121737380D01*
X130159047Y-121689761D01*
X130111428Y-121642142D01*
G04 #@! TO.C,J14*
X116030476Y-120737380D02*
X116030476Y-121451666D01*
X115982857Y-121594523D01*
X115887619Y-121689761D01*
X115744761Y-121737380D01*
X115649523Y-121737380D01*
X117030476Y-121737380D02*
X116459047Y-121737380D01*
X116744761Y-121737380D02*
X116744761Y-120737380D01*
X116649523Y-120880238D01*
X116554285Y-120975476D01*
X116459047Y-121023095D01*
X117887619Y-121070714D02*
X117887619Y-121737380D01*
X117649523Y-120689761D02*
X117411428Y-121404047D01*
X118030476Y-121404047D01*
G04 #@! TO.C,J13*
X103330476Y-120737380D02*
X103330476Y-121451666D01*
X103282857Y-121594523D01*
X103187619Y-121689761D01*
X103044761Y-121737380D01*
X102949523Y-121737380D01*
X104330476Y-121737380D02*
X103759047Y-121737380D01*
X104044761Y-121737380D02*
X104044761Y-120737380D01*
X103949523Y-120880238D01*
X103854285Y-120975476D01*
X103759047Y-121023095D01*
X104663809Y-120737380D02*
X105282857Y-120737380D01*
X104949523Y-121118333D01*
X105092380Y-121118333D01*
X105187619Y-121165952D01*
X105235238Y-121213571D01*
X105282857Y-121308809D01*
X105282857Y-121546904D01*
X105235238Y-121642142D01*
X105187619Y-121689761D01*
X105092380Y-121737380D01*
X104806666Y-121737380D01*
X104711428Y-121689761D01*
X104663809Y-121642142D01*
G04 #@! TO.C,J10*
X185245476Y-120737380D02*
X185245476Y-121451666D01*
X185197857Y-121594523D01*
X185102619Y-121689761D01*
X184959761Y-121737380D01*
X184864523Y-121737380D01*
X186245476Y-121737380D02*
X185674047Y-121737380D01*
X185959761Y-121737380D02*
X185959761Y-120737380D01*
X185864523Y-120880238D01*
X185769285Y-120975476D01*
X185674047Y-121023095D01*
X186864523Y-120737380D02*
X186959761Y-120737380D01*
X187055000Y-120785000D01*
X187102619Y-120832619D01*
X187150238Y-120927857D01*
X187197857Y-121118333D01*
X187197857Y-121356428D01*
X187150238Y-121546904D01*
X187102619Y-121642142D01*
X187055000Y-121689761D01*
X186959761Y-121737380D01*
X186864523Y-121737380D01*
X186769285Y-121689761D01*
X186721666Y-121642142D01*
X186674047Y-121546904D01*
X186626428Y-121356428D01*
X186626428Y-121118333D01*
X186674047Y-120927857D01*
X186721666Y-120832619D01*
X186769285Y-120785000D01*
X186864523Y-120737380D01*
G04 #@! TO.C,J9*
X175561666Y-120737380D02*
X175561666Y-121451666D01*
X175514047Y-121594523D01*
X175418809Y-121689761D01*
X175275952Y-121737380D01*
X175180714Y-121737380D01*
X176085476Y-121737380D02*
X176275952Y-121737380D01*
X176371190Y-121689761D01*
X176418809Y-121642142D01*
X176514047Y-121499285D01*
X176561666Y-121308809D01*
X176561666Y-120927857D01*
X176514047Y-120832619D01*
X176466428Y-120785000D01*
X176371190Y-120737380D01*
X176180714Y-120737380D01*
X176085476Y-120785000D01*
X176037857Y-120832619D01*
X175990238Y-120927857D01*
X175990238Y-121165952D01*
X176037857Y-121261190D01*
X176085476Y-121308809D01*
X176180714Y-121356428D01*
X176371190Y-121356428D01*
X176466428Y-121308809D01*
X176514047Y-121261190D01*
X176561666Y-121165952D01*
G04 #@! TO.C,J8*
X165401666Y-120737380D02*
X165401666Y-121451666D01*
X165354047Y-121594523D01*
X165258809Y-121689761D01*
X165115952Y-121737380D01*
X165020714Y-121737380D01*
X166020714Y-121165952D02*
X165925476Y-121118333D01*
X165877857Y-121070714D01*
X165830238Y-120975476D01*
X165830238Y-120927857D01*
X165877857Y-120832619D01*
X165925476Y-120785000D01*
X166020714Y-120737380D01*
X166211190Y-120737380D01*
X166306428Y-120785000D01*
X166354047Y-120832619D01*
X166401666Y-120927857D01*
X166401666Y-120975476D01*
X166354047Y-121070714D01*
X166306428Y-121118333D01*
X166211190Y-121165952D01*
X166020714Y-121165952D01*
X165925476Y-121213571D01*
X165877857Y-121261190D01*
X165830238Y-121356428D01*
X165830238Y-121546904D01*
X165877857Y-121642142D01*
X165925476Y-121689761D01*
X166020714Y-121737380D01*
X166211190Y-121737380D01*
X166306428Y-121689761D01*
X166354047Y-121642142D01*
X166401666Y-121546904D01*
X166401666Y-121356428D01*
X166354047Y-121261190D01*
X166306428Y-121213571D01*
X166211190Y-121165952D01*
G04 #@! TO.C,J7*
X187626666Y-76287380D02*
X187626666Y-77001666D01*
X187579047Y-77144523D01*
X187483809Y-77239761D01*
X187340952Y-77287380D01*
X187245714Y-77287380D01*
X188007619Y-76287380D02*
X188674285Y-76287380D01*
X188245714Y-77287380D01*
G04 #@! TO.C,J6*
X172386666Y-76287380D02*
X172386666Y-77001666D01*
X172339047Y-77144523D01*
X172243809Y-77239761D01*
X172100952Y-77287380D01*
X172005714Y-77287380D01*
X173291428Y-76287380D02*
X173100952Y-76287380D01*
X173005714Y-76335000D01*
X172958095Y-76382619D01*
X172862857Y-76525476D01*
X172815238Y-76715952D01*
X172815238Y-77096904D01*
X172862857Y-77192142D01*
X172910476Y-77239761D01*
X173005714Y-77287380D01*
X173196190Y-77287380D01*
X173291428Y-77239761D01*
X173339047Y-77192142D01*
X173386666Y-77096904D01*
X173386666Y-76858809D01*
X173339047Y-76763571D01*
X173291428Y-76715952D01*
X173196190Y-76668333D01*
X173005714Y-76668333D01*
X172910476Y-76715952D01*
X172862857Y-76763571D01*
X172815238Y-76858809D01*
G04 #@! TO.C,J5*
X157146666Y-76287380D02*
X157146666Y-77001666D01*
X157099047Y-77144523D01*
X157003809Y-77239761D01*
X156860952Y-77287380D01*
X156765714Y-77287380D01*
X158099047Y-76287380D02*
X157622857Y-76287380D01*
X157575238Y-76763571D01*
X157622857Y-76715952D01*
X157718095Y-76668333D01*
X157956190Y-76668333D01*
X158051428Y-76715952D01*
X158099047Y-76763571D01*
X158146666Y-76858809D01*
X158146666Y-77096904D01*
X158099047Y-77192142D01*
X158051428Y-77239761D01*
X157956190Y-77287380D01*
X157718095Y-77287380D01*
X157622857Y-77239761D01*
X157575238Y-77192142D01*
G04 #@! TO.C,J4*
X141906666Y-76287380D02*
X141906666Y-77001666D01*
X141859047Y-77144523D01*
X141763809Y-77239761D01*
X141620952Y-77287380D01*
X141525714Y-77287380D01*
X142811428Y-76620714D02*
X142811428Y-77287380D01*
X142573333Y-76239761D02*
X142335238Y-76954047D01*
X142954285Y-76954047D01*
G04 #@! TO.C,J3*
X126031666Y-76287380D02*
X126031666Y-77001666D01*
X125984047Y-77144523D01*
X125888809Y-77239761D01*
X125745952Y-77287380D01*
X125650714Y-77287380D01*
X126412619Y-76287380D02*
X127031666Y-76287380D01*
X126698333Y-76668333D01*
X126841190Y-76668333D01*
X126936428Y-76715952D01*
X126984047Y-76763571D01*
X127031666Y-76858809D01*
X127031666Y-77096904D01*
X126984047Y-77192142D01*
X126936428Y-77239761D01*
X126841190Y-77287380D01*
X126555476Y-77287380D01*
X126460238Y-77239761D01*
X126412619Y-77192142D01*
G04 #@! TO.C,J2*
X111426666Y-76287380D02*
X111426666Y-77001666D01*
X111379047Y-77144523D01*
X111283809Y-77239761D01*
X111140952Y-77287380D01*
X111045714Y-77287380D01*
X111855238Y-76382619D02*
X111902857Y-76335000D01*
X111998095Y-76287380D01*
X112236190Y-76287380D01*
X112331428Y-76335000D01*
X112379047Y-76382619D01*
X112426666Y-76477857D01*
X112426666Y-76573095D01*
X112379047Y-76715952D01*
X111807619Y-77287380D01*
X112426666Y-77287380D01*
G04 #@! TO.C,J1*
X98091666Y-76287380D02*
X98091666Y-77001666D01*
X98044047Y-77144523D01*
X97948809Y-77239761D01*
X97805952Y-77287380D01*
X97710714Y-77287380D01*
X99091666Y-77287380D02*
X98520238Y-77287380D01*
X98805952Y-77287380D02*
X98805952Y-76287380D01*
X98710714Y-76430238D01*
X98615476Y-76525476D01*
X98520238Y-76573095D01*
G04 #@! TO.C,D3*
X135151904Y-109037380D02*
X135151904Y-108037380D01*
X135390000Y-108037380D01*
X135532857Y-108085000D01*
X135628095Y-108180238D01*
X135675714Y-108275476D01*
X135723333Y-108465952D01*
X135723333Y-108608809D01*
X135675714Y-108799285D01*
X135628095Y-108894523D01*
X135532857Y-108989761D01*
X135390000Y-109037380D01*
X135151904Y-109037380D01*
X136056666Y-108037380D02*
X136675714Y-108037380D01*
X136342380Y-108418333D01*
X136485238Y-108418333D01*
X136580476Y-108465952D01*
X136628095Y-108513571D01*
X136675714Y-108608809D01*
X136675714Y-108846904D01*
X136628095Y-108942142D01*
X136580476Y-108989761D01*
X136485238Y-109037380D01*
X136199523Y-109037380D01*
X136104285Y-108989761D01*
X136056666Y-108942142D01*
G04 #@! TO.C,D2*
X135151904Y-120467380D02*
X135151904Y-119467380D01*
X135390000Y-119467380D01*
X135532857Y-119515000D01*
X135628095Y-119610238D01*
X135675714Y-119705476D01*
X135723333Y-119895952D01*
X135723333Y-120038809D01*
X135675714Y-120229285D01*
X135628095Y-120324523D01*
X135532857Y-120419761D01*
X135390000Y-120467380D01*
X135151904Y-120467380D01*
X136104285Y-119562619D02*
X136151904Y-119515000D01*
X136247142Y-119467380D01*
X136485238Y-119467380D01*
X136580476Y-119515000D01*
X136628095Y-119562619D01*
X136675714Y-119657857D01*
X136675714Y-119753095D01*
X136628095Y-119895952D01*
X136056666Y-120467380D01*
X136675714Y-120467380D01*
G04 #@! TO.C,D1*
X156741904Y-114332380D02*
X156741904Y-113332380D01*
X156980000Y-113332380D01*
X157122857Y-113380000D01*
X157218095Y-113475238D01*
X157265714Y-113570476D01*
X157313333Y-113760952D01*
X157313333Y-113903809D01*
X157265714Y-114094285D01*
X157218095Y-114189523D01*
X157122857Y-114284761D01*
X156980000Y-114332380D01*
X156741904Y-114332380D01*
X158265714Y-114332380D02*
X157694285Y-114332380D01*
X157980000Y-114332380D02*
X157980000Y-113332380D01*
X157884761Y-113475238D01*
X157789523Y-113570476D01*
X157694285Y-113618095D01*
G04 #@! TD*
M02*
