G04 #@! TF.GenerationSoftware,KiCad,Pcbnew,(5.1.6)-1*
G04 #@! TF.CreationDate,2020-12-31T13:30:19+09:00*
G04 #@! TF.ProjectId,ERK01_PSU_EXT,45524b30-315f-4505-9355-5f4558542e6b,Ver.1.1*
G04 #@! TF.SameCoordinates,Original*
G04 #@! TF.FileFunction,Copper,L1,Top*
G04 #@! TF.FilePolarity,Positive*
%FSLAX46Y46*%
G04 Gerber Fmt 4.6, Leading zero omitted, Abs format (unit mm)*
G04 Created by KiCad (PCBNEW (5.1.6)-1) date 2020-12-31 13:30:19*
%MOMM*%
%LPD*%
G01*
G04 APERTURE LIST*
G04 #@! TA.AperFunction,ComponentPad*
%ADD10O,1.600000X1.600000*%
G04 #@! TD*
G04 #@! TA.AperFunction,ComponentPad*
%ADD11C,1.600000*%
G04 #@! TD*
G04 #@! TA.AperFunction,ComponentPad*
%ADD12O,1.950000X1.700000*%
G04 #@! TD*
G04 #@! TA.AperFunction,ComponentPad*
%ADD13O,2.000000X1.700000*%
G04 #@! TD*
G04 #@! TA.AperFunction,ComponentPad*
%ADD14C,1.700000*%
G04 #@! TD*
G04 #@! TA.AperFunction,ComponentPad*
%ADD15C,1.800000*%
G04 #@! TD*
G04 #@! TA.AperFunction,ComponentPad*
%ADD16R,1.800000X1.800000*%
G04 #@! TD*
G04 #@! TA.AperFunction,ViaPad*
%ADD17C,0.800000*%
G04 #@! TD*
G04 #@! TA.AperFunction,Conductor*
%ADD18C,0.254000*%
G04 #@! TD*
G04 APERTURE END LIST*
D10*
G04 #@! TO.P,R3,2*
G04 #@! TO.N,Net-(D3-Pad1)*
X139700000Y-111760000D03*
D11*
G04 #@! TO.P,R3,1*
G04 #@! TO.N,GND*
X147320000Y-111760000D03*
G04 #@! TD*
D10*
G04 #@! TO.P,R2,2*
G04 #@! TO.N,Net-(D2-Pad1)*
X139700000Y-116840000D03*
D11*
G04 #@! TO.P,R2,1*
G04 #@! TO.N,GND*
X147320000Y-116840000D03*
G04 #@! TD*
D10*
G04 #@! TO.P,R1,2*
G04 #@! TO.N,Net-(D1-Pad1)*
X152400000Y-118110000D03*
D11*
G04 #@! TO.P,R1,1*
G04 #@! TO.N,GND*
X152400000Y-110490000D03*
G04 #@! TD*
D12*
G04 #@! TO.P,J15,3*
G04 #@! TO.N,/-12V*
X127000000Y-111840000D03*
G04 #@! TO.P,J15,2*
G04 #@! TO.N,GND*
X127000000Y-114340000D03*
G04 #@! TO.P,J15,1*
G04 #@! TO.N,/+12V*
G04 #@! TA.AperFunction,ComponentPad*
G36*
G01*
X127725000Y-117690000D02*
X126275000Y-117690000D01*
G75*
G02*
X126025000Y-117440000I0J250000D01*
G01*
X126025000Y-116240000D01*
G75*
G02*
X126275000Y-115990000I250000J0D01*
G01*
X127725000Y-115990000D01*
G75*
G02*
X127975000Y-116240000I0J-250000D01*
G01*
X127975000Y-117440000D01*
G75*
G02*
X127725000Y-117690000I-250000J0D01*
G01*
G37*
G04 #@! TD.AperFunction*
G04 #@! TD*
G04 #@! TO.P,J14,3*
G04 #@! TO.N,/-12V*
X114300000Y-111840000D03*
G04 #@! TO.P,J14,2*
G04 #@! TO.N,GND*
X114300000Y-114340000D03*
G04 #@! TO.P,J14,1*
G04 #@! TO.N,/+12V*
G04 #@! TA.AperFunction,ComponentPad*
G36*
G01*
X115025000Y-117690000D02*
X113575000Y-117690000D01*
G75*
G02*
X113325000Y-117440000I0J250000D01*
G01*
X113325000Y-116240000D01*
G75*
G02*
X113575000Y-115990000I250000J0D01*
G01*
X115025000Y-115990000D01*
G75*
G02*
X115275000Y-116240000I0J-250000D01*
G01*
X115275000Y-117440000D01*
G75*
G02*
X115025000Y-117690000I-250000J0D01*
G01*
G37*
G04 #@! TD.AperFunction*
G04 #@! TD*
G04 #@! TO.P,J13,3*
G04 #@! TO.N,/-12V*
X101600000Y-111840000D03*
G04 #@! TO.P,J13,2*
G04 #@! TO.N,GND*
X101600000Y-114340000D03*
G04 #@! TO.P,J13,1*
G04 #@! TO.N,/+12V*
G04 #@! TA.AperFunction,ComponentPad*
G36*
G01*
X102325000Y-117690000D02*
X100875000Y-117690000D01*
G75*
G02*
X100625000Y-117440000I0J250000D01*
G01*
X100625000Y-116240000D01*
G75*
G02*
X100875000Y-115990000I250000J0D01*
G01*
X102325000Y-115990000D01*
G75*
G02*
X102575000Y-116240000I0J-250000D01*
G01*
X102575000Y-117440000D01*
G75*
G02*
X102325000Y-117690000I-250000J0D01*
G01*
G37*
G04 #@! TD.AperFunction*
G04 #@! TD*
D13*
G04 #@! TO.P,J10,2*
G04 #@! TO.N,GND*
X187960000Y-114340000D03*
G04 #@! TO.P,J10,1*
G04 #@! TO.N,/+5V*
G04 #@! TA.AperFunction,ComponentPad*
G36*
G01*
X188710000Y-117690000D02*
X187210000Y-117690000D01*
G75*
G02*
X186960000Y-117440000I0J250000D01*
G01*
X186960000Y-116240000D01*
G75*
G02*
X187210000Y-115990000I250000J0D01*
G01*
X188710000Y-115990000D01*
G75*
G02*
X188960000Y-116240000I0J-250000D01*
G01*
X188960000Y-117440000D01*
G75*
G02*
X188710000Y-117690000I-250000J0D01*
G01*
G37*
G04 #@! TD.AperFunction*
G04 #@! TD*
G04 #@! TO.P,J9,2*
G04 #@! TO.N,GND*
X177800000Y-114340000D03*
G04 #@! TO.P,J9,1*
G04 #@! TO.N,/+5V*
G04 #@! TA.AperFunction,ComponentPad*
G36*
G01*
X178550000Y-117690000D02*
X177050000Y-117690000D01*
G75*
G02*
X176800000Y-117440000I0J250000D01*
G01*
X176800000Y-116240000D01*
G75*
G02*
X177050000Y-115990000I250000J0D01*
G01*
X178550000Y-115990000D01*
G75*
G02*
X178800000Y-116240000I0J-250000D01*
G01*
X178800000Y-117440000D01*
G75*
G02*
X178550000Y-117690000I-250000J0D01*
G01*
G37*
G04 #@! TD.AperFunction*
G04 #@! TD*
G04 #@! TO.P,J8,2*
G04 #@! TO.N,GND*
X167640000Y-114340000D03*
G04 #@! TO.P,J8,1*
G04 #@! TO.N,/+5V*
G04 #@! TA.AperFunction,ComponentPad*
G36*
G01*
X168390000Y-117690000D02*
X166890000Y-117690000D01*
G75*
G02*
X166640000Y-117440000I0J250000D01*
G01*
X166640000Y-116240000D01*
G75*
G02*
X166890000Y-115990000I250000J0D01*
G01*
X168390000Y-115990000D01*
G75*
G02*
X168640000Y-116240000I0J-250000D01*
G01*
X168640000Y-117440000D01*
G75*
G02*
X168390000Y-117690000I-250000J0D01*
G01*
G37*
G04 #@! TD.AperFunction*
G04 #@! TD*
D14*
G04 #@! TO.P,J7,16*
G04 #@! TO.N,/Gate*
X190500000Y-83820000D03*
G04 #@! TO.P,J7,14*
G04 #@! TO.N,/CV*
X190500000Y-86360000D03*
G04 #@! TO.P,J7,12*
G04 #@! TO.N,/+5V*
X190500000Y-88900000D03*
G04 #@! TO.P,J7,10*
G04 #@! TO.N,/+12V*
X190500000Y-91440000D03*
G04 #@! TO.P,J7,8*
G04 #@! TO.N,GND*
X190500000Y-93980000D03*
G04 #@! TO.P,J7,6*
X190500000Y-96520000D03*
G04 #@! TO.P,J7,4*
X190500000Y-99060000D03*
G04 #@! TO.P,J7,2*
G04 #@! TO.N,/-12V*
X190500000Y-101600000D03*
G04 #@! TO.P,J7,15*
G04 #@! TO.N,/Gate*
X193040000Y-83820000D03*
G04 #@! TO.P,J7,13*
G04 #@! TO.N,/CV*
X193040000Y-86360000D03*
G04 #@! TO.P,J7,11*
G04 #@! TO.N,/+5V*
X193040000Y-88900000D03*
G04 #@! TO.P,J7,9*
G04 #@! TO.N,/+12V*
X193040000Y-91440000D03*
G04 #@! TO.P,J7,7*
G04 #@! TO.N,GND*
X193040000Y-93980000D03*
G04 #@! TO.P,J7,5*
X193040000Y-96520000D03*
G04 #@! TO.P,J7,3*
X193040000Y-99060000D03*
G04 #@! TO.P,J7,1*
G04 #@! TO.N,/-12V*
G04 #@! TA.AperFunction,ComponentPad*
G36*
G01*
X193890000Y-101000000D02*
X193890000Y-102200000D01*
G75*
G02*
X193640000Y-102450000I-250000J0D01*
G01*
X192440000Y-102450000D01*
G75*
G02*
X192190000Y-102200000I0J250000D01*
G01*
X192190000Y-101000000D01*
G75*
G02*
X192440000Y-100750000I250000J0D01*
G01*
X193640000Y-100750000D01*
G75*
G02*
X193890000Y-101000000I0J-250000D01*
G01*
G37*
G04 #@! TD.AperFunction*
G04 #@! TD*
G04 #@! TO.P,J6,16*
G04 #@! TO.N,/Gate*
X175260000Y-83820000D03*
G04 #@! TO.P,J6,14*
G04 #@! TO.N,/CV*
X175260000Y-86360000D03*
G04 #@! TO.P,J6,12*
G04 #@! TO.N,/+5V*
X175260000Y-88900000D03*
G04 #@! TO.P,J6,10*
G04 #@! TO.N,/+12V*
X175260000Y-91440000D03*
G04 #@! TO.P,J6,8*
G04 #@! TO.N,GND*
X175260000Y-93980000D03*
G04 #@! TO.P,J6,6*
X175260000Y-96520000D03*
G04 #@! TO.P,J6,4*
X175260000Y-99060000D03*
G04 #@! TO.P,J6,2*
G04 #@! TO.N,/-12V*
X175260000Y-101600000D03*
G04 #@! TO.P,J6,15*
G04 #@! TO.N,/Gate*
X177800000Y-83820000D03*
G04 #@! TO.P,J6,13*
G04 #@! TO.N,/CV*
X177800000Y-86360000D03*
G04 #@! TO.P,J6,11*
G04 #@! TO.N,/+5V*
X177800000Y-88900000D03*
G04 #@! TO.P,J6,9*
G04 #@! TO.N,/+12V*
X177800000Y-91440000D03*
G04 #@! TO.P,J6,7*
G04 #@! TO.N,GND*
X177800000Y-93980000D03*
G04 #@! TO.P,J6,5*
X177800000Y-96520000D03*
G04 #@! TO.P,J6,3*
X177800000Y-99060000D03*
G04 #@! TO.P,J6,1*
G04 #@! TO.N,/-12V*
G04 #@! TA.AperFunction,ComponentPad*
G36*
G01*
X178650000Y-101000000D02*
X178650000Y-102200000D01*
G75*
G02*
X178400000Y-102450000I-250000J0D01*
G01*
X177200000Y-102450000D01*
G75*
G02*
X176950000Y-102200000I0J250000D01*
G01*
X176950000Y-101000000D01*
G75*
G02*
X177200000Y-100750000I250000J0D01*
G01*
X178400000Y-100750000D01*
G75*
G02*
X178650000Y-101000000I0J-250000D01*
G01*
G37*
G04 #@! TD.AperFunction*
G04 #@! TD*
G04 #@! TO.P,J5,16*
G04 #@! TO.N,/Gate*
X160020000Y-83820000D03*
G04 #@! TO.P,J5,14*
G04 #@! TO.N,/CV*
X160020000Y-86360000D03*
G04 #@! TO.P,J5,12*
G04 #@! TO.N,/+5V*
X160020000Y-88900000D03*
G04 #@! TO.P,J5,10*
G04 #@! TO.N,/+12V*
X160020000Y-91440000D03*
G04 #@! TO.P,J5,8*
G04 #@! TO.N,GND*
X160020000Y-93980000D03*
G04 #@! TO.P,J5,6*
X160020000Y-96520000D03*
G04 #@! TO.P,J5,4*
X160020000Y-99060000D03*
G04 #@! TO.P,J5,2*
G04 #@! TO.N,/-12V*
X160020000Y-101600000D03*
G04 #@! TO.P,J5,15*
G04 #@! TO.N,/Gate*
X162560000Y-83820000D03*
G04 #@! TO.P,J5,13*
G04 #@! TO.N,/CV*
X162560000Y-86360000D03*
G04 #@! TO.P,J5,11*
G04 #@! TO.N,/+5V*
X162560000Y-88900000D03*
G04 #@! TO.P,J5,9*
G04 #@! TO.N,/+12V*
X162560000Y-91440000D03*
G04 #@! TO.P,J5,7*
G04 #@! TO.N,GND*
X162560000Y-93980000D03*
G04 #@! TO.P,J5,5*
X162560000Y-96520000D03*
G04 #@! TO.P,J5,3*
X162560000Y-99060000D03*
G04 #@! TO.P,J5,1*
G04 #@! TO.N,/-12V*
G04 #@! TA.AperFunction,ComponentPad*
G36*
G01*
X163410000Y-101000000D02*
X163410000Y-102200000D01*
G75*
G02*
X163160000Y-102450000I-250000J0D01*
G01*
X161960000Y-102450000D01*
G75*
G02*
X161710000Y-102200000I0J250000D01*
G01*
X161710000Y-101000000D01*
G75*
G02*
X161960000Y-100750000I250000J0D01*
G01*
X163160000Y-100750000D01*
G75*
G02*
X163410000Y-101000000I0J-250000D01*
G01*
G37*
G04 #@! TD.AperFunction*
G04 #@! TD*
G04 #@! TO.P,J4,16*
G04 #@! TO.N,/Gate*
X144780000Y-83820000D03*
G04 #@! TO.P,J4,14*
G04 #@! TO.N,/CV*
X144780000Y-86360000D03*
G04 #@! TO.P,J4,12*
G04 #@! TO.N,/+5V*
X144780000Y-88900000D03*
G04 #@! TO.P,J4,10*
G04 #@! TO.N,/+12V*
X144780000Y-91440000D03*
G04 #@! TO.P,J4,8*
G04 #@! TO.N,GND*
X144780000Y-93980000D03*
G04 #@! TO.P,J4,6*
X144780000Y-96520000D03*
G04 #@! TO.P,J4,4*
X144780000Y-99060000D03*
G04 #@! TO.P,J4,2*
G04 #@! TO.N,/-12V*
X144780000Y-101600000D03*
G04 #@! TO.P,J4,15*
G04 #@! TO.N,/Gate*
X147320000Y-83820000D03*
G04 #@! TO.P,J4,13*
G04 #@! TO.N,/CV*
X147320000Y-86360000D03*
G04 #@! TO.P,J4,11*
G04 #@! TO.N,/+5V*
X147320000Y-88900000D03*
G04 #@! TO.P,J4,9*
G04 #@! TO.N,/+12V*
X147320000Y-91440000D03*
G04 #@! TO.P,J4,7*
G04 #@! TO.N,GND*
X147320000Y-93980000D03*
G04 #@! TO.P,J4,5*
X147320000Y-96520000D03*
G04 #@! TO.P,J4,3*
X147320000Y-99060000D03*
G04 #@! TO.P,J4,1*
G04 #@! TO.N,/-12V*
G04 #@! TA.AperFunction,ComponentPad*
G36*
G01*
X148170000Y-101000000D02*
X148170000Y-102200000D01*
G75*
G02*
X147920000Y-102450000I-250000J0D01*
G01*
X146720000Y-102450000D01*
G75*
G02*
X146470000Y-102200000I0J250000D01*
G01*
X146470000Y-101000000D01*
G75*
G02*
X146720000Y-100750000I250000J0D01*
G01*
X147920000Y-100750000D01*
G75*
G02*
X148170000Y-101000000I0J-250000D01*
G01*
G37*
G04 #@! TD.AperFunction*
G04 #@! TD*
G04 #@! TO.P,J3,16*
G04 #@! TO.N,/Gate*
X129540000Y-83820000D03*
G04 #@! TO.P,J3,14*
G04 #@! TO.N,/CV*
X129540000Y-86360000D03*
G04 #@! TO.P,J3,12*
G04 #@! TO.N,/+5V*
X129540000Y-88900000D03*
G04 #@! TO.P,J3,10*
G04 #@! TO.N,/+12V*
X129540000Y-91440000D03*
G04 #@! TO.P,J3,8*
G04 #@! TO.N,GND*
X129540000Y-93980000D03*
G04 #@! TO.P,J3,6*
X129540000Y-96520000D03*
G04 #@! TO.P,J3,4*
X129540000Y-99060000D03*
G04 #@! TO.P,J3,2*
G04 #@! TO.N,/-12V*
X129540000Y-101600000D03*
G04 #@! TO.P,J3,15*
G04 #@! TO.N,/Gate*
X132080000Y-83820000D03*
G04 #@! TO.P,J3,13*
G04 #@! TO.N,/CV*
X132080000Y-86360000D03*
G04 #@! TO.P,J3,11*
G04 #@! TO.N,/+5V*
X132080000Y-88900000D03*
G04 #@! TO.P,J3,9*
G04 #@! TO.N,/+12V*
X132080000Y-91440000D03*
G04 #@! TO.P,J3,7*
G04 #@! TO.N,GND*
X132080000Y-93980000D03*
G04 #@! TO.P,J3,5*
X132080000Y-96520000D03*
G04 #@! TO.P,J3,3*
X132080000Y-99060000D03*
G04 #@! TO.P,J3,1*
G04 #@! TO.N,/-12V*
G04 #@! TA.AperFunction,ComponentPad*
G36*
G01*
X132930000Y-101000000D02*
X132930000Y-102200000D01*
G75*
G02*
X132680000Y-102450000I-250000J0D01*
G01*
X131480000Y-102450000D01*
G75*
G02*
X131230000Y-102200000I0J250000D01*
G01*
X131230000Y-101000000D01*
G75*
G02*
X131480000Y-100750000I250000J0D01*
G01*
X132680000Y-100750000D01*
G75*
G02*
X132930000Y-101000000I0J-250000D01*
G01*
G37*
G04 #@! TD.AperFunction*
G04 #@! TD*
G04 #@! TO.P,J2,16*
G04 #@! TO.N,/Gate*
X114300000Y-83820000D03*
G04 #@! TO.P,J2,14*
G04 #@! TO.N,/CV*
X114300000Y-86360000D03*
G04 #@! TO.P,J2,12*
G04 #@! TO.N,/+5V*
X114300000Y-88900000D03*
G04 #@! TO.P,J2,10*
G04 #@! TO.N,/+12V*
X114300000Y-91440000D03*
G04 #@! TO.P,J2,8*
G04 #@! TO.N,GND*
X114300000Y-93980000D03*
G04 #@! TO.P,J2,6*
X114300000Y-96520000D03*
G04 #@! TO.P,J2,4*
X114300000Y-99060000D03*
G04 #@! TO.P,J2,2*
G04 #@! TO.N,/-12V*
X114300000Y-101600000D03*
G04 #@! TO.P,J2,15*
G04 #@! TO.N,/Gate*
X116840000Y-83820000D03*
G04 #@! TO.P,J2,13*
G04 #@! TO.N,/CV*
X116840000Y-86360000D03*
G04 #@! TO.P,J2,11*
G04 #@! TO.N,/+5V*
X116840000Y-88900000D03*
G04 #@! TO.P,J2,9*
G04 #@! TO.N,/+12V*
X116840000Y-91440000D03*
G04 #@! TO.P,J2,7*
G04 #@! TO.N,GND*
X116840000Y-93980000D03*
G04 #@! TO.P,J2,5*
X116840000Y-96520000D03*
G04 #@! TO.P,J2,3*
X116840000Y-99060000D03*
G04 #@! TO.P,J2,1*
G04 #@! TO.N,/-12V*
G04 #@! TA.AperFunction,ComponentPad*
G36*
G01*
X117690000Y-101000000D02*
X117690000Y-102200000D01*
G75*
G02*
X117440000Y-102450000I-250000J0D01*
G01*
X116240000Y-102450000D01*
G75*
G02*
X115990000Y-102200000I0J250000D01*
G01*
X115990000Y-101000000D01*
G75*
G02*
X116240000Y-100750000I250000J0D01*
G01*
X117440000Y-100750000D01*
G75*
G02*
X117690000Y-101000000I0J-250000D01*
G01*
G37*
G04 #@! TD.AperFunction*
G04 #@! TD*
G04 #@! TO.P,J1,16*
G04 #@! TO.N,/Gate*
X99060000Y-83820000D03*
G04 #@! TO.P,J1,14*
G04 #@! TO.N,/CV*
X99060000Y-86360000D03*
G04 #@! TO.P,J1,12*
G04 #@! TO.N,/+5V*
X99060000Y-88900000D03*
G04 #@! TO.P,J1,10*
G04 #@! TO.N,/+12V*
X99060000Y-91440000D03*
G04 #@! TO.P,J1,8*
G04 #@! TO.N,GND*
X99060000Y-93980000D03*
G04 #@! TO.P,J1,6*
X99060000Y-96520000D03*
G04 #@! TO.P,J1,4*
X99060000Y-99060000D03*
G04 #@! TO.P,J1,2*
G04 #@! TO.N,/-12V*
X99060000Y-101600000D03*
G04 #@! TO.P,J1,15*
G04 #@! TO.N,/Gate*
X101600000Y-83820000D03*
G04 #@! TO.P,J1,13*
G04 #@! TO.N,/CV*
X101600000Y-86360000D03*
G04 #@! TO.P,J1,11*
G04 #@! TO.N,/+5V*
X101600000Y-88900000D03*
G04 #@! TO.P,J1,9*
G04 #@! TO.N,/+12V*
X101600000Y-91440000D03*
G04 #@! TO.P,J1,7*
G04 #@! TO.N,GND*
X101600000Y-93980000D03*
G04 #@! TO.P,J1,5*
X101600000Y-96520000D03*
G04 #@! TO.P,J1,3*
X101600000Y-99060000D03*
G04 #@! TO.P,J1,1*
G04 #@! TO.N,/-12V*
G04 #@! TA.AperFunction,ComponentPad*
G36*
G01*
X102450000Y-101000000D02*
X102450000Y-102200000D01*
G75*
G02*
X102200000Y-102450000I-250000J0D01*
G01*
X101000000Y-102450000D01*
G75*
G02*
X100750000Y-102200000I0J250000D01*
G01*
X100750000Y-101000000D01*
G75*
G02*
X101000000Y-100750000I250000J0D01*
G01*
X102200000Y-100750000D01*
G75*
G02*
X102450000Y-101000000I0J-250000D01*
G01*
G37*
G04 #@! TD.AperFunction*
G04 #@! TD*
D15*
G04 #@! TO.P,D3,2*
G04 #@! TO.N,/-12V*
X134620000Y-111760000D03*
D16*
G04 #@! TO.P,D3,1*
G04 #@! TO.N,Net-(D3-Pad1)*
X137160000Y-111760000D03*
G04 #@! TD*
D15*
G04 #@! TO.P,D2,2*
G04 #@! TO.N,/+12V*
X134620000Y-116840000D03*
D16*
G04 #@! TO.P,D2,1*
G04 #@! TO.N,Net-(D2-Pad1)*
X137160000Y-116840000D03*
G04 #@! TD*
D15*
G04 #@! TO.P,D1,2*
G04 #@! TO.N,/+5V*
X158750000Y-116840000D03*
D16*
G04 #@! TO.P,D1,1*
G04 #@! TO.N,Net-(D1-Pad1)*
X156210000Y-116840000D03*
G04 #@! TD*
D17*
G04 #@! TO.N,GND*
X106680000Y-76200000D03*
X106680000Y-81280000D03*
X111760000Y-76200000D03*
X116840000Y-76200000D03*
X121920000Y-76200000D03*
X127000000Y-76200000D03*
X132080000Y-76200000D03*
X137160000Y-76200000D03*
X142240000Y-76200000D03*
X147320000Y-76200000D03*
X152400000Y-76200000D03*
X157480000Y-76200000D03*
X162560000Y-76200000D03*
X167640000Y-76200000D03*
X172720000Y-76200000D03*
X177800000Y-76200000D03*
X182880000Y-76200000D03*
X187960000Y-76200000D03*
X182880000Y-81280000D03*
X182880000Y-96520000D03*
X182880000Y-106680000D03*
X182880000Y-111760000D03*
X182880000Y-121920000D03*
X193040000Y-116840000D03*
X172720000Y-121920000D03*
X177800000Y-121920000D03*
X172720000Y-111760000D03*
X162560000Y-121920000D03*
X162560000Y-111760000D03*
X157480000Y-111760000D03*
X157480000Y-121920000D03*
X152400000Y-121920000D03*
X152400000Y-106680000D03*
X142240000Y-111760000D03*
X142240000Y-116840000D03*
X142240000Y-121920000D03*
X147320000Y-121920000D03*
X137160000Y-106680000D03*
X137160000Y-121920000D03*
X132080000Y-121920000D03*
X127000000Y-121920000D03*
X121920000Y-121920000D03*
X116840000Y-121920000D03*
X111760000Y-121920000D03*
X106680000Y-121920000D03*
X106680000Y-106680000D03*
X121920000Y-106680000D03*
X167640000Y-106680000D03*
X167640000Y-96520000D03*
X152400000Y-96520000D03*
X121920000Y-96520000D03*
X121920000Y-96520000D03*
X106680000Y-96520000D03*
X121920000Y-81280000D03*
X137160000Y-81280000D03*
X152400000Y-81280000D03*
X167640000Y-81280000D03*
G04 #@! TD*
D18*
G04 #@! TO.N,GND*
G36*
X194920000Y-126340000D02*
G01*
X97180000Y-126340000D01*
X97180000Y-123779872D01*
X97285000Y-123779872D01*
X97285000Y-124220128D01*
X97370890Y-124651925D01*
X97539369Y-125058669D01*
X97783962Y-125424729D01*
X98095271Y-125736038D01*
X98461331Y-125980631D01*
X98868075Y-126149110D01*
X99299872Y-126235000D01*
X99740128Y-126235000D01*
X100171925Y-126149110D01*
X100578669Y-125980631D01*
X100944729Y-125736038D01*
X101256038Y-125424729D01*
X101500631Y-125058669D01*
X101669110Y-124651925D01*
X101755000Y-124220128D01*
X101755000Y-123779872D01*
X190345000Y-123779872D01*
X190345000Y-124220128D01*
X190430890Y-124651925D01*
X190599369Y-125058669D01*
X190843962Y-125424729D01*
X191155271Y-125736038D01*
X191521331Y-125980631D01*
X191928075Y-126149110D01*
X192359872Y-126235000D01*
X192800128Y-126235000D01*
X193231925Y-126149110D01*
X193638669Y-125980631D01*
X194004729Y-125736038D01*
X194316038Y-125424729D01*
X194560631Y-125058669D01*
X194729110Y-124651925D01*
X194815000Y-124220128D01*
X194815000Y-123779872D01*
X194729110Y-123348075D01*
X194560631Y-122941331D01*
X194316038Y-122575271D01*
X194004729Y-122263962D01*
X193638669Y-122019369D01*
X193231925Y-121850890D01*
X192800128Y-121765000D01*
X192359872Y-121765000D01*
X191928075Y-121850890D01*
X191521331Y-122019369D01*
X191155271Y-122263962D01*
X190843962Y-122575271D01*
X190599369Y-122941331D01*
X190430890Y-123348075D01*
X190345000Y-123779872D01*
X101755000Y-123779872D01*
X101669110Y-123348075D01*
X101500631Y-122941331D01*
X101256038Y-122575271D01*
X100944729Y-122263962D01*
X100578669Y-122019369D01*
X100171925Y-121850890D01*
X99740128Y-121765000D01*
X99299872Y-121765000D01*
X98868075Y-121850890D01*
X98461331Y-122019369D01*
X98095271Y-122263962D01*
X97783962Y-122575271D01*
X97539369Y-122941331D01*
X97370890Y-123348075D01*
X97285000Y-123779872D01*
X97180000Y-123779872D01*
X97180000Y-116240000D01*
X99986928Y-116240000D01*
X99986928Y-117440000D01*
X100003992Y-117613254D01*
X100054528Y-117779850D01*
X100136595Y-117933386D01*
X100247038Y-118067962D01*
X100381614Y-118178405D01*
X100535150Y-118260472D01*
X100701746Y-118311008D01*
X100875000Y-118328072D01*
X102325000Y-118328072D01*
X102498254Y-118311008D01*
X102664850Y-118260472D01*
X102818386Y-118178405D01*
X102952962Y-118067962D01*
X103063405Y-117933386D01*
X103145472Y-117779850D01*
X103196008Y-117613254D01*
X103213072Y-117440000D01*
X103213072Y-116240000D01*
X112686928Y-116240000D01*
X112686928Y-117440000D01*
X112703992Y-117613254D01*
X112754528Y-117779850D01*
X112836595Y-117933386D01*
X112947038Y-118067962D01*
X113081614Y-118178405D01*
X113235150Y-118260472D01*
X113401746Y-118311008D01*
X113575000Y-118328072D01*
X115025000Y-118328072D01*
X115198254Y-118311008D01*
X115364850Y-118260472D01*
X115518386Y-118178405D01*
X115652962Y-118067962D01*
X115763405Y-117933386D01*
X115845472Y-117779850D01*
X115896008Y-117613254D01*
X115913072Y-117440000D01*
X115913072Y-116240000D01*
X125386928Y-116240000D01*
X125386928Y-117440000D01*
X125403992Y-117613254D01*
X125454528Y-117779850D01*
X125536595Y-117933386D01*
X125647038Y-118067962D01*
X125781614Y-118178405D01*
X125935150Y-118260472D01*
X126101746Y-118311008D01*
X126275000Y-118328072D01*
X127725000Y-118328072D01*
X127898254Y-118311008D01*
X128064850Y-118260472D01*
X128218386Y-118178405D01*
X128352962Y-118067962D01*
X128463405Y-117933386D01*
X128545472Y-117779850D01*
X128596008Y-117613254D01*
X128613072Y-117440000D01*
X128613072Y-116688816D01*
X133085000Y-116688816D01*
X133085000Y-116991184D01*
X133143989Y-117287743D01*
X133259701Y-117567095D01*
X133427688Y-117818505D01*
X133641495Y-118032312D01*
X133892905Y-118200299D01*
X134172257Y-118316011D01*
X134468816Y-118375000D01*
X134771184Y-118375000D01*
X135067743Y-118316011D01*
X135347095Y-118200299D01*
X135598505Y-118032312D01*
X135664944Y-117965873D01*
X135670498Y-117984180D01*
X135729463Y-118094494D01*
X135808815Y-118191185D01*
X135905506Y-118270537D01*
X136015820Y-118329502D01*
X136135518Y-118365812D01*
X136260000Y-118378072D01*
X138060000Y-118378072D01*
X138184482Y-118365812D01*
X138304180Y-118329502D01*
X138414494Y-118270537D01*
X138511185Y-118191185D01*
X138590537Y-118094494D01*
X138649502Y-117984180D01*
X138685812Y-117864482D01*
X138686643Y-117856039D01*
X138785241Y-117954637D01*
X139020273Y-118111680D01*
X139281426Y-118219853D01*
X139558665Y-118275000D01*
X139841335Y-118275000D01*
X140118574Y-118219853D01*
X140379727Y-118111680D01*
X140614759Y-117954637D01*
X140736694Y-117832702D01*
X146506903Y-117832702D01*
X146578486Y-118076671D01*
X146833996Y-118197571D01*
X147108184Y-118266300D01*
X147390512Y-118280217D01*
X147670130Y-118238787D01*
X147936292Y-118143603D01*
X148061514Y-118076671D01*
X148093204Y-117968665D01*
X150965000Y-117968665D01*
X150965000Y-118251335D01*
X151020147Y-118528574D01*
X151128320Y-118789727D01*
X151285363Y-119024759D01*
X151485241Y-119224637D01*
X151720273Y-119381680D01*
X151981426Y-119489853D01*
X152258665Y-119545000D01*
X152541335Y-119545000D01*
X152818574Y-119489853D01*
X153079727Y-119381680D01*
X153314759Y-119224637D01*
X153514637Y-119024759D01*
X153671680Y-118789727D01*
X153779853Y-118528574D01*
X153835000Y-118251335D01*
X153835000Y-117968665D01*
X153779853Y-117691426D01*
X153671680Y-117430273D01*
X153514637Y-117195241D01*
X153314759Y-116995363D01*
X153079727Y-116838320D01*
X152818574Y-116730147D01*
X152541335Y-116675000D01*
X152258665Y-116675000D01*
X151981426Y-116730147D01*
X151720273Y-116838320D01*
X151485241Y-116995363D01*
X151285363Y-117195241D01*
X151128320Y-117430273D01*
X151020147Y-117691426D01*
X150965000Y-117968665D01*
X148093204Y-117968665D01*
X148133097Y-117832702D01*
X147320000Y-117019605D01*
X146506903Y-117832702D01*
X140736694Y-117832702D01*
X140814637Y-117754759D01*
X140971680Y-117519727D01*
X141079853Y-117258574D01*
X141135000Y-116981335D01*
X141135000Y-116910512D01*
X145879783Y-116910512D01*
X145921213Y-117190130D01*
X146016397Y-117456292D01*
X146083329Y-117581514D01*
X146327298Y-117653097D01*
X147140395Y-116840000D01*
X147499605Y-116840000D01*
X148312702Y-117653097D01*
X148556671Y-117581514D01*
X148677571Y-117326004D01*
X148746300Y-117051816D01*
X148760217Y-116769488D01*
X148718787Y-116489870D01*
X148623603Y-116223708D01*
X148556671Y-116098486D01*
X148312702Y-116026903D01*
X147499605Y-116840000D01*
X147140395Y-116840000D01*
X146327298Y-116026903D01*
X146083329Y-116098486D01*
X145962429Y-116353996D01*
X145893700Y-116628184D01*
X145879783Y-116910512D01*
X141135000Y-116910512D01*
X141135000Y-116698665D01*
X141079853Y-116421426D01*
X140971680Y-116160273D01*
X140814637Y-115925241D01*
X140736694Y-115847298D01*
X146506903Y-115847298D01*
X147320000Y-116660395D01*
X148040395Y-115940000D01*
X154671928Y-115940000D01*
X154671928Y-117740000D01*
X154684188Y-117864482D01*
X154720498Y-117984180D01*
X154779463Y-118094494D01*
X154858815Y-118191185D01*
X154955506Y-118270537D01*
X155065820Y-118329502D01*
X155185518Y-118365812D01*
X155310000Y-118378072D01*
X157110000Y-118378072D01*
X157234482Y-118365812D01*
X157354180Y-118329502D01*
X157464494Y-118270537D01*
X157561185Y-118191185D01*
X157640537Y-118094494D01*
X157699502Y-117984180D01*
X157705056Y-117965873D01*
X157771495Y-118032312D01*
X158022905Y-118200299D01*
X158302257Y-118316011D01*
X158598816Y-118375000D01*
X158901184Y-118375000D01*
X159197743Y-118316011D01*
X159477095Y-118200299D01*
X159728505Y-118032312D01*
X159942312Y-117818505D01*
X160110299Y-117567095D01*
X160226011Y-117287743D01*
X160285000Y-116991184D01*
X160285000Y-116688816D01*
X160226011Y-116392257D01*
X160162944Y-116240000D01*
X166001928Y-116240000D01*
X166001928Y-117440000D01*
X166018992Y-117613254D01*
X166069528Y-117779850D01*
X166151595Y-117933386D01*
X166262038Y-118067962D01*
X166396614Y-118178405D01*
X166550150Y-118260472D01*
X166716746Y-118311008D01*
X166890000Y-118328072D01*
X168390000Y-118328072D01*
X168563254Y-118311008D01*
X168729850Y-118260472D01*
X168883386Y-118178405D01*
X169017962Y-118067962D01*
X169128405Y-117933386D01*
X169210472Y-117779850D01*
X169261008Y-117613254D01*
X169278072Y-117440000D01*
X169278072Y-116240000D01*
X176161928Y-116240000D01*
X176161928Y-117440000D01*
X176178992Y-117613254D01*
X176229528Y-117779850D01*
X176311595Y-117933386D01*
X176422038Y-118067962D01*
X176556614Y-118178405D01*
X176710150Y-118260472D01*
X176876746Y-118311008D01*
X177050000Y-118328072D01*
X178550000Y-118328072D01*
X178723254Y-118311008D01*
X178889850Y-118260472D01*
X179043386Y-118178405D01*
X179177962Y-118067962D01*
X179288405Y-117933386D01*
X179370472Y-117779850D01*
X179421008Y-117613254D01*
X179438072Y-117440000D01*
X179438072Y-116240000D01*
X186321928Y-116240000D01*
X186321928Y-117440000D01*
X186338992Y-117613254D01*
X186389528Y-117779850D01*
X186471595Y-117933386D01*
X186582038Y-118067962D01*
X186716614Y-118178405D01*
X186870150Y-118260472D01*
X187036746Y-118311008D01*
X187210000Y-118328072D01*
X188710000Y-118328072D01*
X188883254Y-118311008D01*
X189049850Y-118260472D01*
X189203386Y-118178405D01*
X189337962Y-118067962D01*
X189448405Y-117933386D01*
X189530472Y-117779850D01*
X189581008Y-117613254D01*
X189598072Y-117440000D01*
X189598072Y-116240000D01*
X189581008Y-116066746D01*
X189530472Y-115900150D01*
X189448405Y-115746614D01*
X189337962Y-115612038D01*
X189203386Y-115501595D01*
X189101407Y-115447086D01*
X189101795Y-115446802D01*
X189298664Y-115232046D01*
X189449854Y-114983009D01*
X189549554Y-114709261D01*
X189551476Y-114696890D01*
X189430155Y-114467000D01*
X188087000Y-114467000D01*
X188087000Y-114487000D01*
X187833000Y-114487000D01*
X187833000Y-114467000D01*
X186489845Y-114467000D01*
X186368524Y-114696890D01*
X186370446Y-114709261D01*
X186470146Y-114983009D01*
X186621336Y-115232046D01*
X186818205Y-115446802D01*
X186818593Y-115447086D01*
X186716614Y-115501595D01*
X186582038Y-115612038D01*
X186471595Y-115746614D01*
X186389528Y-115900150D01*
X186338992Y-116066746D01*
X186321928Y-116240000D01*
X179438072Y-116240000D01*
X179421008Y-116066746D01*
X179370472Y-115900150D01*
X179288405Y-115746614D01*
X179177962Y-115612038D01*
X179043386Y-115501595D01*
X178941407Y-115447086D01*
X178941795Y-115446802D01*
X179138664Y-115232046D01*
X179289854Y-114983009D01*
X179389554Y-114709261D01*
X179391476Y-114696890D01*
X179270155Y-114467000D01*
X177927000Y-114467000D01*
X177927000Y-114487000D01*
X177673000Y-114487000D01*
X177673000Y-114467000D01*
X176329845Y-114467000D01*
X176208524Y-114696890D01*
X176210446Y-114709261D01*
X176310146Y-114983009D01*
X176461336Y-115232046D01*
X176658205Y-115446802D01*
X176658593Y-115447086D01*
X176556614Y-115501595D01*
X176422038Y-115612038D01*
X176311595Y-115746614D01*
X176229528Y-115900150D01*
X176178992Y-116066746D01*
X176161928Y-116240000D01*
X169278072Y-116240000D01*
X169261008Y-116066746D01*
X169210472Y-115900150D01*
X169128405Y-115746614D01*
X169017962Y-115612038D01*
X168883386Y-115501595D01*
X168781407Y-115447086D01*
X168781795Y-115446802D01*
X168978664Y-115232046D01*
X169129854Y-114983009D01*
X169229554Y-114709261D01*
X169231476Y-114696890D01*
X169110155Y-114467000D01*
X167767000Y-114467000D01*
X167767000Y-114487000D01*
X167513000Y-114487000D01*
X167513000Y-114467000D01*
X166169845Y-114467000D01*
X166048524Y-114696890D01*
X166050446Y-114709261D01*
X166150146Y-114983009D01*
X166301336Y-115232046D01*
X166498205Y-115446802D01*
X166498593Y-115447086D01*
X166396614Y-115501595D01*
X166262038Y-115612038D01*
X166151595Y-115746614D01*
X166069528Y-115900150D01*
X166018992Y-116066746D01*
X166001928Y-116240000D01*
X160162944Y-116240000D01*
X160110299Y-116112905D01*
X159942312Y-115861495D01*
X159728505Y-115647688D01*
X159477095Y-115479701D01*
X159197743Y-115363989D01*
X158901184Y-115305000D01*
X158598816Y-115305000D01*
X158302257Y-115363989D01*
X158022905Y-115479701D01*
X157771495Y-115647688D01*
X157705056Y-115714127D01*
X157699502Y-115695820D01*
X157640537Y-115585506D01*
X157561185Y-115488815D01*
X157464494Y-115409463D01*
X157354180Y-115350498D01*
X157234482Y-115314188D01*
X157110000Y-115301928D01*
X155310000Y-115301928D01*
X155185518Y-115314188D01*
X155065820Y-115350498D01*
X154955506Y-115409463D01*
X154858815Y-115488815D01*
X154779463Y-115585506D01*
X154720498Y-115695820D01*
X154684188Y-115815518D01*
X154671928Y-115940000D01*
X148040395Y-115940000D01*
X148133097Y-115847298D01*
X148061514Y-115603329D01*
X147806004Y-115482429D01*
X147531816Y-115413700D01*
X147249488Y-115399783D01*
X146969870Y-115441213D01*
X146703708Y-115536397D01*
X146578486Y-115603329D01*
X146506903Y-115847298D01*
X140736694Y-115847298D01*
X140614759Y-115725363D01*
X140379727Y-115568320D01*
X140118574Y-115460147D01*
X139841335Y-115405000D01*
X139558665Y-115405000D01*
X139281426Y-115460147D01*
X139020273Y-115568320D01*
X138785241Y-115725363D01*
X138686643Y-115823961D01*
X138685812Y-115815518D01*
X138649502Y-115695820D01*
X138590537Y-115585506D01*
X138511185Y-115488815D01*
X138414494Y-115409463D01*
X138304180Y-115350498D01*
X138184482Y-115314188D01*
X138060000Y-115301928D01*
X136260000Y-115301928D01*
X136135518Y-115314188D01*
X136015820Y-115350498D01*
X135905506Y-115409463D01*
X135808815Y-115488815D01*
X135729463Y-115585506D01*
X135670498Y-115695820D01*
X135664944Y-115714127D01*
X135598505Y-115647688D01*
X135347095Y-115479701D01*
X135067743Y-115363989D01*
X134771184Y-115305000D01*
X134468816Y-115305000D01*
X134172257Y-115363989D01*
X133892905Y-115479701D01*
X133641495Y-115647688D01*
X133427688Y-115861495D01*
X133259701Y-116112905D01*
X133143989Y-116392257D01*
X133085000Y-116688816D01*
X128613072Y-116688816D01*
X128613072Y-116240000D01*
X128596008Y-116066746D01*
X128545472Y-115900150D01*
X128463405Y-115746614D01*
X128352962Y-115612038D01*
X128218386Y-115501595D01*
X128113039Y-115445286D01*
X128134429Y-115429049D01*
X128327496Y-115211193D01*
X128474352Y-114959858D01*
X128566476Y-114696890D01*
X128445155Y-114467000D01*
X127127000Y-114467000D01*
X127127000Y-114487000D01*
X126873000Y-114487000D01*
X126873000Y-114467000D01*
X125554845Y-114467000D01*
X125433524Y-114696890D01*
X125525648Y-114959858D01*
X125672504Y-115211193D01*
X125865571Y-115429049D01*
X125886961Y-115445286D01*
X125781614Y-115501595D01*
X125647038Y-115612038D01*
X125536595Y-115746614D01*
X125454528Y-115900150D01*
X125403992Y-116066746D01*
X125386928Y-116240000D01*
X115913072Y-116240000D01*
X115896008Y-116066746D01*
X115845472Y-115900150D01*
X115763405Y-115746614D01*
X115652962Y-115612038D01*
X115518386Y-115501595D01*
X115413039Y-115445286D01*
X115434429Y-115429049D01*
X115627496Y-115211193D01*
X115774352Y-114959858D01*
X115866476Y-114696890D01*
X115745155Y-114467000D01*
X114427000Y-114467000D01*
X114427000Y-114487000D01*
X114173000Y-114487000D01*
X114173000Y-114467000D01*
X112854845Y-114467000D01*
X112733524Y-114696890D01*
X112825648Y-114959858D01*
X112972504Y-115211193D01*
X113165571Y-115429049D01*
X113186961Y-115445286D01*
X113081614Y-115501595D01*
X112947038Y-115612038D01*
X112836595Y-115746614D01*
X112754528Y-115900150D01*
X112703992Y-116066746D01*
X112686928Y-116240000D01*
X103213072Y-116240000D01*
X103196008Y-116066746D01*
X103145472Y-115900150D01*
X103063405Y-115746614D01*
X102952962Y-115612038D01*
X102818386Y-115501595D01*
X102713039Y-115445286D01*
X102734429Y-115429049D01*
X102927496Y-115211193D01*
X103074352Y-114959858D01*
X103166476Y-114696890D01*
X103045155Y-114467000D01*
X101727000Y-114467000D01*
X101727000Y-114487000D01*
X101473000Y-114487000D01*
X101473000Y-114467000D01*
X100154845Y-114467000D01*
X100033524Y-114696890D01*
X100125648Y-114959858D01*
X100272504Y-115211193D01*
X100465571Y-115429049D01*
X100486961Y-115445286D01*
X100381614Y-115501595D01*
X100247038Y-115612038D01*
X100136595Y-115746614D01*
X100054528Y-115900150D01*
X100003992Y-116066746D01*
X99986928Y-116240000D01*
X97180000Y-116240000D01*
X97180000Y-111840000D01*
X99982815Y-111840000D01*
X100011487Y-112131111D01*
X100096401Y-112411034D01*
X100234294Y-112669014D01*
X100419866Y-112895134D01*
X100645986Y-113080706D01*
X100671722Y-113094462D01*
X100465571Y-113250951D01*
X100272504Y-113468807D01*
X100125648Y-113720142D01*
X100033524Y-113983110D01*
X100154845Y-114213000D01*
X101473000Y-114213000D01*
X101473000Y-114193000D01*
X101727000Y-114193000D01*
X101727000Y-114213000D01*
X103045155Y-114213000D01*
X103166476Y-113983110D01*
X103074352Y-113720142D01*
X102927496Y-113468807D01*
X102734429Y-113250951D01*
X102528278Y-113094462D01*
X102554014Y-113080706D01*
X102780134Y-112895134D01*
X102965706Y-112669014D01*
X103103599Y-112411034D01*
X103188513Y-112131111D01*
X103217185Y-111840000D01*
X112682815Y-111840000D01*
X112711487Y-112131111D01*
X112796401Y-112411034D01*
X112934294Y-112669014D01*
X113119866Y-112895134D01*
X113345986Y-113080706D01*
X113371722Y-113094462D01*
X113165571Y-113250951D01*
X112972504Y-113468807D01*
X112825648Y-113720142D01*
X112733524Y-113983110D01*
X112854845Y-114213000D01*
X114173000Y-114213000D01*
X114173000Y-114193000D01*
X114427000Y-114193000D01*
X114427000Y-114213000D01*
X115745155Y-114213000D01*
X115866476Y-113983110D01*
X115774352Y-113720142D01*
X115627496Y-113468807D01*
X115434429Y-113250951D01*
X115228278Y-113094462D01*
X115254014Y-113080706D01*
X115480134Y-112895134D01*
X115665706Y-112669014D01*
X115803599Y-112411034D01*
X115888513Y-112131111D01*
X115917185Y-111840000D01*
X125382815Y-111840000D01*
X125411487Y-112131111D01*
X125496401Y-112411034D01*
X125634294Y-112669014D01*
X125819866Y-112895134D01*
X126045986Y-113080706D01*
X126071722Y-113094462D01*
X125865571Y-113250951D01*
X125672504Y-113468807D01*
X125525648Y-113720142D01*
X125433524Y-113983110D01*
X125554845Y-114213000D01*
X126873000Y-114213000D01*
X126873000Y-114193000D01*
X127127000Y-114193000D01*
X127127000Y-114213000D01*
X128445155Y-114213000D01*
X128566476Y-113983110D01*
X166048524Y-113983110D01*
X166169845Y-114213000D01*
X167513000Y-114213000D01*
X167513000Y-113012768D01*
X167767000Y-113012768D01*
X167767000Y-114213000D01*
X169110155Y-114213000D01*
X169231476Y-113983110D01*
X176208524Y-113983110D01*
X176329845Y-114213000D01*
X177673000Y-114213000D01*
X177673000Y-113012768D01*
X177927000Y-113012768D01*
X177927000Y-114213000D01*
X179270155Y-114213000D01*
X179391476Y-113983110D01*
X186368524Y-113983110D01*
X186489845Y-114213000D01*
X187833000Y-114213000D01*
X187833000Y-113012768D01*
X188087000Y-113012768D01*
X188087000Y-114213000D01*
X189430155Y-114213000D01*
X189551476Y-113983110D01*
X189549554Y-113970739D01*
X189449854Y-113696991D01*
X189298664Y-113447954D01*
X189101795Y-113233198D01*
X188866812Y-113060975D01*
X188602745Y-112937904D01*
X188319742Y-112868715D01*
X188087000Y-113012768D01*
X187833000Y-113012768D01*
X187600258Y-112868715D01*
X187317255Y-112937904D01*
X187053188Y-113060975D01*
X186818205Y-113233198D01*
X186621336Y-113447954D01*
X186470146Y-113696991D01*
X186370446Y-113970739D01*
X186368524Y-113983110D01*
X179391476Y-113983110D01*
X179389554Y-113970739D01*
X179289854Y-113696991D01*
X179138664Y-113447954D01*
X178941795Y-113233198D01*
X178706812Y-113060975D01*
X178442745Y-112937904D01*
X178159742Y-112868715D01*
X177927000Y-113012768D01*
X177673000Y-113012768D01*
X177440258Y-112868715D01*
X177157255Y-112937904D01*
X176893188Y-113060975D01*
X176658205Y-113233198D01*
X176461336Y-113447954D01*
X176310146Y-113696991D01*
X176210446Y-113970739D01*
X176208524Y-113983110D01*
X169231476Y-113983110D01*
X169229554Y-113970739D01*
X169129854Y-113696991D01*
X168978664Y-113447954D01*
X168781795Y-113233198D01*
X168546812Y-113060975D01*
X168282745Y-112937904D01*
X167999742Y-112868715D01*
X167767000Y-113012768D01*
X167513000Y-113012768D01*
X167280258Y-112868715D01*
X166997255Y-112937904D01*
X166733188Y-113060975D01*
X166498205Y-113233198D01*
X166301336Y-113447954D01*
X166150146Y-113696991D01*
X166050446Y-113970739D01*
X166048524Y-113983110D01*
X128566476Y-113983110D01*
X128474352Y-113720142D01*
X128327496Y-113468807D01*
X128134429Y-113250951D01*
X127928278Y-113094462D01*
X127954014Y-113080706D01*
X128180134Y-112895134D01*
X128365706Y-112669014D01*
X128503599Y-112411034D01*
X128588513Y-112131111D01*
X128617185Y-111840000D01*
X128594416Y-111608816D01*
X133085000Y-111608816D01*
X133085000Y-111911184D01*
X133143989Y-112207743D01*
X133259701Y-112487095D01*
X133427688Y-112738505D01*
X133641495Y-112952312D01*
X133892905Y-113120299D01*
X134172257Y-113236011D01*
X134468816Y-113295000D01*
X134771184Y-113295000D01*
X135067743Y-113236011D01*
X135347095Y-113120299D01*
X135598505Y-112952312D01*
X135664944Y-112885873D01*
X135670498Y-112904180D01*
X135729463Y-113014494D01*
X135808815Y-113111185D01*
X135905506Y-113190537D01*
X136015820Y-113249502D01*
X136135518Y-113285812D01*
X136260000Y-113298072D01*
X138060000Y-113298072D01*
X138184482Y-113285812D01*
X138304180Y-113249502D01*
X138414494Y-113190537D01*
X138511185Y-113111185D01*
X138590537Y-113014494D01*
X138649502Y-112904180D01*
X138685812Y-112784482D01*
X138686643Y-112776039D01*
X138785241Y-112874637D01*
X139020273Y-113031680D01*
X139281426Y-113139853D01*
X139558665Y-113195000D01*
X139841335Y-113195000D01*
X140118574Y-113139853D01*
X140379727Y-113031680D01*
X140614759Y-112874637D01*
X140736694Y-112752702D01*
X146506903Y-112752702D01*
X146578486Y-112996671D01*
X146833996Y-113117571D01*
X147108184Y-113186300D01*
X147390512Y-113200217D01*
X147670130Y-113158787D01*
X147936292Y-113063603D01*
X148061514Y-112996671D01*
X148133097Y-112752702D01*
X147320000Y-111939605D01*
X146506903Y-112752702D01*
X140736694Y-112752702D01*
X140814637Y-112674759D01*
X140971680Y-112439727D01*
X141079853Y-112178574D01*
X141135000Y-111901335D01*
X141135000Y-111830512D01*
X145879783Y-111830512D01*
X145921213Y-112110130D01*
X146016397Y-112376292D01*
X146083329Y-112501514D01*
X146327298Y-112573097D01*
X147140395Y-111760000D01*
X147499605Y-111760000D01*
X148312702Y-112573097D01*
X148556671Y-112501514D01*
X148677571Y-112246004D01*
X148746300Y-111971816D01*
X148760217Y-111689488D01*
X148729579Y-111482702D01*
X151586903Y-111482702D01*
X151658486Y-111726671D01*
X151913996Y-111847571D01*
X152188184Y-111916300D01*
X152470512Y-111930217D01*
X152750130Y-111888787D01*
X153016292Y-111793603D01*
X153141514Y-111726671D01*
X153213097Y-111482702D01*
X152400000Y-110669605D01*
X151586903Y-111482702D01*
X148729579Y-111482702D01*
X148718787Y-111409870D01*
X148623603Y-111143708D01*
X148556671Y-111018486D01*
X148312702Y-110946903D01*
X147499605Y-111760000D01*
X147140395Y-111760000D01*
X146327298Y-110946903D01*
X146083329Y-111018486D01*
X145962429Y-111273996D01*
X145893700Y-111548184D01*
X145879783Y-111830512D01*
X141135000Y-111830512D01*
X141135000Y-111618665D01*
X141079853Y-111341426D01*
X140971680Y-111080273D01*
X140814637Y-110845241D01*
X140736694Y-110767298D01*
X146506903Y-110767298D01*
X147320000Y-111580395D01*
X148133097Y-110767298D01*
X148072424Y-110560512D01*
X150959783Y-110560512D01*
X151001213Y-110840130D01*
X151096397Y-111106292D01*
X151163329Y-111231514D01*
X151407298Y-111303097D01*
X152220395Y-110490000D01*
X152579605Y-110490000D01*
X153392702Y-111303097D01*
X153636671Y-111231514D01*
X153757571Y-110976004D01*
X153826300Y-110701816D01*
X153840217Y-110419488D01*
X153798787Y-110139870D01*
X153703603Y-109873708D01*
X153636671Y-109748486D01*
X153392702Y-109676903D01*
X152579605Y-110490000D01*
X152220395Y-110490000D01*
X151407298Y-109676903D01*
X151163329Y-109748486D01*
X151042429Y-110003996D01*
X150973700Y-110278184D01*
X150959783Y-110560512D01*
X148072424Y-110560512D01*
X148061514Y-110523329D01*
X147806004Y-110402429D01*
X147531816Y-110333700D01*
X147249488Y-110319783D01*
X146969870Y-110361213D01*
X146703708Y-110456397D01*
X146578486Y-110523329D01*
X146506903Y-110767298D01*
X140736694Y-110767298D01*
X140614759Y-110645363D01*
X140379727Y-110488320D01*
X140118574Y-110380147D01*
X139841335Y-110325000D01*
X139558665Y-110325000D01*
X139281426Y-110380147D01*
X139020273Y-110488320D01*
X138785241Y-110645363D01*
X138686643Y-110743961D01*
X138685812Y-110735518D01*
X138649502Y-110615820D01*
X138590537Y-110505506D01*
X138511185Y-110408815D01*
X138414494Y-110329463D01*
X138304180Y-110270498D01*
X138184482Y-110234188D01*
X138060000Y-110221928D01*
X136260000Y-110221928D01*
X136135518Y-110234188D01*
X136015820Y-110270498D01*
X135905506Y-110329463D01*
X135808815Y-110408815D01*
X135729463Y-110505506D01*
X135670498Y-110615820D01*
X135664944Y-110634127D01*
X135598505Y-110567688D01*
X135347095Y-110399701D01*
X135067743Y-110283989D01*
X134771184Y-110225000D01*
X134468816Y-110225000D01*
X134172257Y-110283989D01*
X133892905Y-110399701D01*
X133641495Y-110567688D01*
X133427688Y-110781495D01*
X133259701Y-111032905D01*
X133143989Y-111312257D01*
X133085000Y-111608816D01*
X128594416Y-111608816D01*
X128588513Y-111548889D01*
X128503599Y-111268966D01*
X128365706Y-111010986D01*
X128180134Y-110784866D01*
X127954014Y-110599294D01*
X127696034Y-110461401D01*
X127416111Y-110376487D01*
X127197950Y-110355000D01*
X126802050Y-110355000D01*
X126583889Y-110376487D01*
X126303966Y-110461401D01*
X126045986Y-110599294D01*
X125819866Y-110784866D01*
X125634294Y-111010986D01*
X125496401Y-111268966D01*
X125411487Y-111548889D01*
X125382815Y-111840000D01*
X115917185Y-111840000D01*
X115888513Y-111548889D01*
X115803599Y-111268966D01*
X115665706Y-111010986D01*
X115480134Y-110784866D01*
X115254014Y-110599294D01*
X114996034Y-110461401D01*
X114716111Y-110376487D01*
X114497950Y-110355000D01*
X114102050Y-110355000D01*
X113883889Y-110376487D01*
X113603966Y-110461401D01*
X113345986Y-110599294D01*
X113119866Y-110784866D01*
X112934294Y-111010986D01*
X112796401Y-111268966D01*
X112711487Y-111548889D01*
X112682815Y-111840000D01*
X103217185Y-111840000D01*
X103188513Y-111548889D01*
X103103599Y-111268966D01*
X102965706Y-111010986D01*
X102780134Y-110784866D01*
X102554014Y-110599294D01*
X102296034Y-110461401D01*
X102016111Y-110376487D01*
X101797950Y-110355000D01*
X101402050Y-110355000D01*
X101183889Y-110376487D01*
X100903966Y-110461401D01*
X100645986Y-110599294D01*
X100419866Y-110784866D01*
X100234294Y-111010986D01*
X100096401Y-111268966D01*
X100011487Y-111548889D01*
X99982815Y-111840000D01*
X97180000Y-111840000D01*
X97180000Y-109497298D01*
X151586903Y-109497298D01*
X152400000Y-110310395D01*
X153213097Y-109497298D01*
X153141514Y-109253329D01*
X152886004Y-109132429D01*
X152611816Y-109063700D01*
X152329488Y-109049783D01*
X152049870Y-109091213D01*
X151783708Y-109186397D01*
X151658486Y-109253329D01*
X151586903Y-109497298D01*
X97180000Y-109497298D01*
X97180000Y-101453740D01*
X97575000Y-101453740D01*
X97575000Y-101746260D01*
X97632068Y-102033158D01*
X97744010Y-102303411D01*
X97906525Y-102546632D01*
X98113368Y-102753475D01*
X98356589Y-102915990D01*
X98626842Y-103027932D01*
X98913740Y-103085000D01*
X99206260Y-103085000D01*
X99493158Y-103027932D01*
X99763411Y-102915990D01*
X100006632Y-102753475D01*
X100193715Y-102566392D01*
X100261595Y-102693386D01*
X100372038Y-102827962D01*
X100506614Y-102938405D01*
X100660150Y-103020472D01*
X100826746Y-103071008D01*
X101000000Y-103088072D01*
X102200000Y-103088072D01*
X102373254Y-103071008D01*
X102539850Y-103020472D01*
X102693386Y-102938405D01*
X102827962Y-102827962D01*
X102938405Y-102693386D01*
X103020472Y-102539850D01*
X103071008Y-102373254D01*
X103088072Y-102200000D01*
X103088072Y-101453740D01*
X112815000Y-101453740D01*
X112815000Y-101746260D01*
X112872068Y-102033158D01*
X112984010Y-102303411D01*
X113146525Y-102546632D01*
X113353368Y-102753475D01*
X113596589Y-102915990D01*
X113866842Y-103027932D01*
X114153740Y-103085000D01*
X114446260Y-103085000D01*
X114733158Y-103027932D01*
X115003411Y-102915990D01*
X115246632Y-102753475D01*
X115433715Y-102566392D01*
X115501595Y-102693386D01*
X115612038Y-102827962D01*
X115746614Y-102938405D01*
X115900150Y-103020472D01*
X116066746Y-103071008D01*
X116240000Y-103088072D01*
X117440000Y-103088072D01*
X117613254Y-103071008D01*
X117779850Y-103020472D01*
X117933386Y-102938405D01*
X118067962Y-102827962D01*
X118178405Y-102693386D01*
X118260472Y-102539850D01*
X118311008Y-102373254D01*
X118328072Y-102200000D01*
X118328072Y-101453740D01*
X128055000Y-101453740D01*
X128055000Y-101746260D01*
X128112068Y-102033158D01*
X128224010Y-102303411D01*
X128386525Y-102546632D01*
X128593368Y-102753475D01*
X128836589Y-102915990D01*
X129106842Y-103027932D01*
X129393740Y-103085000D01*
X129686260Y-103085000D01*
X129973158Y-103027932D01*
X130243411Y-102915990D01*
X130486632Y-102753475D01*
X130673715Y-102566392D01*
X130741595Y-102693386D01*
X130852038Y-102827962D01*
X130986614Y-102938405D01*
X131140150Y-103020472D01*
X131306746Y-103071008D01*
X131480000Y-103088072D01*
X132680000Y-103088072D01*
X132853254Y-103071008D01*
X133019850Y-103020472D01*
X133173386Y-102938405D01*
X133307962Y-102827962D01*
X133418405Y-102693386D01*
X133500472Y-102539850D01*
X133551008Y-102373254D01*
X133568072Y-102200000D01*
X133568072Y-101453740D01*
X143295000Y-101453740D01*
X143295000Y-101746260D01*
X143352068Y-102033158D01*
X143464010Y-102303411D01*
X143626525Y-102546632D01*
X143833368Y-102753475D01*
X144076589Y-102915990D01*
X144346842Y-103027932D01*
X144633740Y-103085000D01*
X144926260Y-103085000D01*
X145213158Y-103027932D01*
X145483411Y-102915990D01*
X145726632Y-102753475D01*
X145913715Y-102566392D01*
X145981595Y-102693386D01*
X146092038Y-102827962D01*
X146226614Y-102938405D01*
X146380150Y-103020472D01*
X146546746Y-103071008D01*
X146720000Y-103088072D01*
X147920000Y-103088072D01*
X148093254Y-103071008D01*
X148259850Y-103020472D01*
X148413386Y-102938405D01*
X148547962Y-102827962D01*
X148658405Y-102693386D01*
X148740472Y-102539850D01*
X148791008Y-102373254D01*
X148808072Y-102200000D01*
X148808072Y-101453740D01*
X158535000Y-101453740D01*
X158535000Y-101746260D01*
X158592068Y-102033158D01*
X158704010Y-102303411D01*
X158866525Y-102546632D01*
X159073368Y-102753475D01*
X159316589Y-102915990D01*
X159586842Y-103027932D01*
X159873740Y-103085000D01*
X160166260Y-103085000D01*
X160453158Y-103027932D01*
X160723411Y-102915990D01*
X160966632Y-102753475D01*
X161153715Y-102566392D01*
X161221595Y-102693386D01*
X161332038Y-102827962D01*
X161466614Y-102938405D01*
X161620150Y-103020472D01*
X161786746Y-103071008D01*
X161960000Y-103088072D01*
X163160000Y-103088072D01*
X163333254Y-103071008D01*
X163499850Y-103020472D01*
X163653386Y-102938405D01*
X163787962Y-102827962D01*
X163898405Y-102693386D01*
X163980472Y-102539850D01*
X164031008Y-102373254D01*
X164048072Y-102200000D01*
X164048072Y-101453740D01*
X173775000Y-101453740D01*
X173775000Y-101746260D01*
X173832068Y-102033158D01*
X173944010Y-102303411D01*
X174106525Y-102546632D01*
X174313368Y-102753475D01*
X174556589Y-102915990D01*
X174826842Y-103027932D01*
X175113740Y-103085000D01*
X175406260Y-103085000D01*
X175693158Y-103027932D01*
X175963411Y-102915990D01*
X176206632Y-102753475D01*
X176393715Y-102566392D01*
X176461595Y-102693386D01*
X176572038Y-102827962D01*
X176706614Y-102938405D01*
X176860150Y-103020472D01*
X177026746Y-103071008D01*
X177200000Y-103088072D01*
X178400000Y-103088072D01*
X178573254Y-103071008D01*
X178739850Y-103020472D01*
X178893386Y-102938405D01*
X179027962Y-102827962D01*
X179138405Y-102693386D01*
X179220472Y-102539850D01*
X179271008Y-102373254D01*
X179288072Y-102200000D01*
X179288072Y-101453740D01*
X189015000Y-101453740D01*
X189015000Y-101746260D01*
X189072068Y-102033158D01*
X189184010Y-102303411D01*
X189346525Y-102546632D01*
X189553368Y-102753475D01*
X189796589Y-102915990D01*
X190066842Y-103027932D01*
X190353740Y-103085000D01*
X190646260Y-103085000D01*
X190933158Y-103027932D01*
X191203411Y-102915990D01*
X191446632Y-102753475D01*
X191633715Y-102566392D01*
X191701595Y-102693386D01*
X191812038Y-102827962D01*
X191946614Y-102938405D01*
X192100150Y-103020472D01*
X192266746Y-103071008D01*
X192440000Y-103088072D01*
X193640000Y-103088072D01*
X193813254Y-103071008D01*
X193979850Y-103020472D01*
X194133386Y-102938405D01*
X194267962Y-102827962D01*
X194378405Y-102693386D01*
X194460472Y-102539850D01*
X194511008Y-102373254D01*
X194528072Y-102200000D01*
X194528072Y-101000000D01*
X194511008Y-100826746D01*
X194460472Y-100660150D01*
X194378405Y-100506614D01*
X194267962Y-100372038D01*
X194133386Y-100261595D01*
X193979850Y-100179528D01*
X193870707Y-100146420D01*
X193888792Y-100088397D01*
X193040000Y-99239605D01*
X192191208Y-100088397D01*
X192209293Y-100146420D01*
X192100150Y-100179528D01*
X191946614Y-100261595D01*
X191812038Y-100372038D01*
X191701595Y-100506614D01*
X191633715Y-100633608D01*
X191446632Y-100446525D01*
X191273271Y-100330689D01*
X191348792Y-100088397D01*
X190500000Y-99239605D01*
X189651208Y-100088397D01*
X189726729Y-100330689D01*
X189553368Y-100446525D01*
X189346525Y-100653368D01*
X189184010Y-100896589D01*
X189072068Y-101166842D01*
X189015000Y-101453740D01*
X179288072Y-101453740D01*
X179288072Y-101000000D01*
X179271008Y-100826746D01*
X179220472Y-100660150D01*
X179138405Y-100506614D01*
X179027962Y-100372038D01*
X178893386Y-100261595D01*
X178739850Y-100179528D01*
X178630707Y-100146420D01*
X178648792Y-100088397D01*
X177800000Y-99239605D01*
X176951208Y-100088397D01*
X176969293Y-100146420D01*
X176860150Y-100179528D01*
X176706614Y-100261595D01*
X176572038Y-100372038D01*
X176461595Y-100506614D01*
X176393715Y-100633608D01*
X176206632Y-100446525D01*
X176033271Y-100330689D01*
X176108792Y-100088397D01*
X175260000Y-99239605D01*
X174411208Y-100088397D01*
X174486729Y-100330689D01*
X174313368Y-100446525D01*
X174106525Y-100653368D01*
X173944010Y-100896589D01*
X173832068Y-101166842D01*
X173775000Y-101453740D01*
X164048072Y-101453740D01*
X164048072Y-101000000D01*
X164031008Y-100826746D01*
X163980472Y-100660150D01*
X163898405Y-100506614D01*
X163787962Y-100372038D01*
X163653386Y-100261595D01*
X163499850Y-100179528D01*
X163390707Y-100146420D01*
X163408792Y-100088397D01*
X162560000Y-99239605D01*
X161711208Y-100088397D01*
X161729293Y-100146420D01*
X161620150Y-100179528D01*
X161466614Y-100261595D01*
X161332038Y-100372038D01*
X161221595Y-100506614D01*
X161153715Y-100633608D01*
X160966632Y-100446525D01*
X160793271Y-100330689D01*
X160868792Y-100088397D01*
X160020000Y-99239605D01*
X159171208Y-100088397D01*
X159246729Y-100330689D01*
X159073368Y-100446525D01*
X158866525Y-100653368D01*
X158704010Y-100896589D01*
X158592068Y-101166842D01*
X158535000Y-101453740D01*
X148808072Y-101453740D01*
X148808072Y-101000000D01*
X148791008Y-100826746D01*
X148740472Y-100660150D01*
X148658405Y-100506614D01*
X148547962Y-100372038D01*
X148413386Y-100261595D01*
X148259850Y-100179528D01*
X148150707Y-100146420D01*
X148168792Y-100088397D01*
X147320000Y-99239605D01*
X146471208Y-100088397D01*
X146489293Y-100146420D01*
X146380150Y-100179528D01*
X146226614Y-100261595D01*
X146092038Y-100372038D01*
X145981595Y-100506614D01*
X145913715Y-100633608D01*
X145726632Y-100446525D01*
X145553271Y-100330689D01*
X145628792Y-100088397D01*
X144780000Y-99239605D01*
X143931208Y-100088397D01*
X144006729Y-100330689D01*
X143833368Y-100446525D01*
X143626525Y-100653368D01*
X143464010Y-100896589D01*
X143352068Y-101166842D01*
X143295000Y-101453740D01*
X133568072Y-101453740D01*
X133568072Y-101000000D01*
X133551008Y-100826746D01*
X133500472Y-100660150D01*
X133418405Y-100506614D01*
X133307962Y-100372038D01*
X133173386Y-100261595D01*
X133019850Y-100179528D01*
X132910707Y-100146420D01*
X132928792Y-100088397D01*
X132080000Y-99239605D01*
X131231208Y-100088397D01*
X131249293Y-100146420D01*
X131140150Y-100179528D01*
X130986614Y-100261595D01*
X130852038Y-100372038D01*
X130741595Y-100506614D01*
X130673715Y-100633608D01*
X130486632Y-100446525D01*
X130313271Y-100330689D01*
X130388792Y-100088397D01*
X129540000Y-99239605D01*
X128691208Y-100088397D01*
X128766729Y-100330689D01*
X128593368Y-100446525D01*
X128386525Y-100653368D01*
X128224010Y-100896589D01*
X128112068Y-101166842D01*
X128055000Y-101453740D01*
X118328072Y-101453740D01*
X118328072Y-101000000D01*
X118311008Y-100826746D01*
X118260472Y-100660150D01*
X118178405Y-100506614D01*
X118067962Y-100372038D01*
X117933386Y-100261595D01*
X117779850Y-100179528D01*
X117670707Y-100146420D01*
X117688792Y-100088397D01*
X116840000Y-99239605D01*
X115991208Y-100088397D01*
X116009293Y-100146420D01*
X115900150Y-100179528D01*
X115746614Y-100261595D01*
X115612038Y-100372038D01*
X115501595Y-100506614D01*
X115433715Y-100633608D01*
X115246632Y-100446525D01*
X115073271Y-100330689D01*
X115148792Y-100088397D01*
X114300000Y-99239605D01*
X113451208Y-100088397D01*
X113526729Y-100330689D01*
X113353368Y-100446525D01*
X113146525Y-100653368D01*
X112984010Y-100896589D01*
X112872068Y-101166842D01*
X112815000Y-101453740D01*
X103088072Y-101453740D01*
X103088072Y-101000000D01*
X103071008Y-100826746D01*
X103020472Y-100660150D01*
X102938405Y-100506614D01*
X102827962Y-100372038D01*
X102693386Y-100261595D01*
X102539850Y-100179528D01*
X102430707Y-100146420D01*
X102448792Y-100088397D01*
X101600000Y-99239605D01*
X100751208Y-100088397D01*
X100769293Y-100146420D01*
X100660150Y-100179528D01*
X100506614Y-100261595D01*
X100372038Y-100372038D01*
X100261595Y-100506614D01*
X100193715Y-100633608D01*
X100006632Y-100446525D01*
X99833271Y-100330689D01*
X99908792Y-100088397D01*
X99060000Y-99239605D01*
X98211208Y-100088397D01*
X98286729Y-100330689D01*
X98113368Y-100446525D01*
X97906525Y-100653368D01*
X97744010Y-100896589D01*
X97632068Y-101166842D01*
X97575000Y-101453740D01*
X97180000Y-101453740D01*
X97180000Y-99128531D01*
X97569389Y-99128531D01*
X97611401Y-99418019D01*
X97709081Y-99693747D01*
X97782528Y-99831157D01*
X98031603Y-99908792D01*
X98880395Y-99060000D01*
X99239605Y-99060000D01*
X100088397Y-99908792D01*
X100330000Y-99833486D01*
X100571603Y-99908792D01*
X101420395Y-99060000D01*
X101779605Y-99060000D01*
X102628397Y-99908792D01*
X102877472Y-99831157D01*
X103003371Y-99567117D01*
X103075339Y-99283589D01*
X103083445Y-99128531D01*
X112809389Y-99128531D01*
X112851401Y-99418019D01*
X112949081Y-99693747D01*
X113022528Y-99831157D01*
X113271603Y-99908792D01*
X114120395Y-99060000D01*
X114479605Y-99060000D01*
X115328397Y-99908792D01*
X115570000Y-99833486D01*
X115811603Y-99908792D01*
X116660395Y-99060000D01*
X117019605Y-99060000D01*
X117868397Y-99908792D01*
X118117472Y-99831157D01*
X118243371Y-99567117D01*
X118315339Y-99283589D01*
X118323445Y-99128531D01*
X128049389Y-99128531D01*
X128091401Y-99418019D01*
X128189081Y-99693747D01*
X128262528Y-99831157D01*
X128511603Y-99908792D01*
X129360395Y-99060000D01*
X129719605Y-99060000D01*
X130568397Y-99908792D01*
X130810000Y-99833486D01*
X131051603Y-99908792D01*
X131900395Y-99060000D01*
X132259605Y-99060000D01*
X133108397Y-99908792D01*
X133357472Y-99831157D01*
X133483371Y-99567117D01*
X133555339Y-99283589D01*
X133563445Y-99128531D01*
X143289389Y-99128531D01*
X143331401Y-99418019D01*
X143429081Y-99693747D01*
X143502528Y-99831157D01*
X143751603Y-99908792D01*
X144600395Y-99060000D01*
X144959605Y-99060000D01*
X145808397Y-99908792D01*
X146050000Y-99833486D01*
X146291603Y-99908792D01*
X147140395Y-99060000D01*
X147499605Y-99060000D01*
X148348397Y-99908792D01*
X148597472Y-99831157D01*
X148723371Y-99567117D01*
X148795339Y-99283589D01*
X148803445Y-99128531D01*
X158529389Y-99128531D01*
X158571401Y-99418019D01*
X158669081Y-99693747D01*
X158742528Y-99831157D01*
X158991603Y-99908792D01*
X159840395Y-99060000D01*
X160199605Y-99060000D01*
X161048397Y-99908792D01*
X161290000Y-99833486D01*
X161531603Y-99908792D01*
X162380395Y-99060000D01*
X162739605Y-99060000D01*
X163588397Y-99908792D01*
X163837472Y-99831157D01*
X163963371Y-99567117D01*
X164035339Y-99283589D01*
X164043445Y-99128531D01*
X173769389Y-99128531D01*
X173811401Y-99418019D01*
X173909081Y-99693747D01*
X173982528Y-99831157D01*
X174231603Y-99908792D01*
X175080395Y-99060000D01*
X175439605Y-99060000D01*
X176288397Y-99908792D01*
X176530000Y-99833486D01*
X176771603Y-99908792D01*
X177620395Y-99060000D01*
X177979605Y-99060000D01*
X178828397Y-99908792D01*
X179077472Y-99831157D01*
X179203371Y-99567117D01*
X179275339Y-99283589D01*
X179283445Y-99128531D01*
X189009389Y-99128531D01*
X189051401Y-99418019D01*
X189149081Y-99693747D01*
X189222528Y-99831157D01*
X189471603Y-99908792D01*
X190320395Y-99060000D01*
X190679605Y-99060000D01*
X191528397Y-99908792D01*
X191770000Y-99833486D01*
X192011603Y-99908792D01*
X192860395Y-99060000D01*
X193219605Y-99060000D01*
X194068397Y-99908792D01*
X194317472Y-99831157D01*
X194443371Y-99567117D01*
X194515339Y-99283589D01*
X194530611Y-98991469D01*
X194488599Y-98701981D01*
X194390919Y-98426253D01*
X194317472Y-98288843D01*
X194068397Y-98211208D01*
X193219605Y-99060000D01*
X192860395Y-99060000D01*
X192011603Y-98211208D01*
X191770000Y-98286514D01*
X191528397Y-98211208D01*
X190679605Y-99060000D01*
X190320395Y-99060000D01*
X189471603Y-98211208D01*
X189222528Y-98288843D01*
X189096629Y-98552883D01*
X189024661Y-98836411D01*
X189009389Y-99128531D01*
X179283445Y-99128531D01*
X179290611Y-98991469D01*
X179248599Y-98701981D01*
X179150919Y-98426253D01*
X179077472Y-98288843D01*
X178828397Y-98211208D01*
X177979605Y-99060000D01*
X177620395Y-99060000D01*
X176771603Y-98211208D01*
X176530000Y-98286514D01*
X176288397Y-98211208D01*
X175439605Y-99060000D01*
X175080395Y-99060000D01*
X174231603Y-98211208D01*
X173982528Y-98288843D01*
X173856629Y-98552883D01*
X173784661Y-98836411D01*
X173769389Y-99128531D01*
X164043445Y-99128531D01*
X164050611Y-98991469D01*
X164008599Y-98701981D01*
X163910919Y-98426253D01*
X163837472Y-98288843D01*
X163588397Y-98211208D01*
X162739605Y-99060000D01*
X162380395Y-99060000D01*
X161531603Y-98211208D01*
X161290000Y-98286514D01*
X161048397Y-98211208D01*
X160199605Y-99060000D01*
X159840395Y-99060000D01*
X158991603Y-98211208D01*
X158742528Y-98288843D01*
X158616629Y-98552883D01*
X158544661Y-98836411D01*
X158529389Y-99128531D01*
X148803445Y-99128531D01*
X148810611Y-98991469D01*
X148768599Y-98701981D01*
X148670919Y-98426253D01*
X148597472Y-98288843D01*
X148348397Y-98211208D01*
X147499605Y-99060000D01*
X147140395Y-99060000D01*
X146291603Y-98211208D01*
X146050000Y-98286514D01*
X145808397Y-98211208D01*
X144959605Y-99060000D01*
X144600395Y-99060000D01*
X143751603Y-98211208D01*
X143502528Y-98288843D01*
X143376629Y-98552883D01*
X143304661Y-98836411D01*
X143289389Y-99128531D01*
X133563445Y-99128531D01*
X133570611Y-98991469D01*
X133528599Y-98701981D01*
X133430919Y-98426253D01*
X133357472Y-98288843D01*
X133108397Y-98211208D01*
X132259605Y-99060000D01*
X131900395Y-99060000D01*
X131051603Y-98211208D01*
X130810000Y-98286514D01*
X130568397Y-98211208D01*
X129719605Y-99060000D01*
X129360395Y-99060000D01*
X128511603Y-98211208D01*
X128262528Y-98288843D01*
X128136629Y-98552883D01*
X128064661Y-98836411D01*
X128049389Y-99128531D01*
X118323445Y-99128531D01*
X118330611Y-98991469D01*
X118288599Y-98701981D01*
X118190919Y-98426253D01*
X118117472Y-98288843D01*
X117868397Y-98211208D01*
X117019605Y-99060000D01*
X116660395Y-99060000D01*
X115811603Y-98211208D01*
X115570000Y-98286514D01*
X115328397Y-98211208D01*
X114479605Y-99060000D01*
X114120395Y-99060000D01*
X113271603Y-98211208D01*
X113022528Y-98288843D01*
X112896629Y-98552883D01*
X112824661Y-98836411D01*
X112809389Y-99128531D01*
X103083445Y-99128531D01*
X103090611Y-98991469D01*
X103048599Y-98701981D01*
X102950919Y-98426253D01*
X102877472Y-98288843D01*
X102628397Y-98211208D01*
X101779605Y-99060000D01*
X101420395Y-99060000D01*
X100571603Y-98211208D01*
X100330000Y-98286514D01*
X100088397Y-98211208D01*
X99239605Y-99060000D01*
X98880395Y-99060000D01*
X98031603Y-98211208D01*
X97782528Y-98288843D01*
X97656629Y-98552883D01*
X97584661Y-98836411D01*
X97569389Y-99128531D01*
X97180000Y-99128531D01*
X97180000Y-97548397D01*
X98211208Y-97548397D01*
X98286514Y-97790000D01*
X98211208Y-98031603D01*
X99060000Y-98880395D01*
X99908792Y-98031603D01*
X99833486Y-97790000D01*
X99908792Y-97548397D01*
X100751208Y-97548397D01*
X100826514Y-97790000D01*
X100751208Y-98031603D01*
X101600000Y-98880395D01*
X102448792Y-98031603D01*
X102373486Y-97790000D01*
X102448792Y-97548397D01*
X113451208Y-97548397D01*
X113526514Y-97790000D01*
X113451208Y-98031603D01*
X114300000Y-98880395D01*
X115148792Y-98031603D01*
X115073486Y-97790000D01*
X115148792Y-97548397D01*
X115991208Y-97548397D01*
X116066514Y-97790000D01*
X115991208Y-98031603D01*
X116840000Y-98880395D01*
X117688792Y-98031603D01*
X117613486Y-97790000D01*
X117688792Y-97548397D01*
X128691208Y-97548397D01*
X128766514Y-97790000D01*
X128691208Y-98031603D01*
X129540000Y-98880395D01*
X130388792Y-98031603D01*
X130313486Y-97790000D01*
X130388792Y-97548397D01*
X131231208Y-97548397D01*
X131306514Y-97790000D01*
X131231208Y-98031603D01*
X132080000Y-98880395D01*
X132928792Y-98031603D01*
X132853486Y-97790000D01*
X132928792Y-97548397D01*
X143931208Y-97548397D01*
X144006514Y-97790000D01*
X143931208Y-98031603D01*
X144780000Y-98880395D01*
X145628792Y-98031603D01*
X145553486Y-97790000D01*
X145628792Y-97548397D01*
X146471208Y-97548397D01*
X146546514Y-97790000D01*
X146471208Y-98031603D01*
X147320000Y-98880395D01*
X148168792Y-98031603D01*
X148093486Y-97790000D01*
X148168792Y-97548397D01*
X159171208Y-97548397D01*
X159246514Y-97790000D01*
X159171208Y-98031603D01*
X160020000Y-98880395D01*
X160868792Y-98031603D01*
X160793486Y-97790000D01*
X160868792Y-97548397D01*
X161711208Y-97548397D01*
X161786514Y-97790000D01*
X161711208Y-98031603D01*
X162560000Y-98880395D01*
X163408792Y-98031603D01*
X163333486Y-97790000D01*
X163408792Y-97548397D01*
X174411208Y-97548397D01*
X174486514Y-97790000D01*
X174411208Y-98031603D01*
X175260000Y-98880395D01*
X176108792Y-98031603D01*
X176033486Y-97790000D01*
X176108792Y-97548397D01*
X176951208Y-97548397D01*
X177026514Y-97790000D01*
X176951208Y-98031603D01*
X177800000Y-98880395D01*
X178648792Y-98031603D01*
X178573486Y-97790000D01*
X178648792Y-97548397D01*
X189651208Y-97548397D01*
X189726514Y-97790000D01*
X189651208Y-98031603D01*
X190500000Y-98880395D01*
X191348792Y-98031603D01*
X191273486Y-97790000D01*
X191348792Y-97548397D01*
X192191208Y-97548397D01*
X192266514Y-97790000D01*
X192191208Y-98031603D01*
X193040000Y-98880395D01*
X193888792Y-98031603D01*
X193813486Y-97790000D01*
X193888792Y-97548397D01*
X193040000Y-96699605D01*
X192191208Y-97548397D01*
X191348792Y-97548397D01*
X190500000Y-96699605D01*
X189651208Y-97548397D01*
X178648792Y-97548397D01*
X177800000Y-96699605D01*
X176951208Y-97548397D01*
X176108792Y-97548397D01*
X175260000Y-96699605D01*
X174411208Y-97548397D01*
X163408792Y-97548397D01*
X162560000Y-96699605D01*
X161711208Y-97548397D01*
X160868792Y-97548397D01*
X160020000Y-96699605D01*
X159171208Y-97548397D01*
X148168792Y-97548397D01*
X147320000Y-96699605D01*
X146471208Y-97548397D01*
X145628792Y-97548397D01*
X144780000Y-96699605D01*
X143931208Y-97548397D01*
X132928792Y-97548397D01*
X132080000Y-96699605D01*
X131231208Y-97548397D01*
X130388792Y-97548397D01*
X129540000Y-96699605D01*
X128691208Y-97548397D01*
X117688792Y-97548397D01*
X116840000Y-96699605D01*
X115991208Y-97548397D01*
X115148792Y-97548397D01*
X114300000Y-96699605D01*
X113451208Y-97548397D01*
X102448792Y-97548397D01*
X101600000Y-96699605D01*
X100751208Y-97548397D01*
X99908792Y-97548397D01*
X99060000Y-96699605D01*
X98211208Y-97548397D01*
X97180000Y-97548397D01*
X97180000Y-96588531D01*
X97569389Y-96588531D01*
X97611401Y-96878019D01*
X97709081Y-97153747D01*
X97782528Y-97291157D01*
X98031603Y-97368792D01*
X98880395Y-96520000D01*
X99239605Y-96520000D01*
X100088397Y-97368792D01*
X100330000Y-97293486D01*
X100571603Y-97368792D01*
X101420395Y-96520000D01*
X101779605Y-96520000D01*
X102628397Y-97368792D01*
X102877472Y-97291157D01*
X103003371Y-97027117D01*
X103075339Y-96743589D01*
X103083445Y-96588531D01*
X112809389Y-96588531D01*
X112851401Y-96878019D01*
X112949081Y-97153747D01*
X113022528Y-97291157D01*
X113271603Y-97368792D01*
X114120395Y-96520000D01*
X114479605Y-96520000D01*
X115328397Y-97368792D01*
X115570000Y-97293486D01*
X115811603Y-97368792D01*
X116660395Y-96520000D01*
X117019605Y-96520000D01*
X117868397Y-97368792D01*
X118117472Y-97291157D01*
X118243371Y-97027117D01*
X118315339Y-96743589D01*
X118323445Y-96588531D01*
X128049389Y-96588531D01*
X128091401Y-96878019D01*
X128189081Y-97153747D01*
X128262528Y-97291157D01*
X128511603Y-97368792D01*
X129360395Y-96520000D01*
X129719605Y-96520000D01*
X130568397Y-97368792D01*
X130810000Y-97293486D01*
X131051603Y-97368792D01*
X131900395Y-96520000D01*
X132259605Y-96520000D01*
X133108397Y-97368792D01*
X133357472Y-97291157D01*
X133483371Y-97027117D01*
X133555339Y-96743589D01*
X133563445Y-96588531D01*
X143289389Y-96588531D01*
X143331401Y-96878019D01*
X143429081Y-97153747D01*
X143502528Y-97291157D01*
X143751603Y-97368792D01*
X144600395Y-96520000D01*
X144959605Y-96520000D01*
X145808397Y-97368792D01*
X146050000Y-97293486D01*
X146291603Y-97368792D01*
X147140395Y-96520000D01*
X147499605Y-96520000D01*
X148348397Y-97368792D01*
X148597472Y-97291157D01*
X148723371Y-97027117D01*
X148795339Y-96743589D01*
X148803445Y-96588531D01*
X158529389Y-96588531D01*
X158571401Y-96878019D01*
X158669081Y-97153747D01*
X158742528Y-97291157D01*
X158991603Y-97368792D01*
X159840395Y-96520000D01*
X160199605Y-96520000D01*
X161048397Y-97368792D01*
X161290000Y-97293486D01*
X161531603Y-97368792D01*
X162380395Y-96520000D01*
X162739605Y-96520000D01*
X163588397Y-97368792D01*
X163837472Y-97291157D01*
X163963371Y-97027117D01*
X164035339Y-96743589D01*
X164043445Y-96588531D01*
X173769389Y-96588531D01*
X173811401Y-96878019D01*
X173909081Y-97153747D01*
X173982528Y-97291157D01*
X174231603Y-97368792D01*
X175080395Y-96520000D01*
X175439605Y-96520000D01*
X176288397Y-97368792D01*
X176530000Y-97293486D01*
X176771603Y-97368792D01*
X177620395Y-96520000D01*
X177979605Y-96520000D01*
X178828397Y-97368792D01*
X179077472Y-97291157D01*
X179203371Y-97027117D01*
X179275339Y-96743589D01*
X179283445Y-96588531D01*
X189009389Y-96588531D01*
X189051401Y-96878019D01*
X189149081Y-97153747D01*
X189222528Y-97291157D01*
X189471603Y-97368792D01*
X190320395Y-96520000D01*
X190679605Y-96520000D01*
X191528397Y-97368792D01*
X191770000Y-97293486D01*
X192011603Y-97368792D01*
X192860395Y-96520000D01*
X193219605Y-96520000D01*
X194068397Y-97368792D01*
X194317472Y-97291157D01*
X194443371Y-97027117D01*
X194515339Y-96743589D01*
X194530611Y-96451469D01*
X194488599Y-96161981D01*
X194390919Y-95886253D01*
X194317472Y-95748843D01*
X194068397Y-95671208D01*
X193219605Y-96520000D01*
X192860395Y-96520000D01*
X192011603Y-95671208D01*
X191770000Y-95746514D01*
X191528397Y-95671208D01*
X190679605Y-96520000D01*
X190320395Y-96520000D01*
X189471603Y-95671208D01*
X189222528Y-95748843D01*
X189096629Y-96012883D01*
X189024661Y-96296411D01*
X189009389Y-96588531D01*
X179283445Y-96588531D01*
X179290611Y-96451469D01*
X179248599Y-96161981D01*
X179150919Y-95886253D01*
X179077472Y-95748843D01*
X178828397Y-95671208D01*
X177979605Y-96520000D01*
X177620395Y-96520000D01*
X176771603Y-95671208D01*
X176530000Y-95746514D01*
X176288397Y-95671208D01*
X175439605Y-96520000D01*
X175080395Y-96520000D01*
X174231603Y-95671208D01*
X173982528Y-95748843D01*
X173856629Y-96012883D01*
X173784661Y-96296411D01*
X173769389Y-96588531D01*
X164043445Y-96588531D01*
X164050611Y-96451469D01*
X164008599Y-96161981D01*
X163910919Y-95886253D01*
X163837472Y-95748843D01*
X163588397Y-95671208D01*
X162739605Y-96520000D01*
X162380395Y-96520000D01*
X161531603Y-95671208D01*
X161290000Y-95746514D01*
X161048397Y-95671208D01*
X160199605Y-96520000D01*
X159840395Y-96520000D01*
X158991603Y-95671208D01*
X158742528Y-95748843D01*
X158616629Y-96012883D01*
X158544661Y-96296411D01*
X158529389Y-96588531D01*
X148803445Y-96588531D01*
X148810611Y-96451469D01*
X148768599Y-96161981D01*
X148670919Y-95886253D01*
X148597472Y-95748843D01*
X148348397Y-95671208D01*
X147499605Y-96520000D01*
X147140395Y-96520000D01*
X146291603Y-95671208D01*
X146050000Y-95746514D01*
X145808397Y-95671208D01*
X144959605Y-96520000D01*
X144600395Y-96520000D01*
X143751603Y-95671208D01*
X143502528Y-95748843D01*
X143376629Y-96012883D01*
X143304661Y-96296411D01*
X143289389Y-96588531D01*
X133563445Y-96588531D01*
X133570611Y-96451469D01*
X133528599Y-96161981D01*
X133430919Y-95886253D01*
X133357472Y-95748843D01*
X133108397Y-95671208D01*
X132259605Y-96520000D01*
X131900395Y-96520000D01*
X131051603Y-95671208D01*
X130810000Y-95746514D01*
X130568397Y-95671208D01*
X129719605Y-96520000D01*
X129360395Y-96520000D01*
X128511603Y-95671208D01*
X128262528Y-95748843D01*
X128136629Y-96012883D01*
X128064661Y-96296411D01*
X128049389Y-96588531D01*
X118323445Y-96588531D01*
X118330611Y-96451469D01*
X118288599Y-96161981D01*
X118190919Y-95886253D01*
X118117472Y-95748843D01*
X117868397Y-95671208D01*
X117019605Y-96520000D01*
X116660395Y-96520000D01*
X115811603Y-95671208D01*
X115570000Y-95746514D01*
X115328397Y-95671208D01*
X114479605Y-96520000D01*
X114120395Y-96520000D01*
X113271603Y-95671208D01*
X113022528Y-95748843D01*
X112896629Y-96012883D01*
X112824661Y-96296411D01*
X112809389Y-96588531D01*
X103083445Y-96588531D01*
X103090611Y-96451469D01*
X103048599Y-96161981D01*
X102950919Y-95886253D01*
X102877472Y-95748843D01*
X102628397Y-95671208D01*
X101779605Y-96520000D01*
X101420395Y-96520000D01*
X100571603Y-95671208D01*
X100330000Y-95746514D01*
X100088397Y-95671208D01*
X99239605Y-96520000D01*
X98880395Y-96520000D01*
X98031603Y-95671208D01*
X97782528Y-95748843D01*
X97656629Y-96012883D01*
X97584661Y-96296411D01*
X97569389Y-96588531D01*
X97180000Y-96588531D01*
X97180000Y-95008397D01*
X98211208Y-95008397D01*
X98286514Y-95250000D01*
X98211208Y-95491603D01*
X99060000Y-96340395D01*
X99908792Y-95491603D01*
X99833486Y-95250000D01*
X99908792Y-95008397D01*
X100751208Y-95008397D01*
X100826514Y-95250000D01*
X100751208Y-95491603D01*
X101600000Y-96340395D01*
X102448792Y-95491603D01*
X102373486Y-95250000D01*
X102448792Y-95008397D01*
X113451208Y-95008397D01*
X113526514Y-95250000D01*
X113451208Y-95491603D01*
X114300000Y-96340395D01*
X115148792Y-95491603D01*
X115073486Y-95250000D01*
X115148792Y-95008397D01*
X115991208Y-95008397D01*
X116066514Y-95250000D01*
X115991208Y-95491603D01*
X116840000Y-96340395D01*
X117688792Y-95491603D01*
X117613486Y-95250000D01*
X117688792Y-95008397D01*
X128691208Y-95008397D01*
X128766514Y-95250000D01*
X128691208Y-95491603D01*
X129540000Y-96340395D01*
X130388792Y-95491603D01*
X130313486Y-95250000D01*
X130388792Y-95008397D01*
X131231208Y-95008397D01*
X131306514Y-95250000D01*
X131231208Y-95491603D01*
X132080000Y-96340395D01*
X132928792Y-95491603D01*
X132853486Y-95250000D01*
X132928792Y-95008397D01*
X143931208Y-95008397D01*
X144006514Y-95250000D01*
X143931208Y-95491603D01*
X144780000Y-96340395D01*
X145628792Y-95491603D01*
X145553486Y-95250000D01*
X145628792Y-95008397D01*
X146471208Y-95008397D01*
X146546514Y-95250000D01*
X146471208Y-95491603D01*
X147320000Y-96340395D01*
X148168792Y-95491603D01*
X148093486Y-95250000D01*
X148168792Y-95008397D01*
X159171208Y-95008397D01*
X159246514Y-95250000D01*
X159171208Y-95491603D01*
X160020000Y-96340395D01*
X160868792Y-95491603D01*
X160793486Y-95250000D01*
X160868792Y-95008397D01*
X161711208Y-95008397D01*
X161786514Y-95250000D01*
X161711208Y-95491603D01*
X162560000Y-96340395D01*
X163408792Y-95491603D01*
X163333486Y-95250000D01*
X163408792Y-95008397D01*
X174411208Y-95008397D01*
X174486514Y-95250000D01*
X174411208Y-95491603D01*
X175260000Y-96340395D01*
X176108792Y-95491603D01*
X176033486Y-95250000D01*
X176108792Y-95008397D01*
X176951208Y-95008397D01*
X177026514Y-95250000D01*
X176951208Y-95491603D01*
X177800000Y-96340395D01*
X178648792Y-95491603D01*
X178573486Y-95250000D01*
X178648792Y-95008397D01*
X189651208Y-95008397D01*
X189726514Y-95250000D01*
X189651208Y-95491603D01*
X190500000Y-96340395D01*
X191348792Y-95491603D01*
X191273486Y-95250000D01*
X191348792Y-95008397D01*
X192191208Y-95008397D01*
X192266514Y-95250000D01*
X192191208Y-95491603D01*
X193040000Y-96340395D01*
X193888792Y-95491603D01*
X193813486Y-95250000D01*
X193888792Y-95008397D01*
X193040000Y-94159605D01*
X192191208Y-95008397D01*
X191348792Y-95008397D01*
X190500000Y-94159605D01*
X189651208Y-95008397D01*
X178648792Y-95008397D01*
X177800000Y-94159605D01*
X176951208Y-95008397D01*
X176108792Y-95008397D01*
X175260000Y-94159605D01*
X174411208Y-95008397D01*
X163408792Y-95008397D01*
X162560000Y-94159605D01*
X161711208Y-95008397D01*
X160868792Y-95008397D01*
X160020000Y-94159605D01*
X159171208Y-95008397D01*
X148168792Y-95008397D01*
X147320000Y-94159605D01*
X146471208Y-95008397D01*
X145628792Y-95008397D01*
X144780000Y-94159605D01*
X143931208Y-95008397D01*
X132928792Y-95008397D01*
X132080000Y-94159605D01*
X131231208Y-95008397D01*
X130388792Y-95008397D01*
X129540000Y-94159605D01*
X128691208Y-95008397D01*
X117688792Y-95008397D01*
X116840000Y-94159605D01*
X115991208Y-95008397D01*
X115148792Y-95008397D01*
X114300000Y-94159605D01*
X113451208Y-95008397D01*
X102448792Y-95008397D01*
X101600000Y-94159605D01*
X100751208Y-95008397D01*
X99908792Y-95008397D01*
X99060000Y-94159605D01*
X98211208Y-95008397D01*
X97180000Y-95008397D01*
X97180000Y-94048531D01*
X97569389Y-94048531D01*
X97611401Y-94338019D01*
X97709081Y-94613747D01*
X97782528Y-94751157D01*
X98031603Y-94828792D01*
X98880395Y-93980000D01*
X99239605Y-93980000D01*
X100088397Y-94828792D01*
X100330000Y-94753486D01*
X100571603Y-94828792D01*
X101420395Y-93980000D01*
X101779605Y-93980000D01*
X102628397Y-94828792D01*
X102877472Y-94751157D01*
X103003371Y-94487117D01*
X103075339Y-94203589D01*
X103083445Y-94048531D01*
X112809389Y-94048531D01*
X112851401Y-94338019D01*
X112949081Y-94613747D01*
X113022528Y-94751157D01*
X113271603Y-94828792D01*
X114120395Y-93980000D01*
X114479605Y-93980000D01*
X115328397Y-94828792D01*
X115570000Y-94753486D01*
X115811603Y-94828792D01*
X116660395Y-93980000D01*
X117019605Y-93980000D01*
X117868397Y-94828792D01*
X118117472Y-94751157D01*
X118243371Y-94487117D01*
X118315339Y-94203589D01*
X118323445Y-94048531D01*
X128049389Y-94048531D01*
X128091401Y-94338019D01*
X128189081Y-94613747D01*
X128262528Y-94751157D01*
X128511603Y-94828792D01*
X129360395Y-93980000D01*
X129719605Y-93980000D01*
X130568397Y-94828792D01*
X130810000Y-94753486D01*
X131051603Y-94828792D01*
X131900395Y-93980000D01*
X132259605Y-93980000D01*
X133108397Y-94828792D01*
X133357472Y-94751157D01*
X133483371Y-94487117D01*
X133555339Y-94203589D01*
X133563445Y-94048531D01*
X143289389Y-94048531D01*
X143331401Y-94338019D01*
X143429081Y-94613747D01*
X143502528Y-94751157D01*
X143751603Y-94828792D01*
X144600395Y-93980000D01*
X144959605Y-93980000D01*
X145808397Y-94828792D01*
X146050000Y-94753486D01*
X146291603Y-94828792D01*
X147140395Y-93980000D01*
X147499605Y-93980000D01*
X148348397Y-94828792D01*
X148597472Y-94751157D01*
X148723371Y-94487117D01*
X148795339Y-94203589D01*
X148803445Y-94048531D01*
X158529389Y-94048531D01*
X158571401Y-94338019D01*
X158669081Y-94613747D01*
X158742528Y-94751157D01*
X158991603Y-94828792D01*
X159840395Y-93980000D01*
X160199605Y-93980000D01*
X161048397Y-94828792D01*
X161290000Y-94753486D01*
X161531603Y-94828792D01*
X162380395Y-93980000D01*
X162739605Y-93980000D01*
X163588397Y-94828792D01*
X163837472Y-94751157D01*
X163963371Y-94487117D01*
X164035339Y-94203589D01*
X164043445Y-94048531D01*
X173769389Y-94048531D01*
X173811401Y-94338019D01*
X173909081Y-94613747D01*
X173982528Y-94751157D01*
X174231603Y-94828792D01*
X175080395Y-93980000D01*
X175439605Y-93980000D01*
X176288397Y-94828792D01*
X176530000Y-94753486D01*
X176771603Y-94828792D01*
X177620395Y-93980000D01*
X177979605Y-93980000D01*
X178828397Y-94828792D01*
X179077472Y-94751157D01*
X179203371Y-94487117D01*
X179275339Y-94203589D01*
X179283445Y-94048531D01*
X189009389Y-94048531D01*
X189051401Y-94338019D01*
X189149081Y-94613747D01*
X189222528Y-94751157D01*
X189471603Y-94828792D01*
X190320395Y-93980000D01*
X190679605Y-93980000D01*
X191528397Y-94828792D01*
X191770000Y-94753486D01*
X192011603Y-94828792D01*
X192860395Y-93980000D01*
X193219605Y-93980000D01*
X194068397Y-94828792D01*
X194317472Y-94751157D01*
X194443371Y-94487117D01*
X194515339Y-94203589D01*
X194530611Y-93911469D01*
X194488599Y-93621981D01*
X194390919Y-93346253D01*
X194317472Y-93208843D01*
X194068397Y-93131208D01*
X193219605Y-93980000D01*
X192860395Y-93980000D01*
X192011603Y-93131208D01*
X191770000Y-93206514D01*
X191528397Y-93131208D01*
X190679605Y-93980000D01*
X190320395Y-93980000D01*
X189471603Y-93131208D01*
X189222528Y-93208843D01*
X189096629Y-93472883D01*
X189024661Y-93756411D01*
X189009389Y-94048531D01*
X179283445Y-94048531D01*
X179290611Y-93911469D01*
X179248599Y-93621981D01*
X179150919Y-93346253D01*
X179077472Y-93208843D01*
X178828397Y-93131208D01*
X177979605Y-93980000D01*
X177620395Y-93980000D01*
X176771603Y-93131208D01*
X176530000Y-93206514D01*
X176288397Y-93131208D01*
X175439605Y-93980000D01*
X175080395Y-93980000D01*
X174231603Y-93131208D01*
X173982528Y-93208843D01*
X173856629Y-93472883D01*
X173784661Y-93756411D01*
X173769389Y-94048531D01*
X164043445Y-94048531D01*
X164050611Y-93911469D01*
X164008599Y-93621981D01*
X163910919Y-93346253D01*
X163837472Y-93208843D01*
X163588397Y-93131208D01*
X162739605Y-93980000D01*
X162380395Y-93980000D01*
X161531603Y-93131208D01*
X161290000Y-93206514D01*
X161048397Y-93131208D01*
X160199605Y-93980000D01*
X159840395Y-93980000D01*
X158991603Y-93131208D01*
X158742528Y-93208843D01*
X158616629Y-93472883D01*
X158544661Y-93756411D01*
X158529389Y-94048531D01*
X148803445Y-94048531D01*
X148810611Y-93911469D01*
X148768599Y-93621981D01*
X148670919Y-93346253D01*
X148597472Y-93208843D01*
X148348397Y-93131208D01*
X147499605Y-93980000D01*
X147140395Y-93980000D01*
X146291603Y-93131208D01*
X146050000Y-93206514D01*
X145808397Y-93131208D01*
X144959605Y-93980000D01*
X144600395Y-93980000D01*
X143751603Y-93131208D01*
X143502528Y-93208843D01*
X143376629Y-93472883D01*
X143304661Y-93756411D01*
X143289389Y-94048531D01*
X133563445Y-94048531D01*
X133570611Y-93911469D01*
X133528599Y-93621981D01*
X133430919Y-93346253D01*
X133357472Y-93208843D01*
X133108397Y-93131208D01*
X132259605Y-93980000D01*
X131900395Y-93980000D01*
X131051603Y-93131208D01*
X130810000Y-93206514D01*
X130568397Y-93131208D01*
X129719605Y-93980000D01*
X129360395Y-93980000D01*
X128511603Y-93131208D01*
X128262528Y-93208843D01*
X128136629Y-93472883D01*
X128064661Y-93756411D01*
X128049389Y-94048531D01*
X118323445Y-94048531D01*
X118330611Y-93911469D01*
X118288599Y-93621981D01*
X118190919Y-93346253D01*
X118117472Y-93208843D01*
X117868397Y-93131208D01*
X117019605Y-93980000D01*
X116660395Y-93980000D01*
X115811603Y-93131208D01*
X115570000Y-93206514D01*
X115328397Y-93131208D01*
X114479605Y-93980000D01*
X114120395Y-93980000D01*
X113271603Y-93131208D01*
X113022528Y-93208843D01*
X112896629Y-93472883D01*
X112824661Y-93756411D01*
X112809389Y-94048531D01*
X103083445Y-94048531D01*
X103090611Y-93911469D01*
X103048599Y-93621981D01*
X102950919Y-93346253D01*
X102877472Y-93208843D01*
X102628397Y-93131208D01*
X101779605Y-93980000D01*
X101420395Y-93980000D01*
X100571603Y-93131208D01*
X100330000Y-93206514D01*
X100088397Y-93131208D01*
X99239605Y-93980000D01*
X98880395Y-93980000D01*
X98031603Y-93131208D01*
X97782528Y-93208843D01*
X97656629Y-93472883D01*
X97584661Y-93756411D01*
X97569389Y-94048531D01*
X97180000Y-94048531D01*
X97180000Y-83673740D01*
X97575000Y-83673740D01*
X97575000Y-83966260D01*
X97632068Y-84253158D01*
X97744010Y-84523411D01*
X97906525Y-84766632D01*
X98113368Y-84973475D01*
X98287760Y-85090000D01*
X98113368Y-85206525D01*
X97906525Y-85413368D01*
X97744010Y-85656589D01*
X97632068Y-85926842D01*
X97575000Y-86213740D01*
X97575000Y-86506260D01*
X97632068Y-86793158D01*
X97744010Y-87063411D01*
X97906525Y-87306632D01*
X98113368Y-87513475D01*
X98287760Y-87630000D01*
X98113368Y-87746525D01*
X97906525Y-87953368D01*
X97744010Y-88196589D01*
X97632068Y-88466842D01*
X97575000Y-88753740D01*
X97575000Y-89046260D01*
X97632068Y-89333158D01*
X97744010Y-89603411D01*
X97906525Y-89846632D01*
X98113368Y-90053475D01*
X98287760Y-90170000D01*
X98113368Y-90286525D01*
X97906525Y-90493368D01*
X97744010Y-90736589D01*
X97632068Y-91006842D01*
X97575000Y-91293740D01*
X97575000Y-91586260D01*
X97632068Y-91873158D01*
X97744010Y-92143411D01*
X97906525Y-92386632D01*
X98113368Y-92593475D01*
X98286729Y-92709311D01*
X98211208Y-92951603D01*
X99060000Y-93800395D01*
X99908792Y-92951603D01*
X99833271Y-92709311D01*
X100006632Y-92593475D01*
X100213475Y-92386632D01*
X100330000Y-92212240D01*
X100446525Y-92386632D01*
X100653368Y-92593475D01*
X100826729Y-92709311D01*
X100751208Y-92951603D01*
X101600000Y-93800395D01*
X102448792Y-92951603D01*
X102373271Y-92709311D01*
X102546632Y-92593475D01*
X102753475Y-92386632D01*
X102915990Y-92143411D01*
X103027932Y-91873158D01*
X103085000Y-91586260D01*
X103085000Y-91293740D01*
X103027932Y-91006842D01*
X102915990Y-90736589D01*
X102753475Y-90493368D01*
X102546632Y-90286525D01*
X102372240Y-90170000D01*
X102546632Y-90053475D01*
X102753475Y-89846632D01*
X102915990Y-89603411D01*
X103027932Y-89333158D01*
X103085000Y-89046260D01*
X103085000Y-88753740D01*
X103027932Y-88466842D01*
X102915990Y-88196589D01*
X102753475Y-87953368D01*
X102546632Y-87746525D01*
X102372240Y-87630000D01*
X102546632Y-87513475D01*
X102753475Y-87306632D01*
X102915990Y-87063411D01*
X103027932Y-86793158D01*
X103085000Y-86506260D01*
X103085000Y-86213740D01*
X103027932Y-85926842D01*
X102915990Y-85656589D01*
X102753475Y-85413368D01*
X102546632Y-85206525D01*
X102372240Y-85090000D01*
X102546632Y-84973475D01*
X102753475Y-84766632D01*
X102915990Y-84523411D01*
X103027932Y-84253158D01*
X103085000Y-83966260D01*
X103085000Y-83673740D01*
X112815000Y-83673740D01*
X112815000Y-83966260D01*
X112872068Y-84253158D01*
X112984010Y-84523411D01*
X113146525Y-84766632D01*
X113353368Y-84973475D01*
X113527760Y-85090000D01*
X113353368Y-85206525D01*
X113146525Y-85413368D01*
X112984010Y-85656589D01*
X112872068Y-85926842D01*
X112815000Y-86213740D01*
X112815000Y-86506260D01*
X112872068Y-86793158D01*
X112984010Y-87063411D01*
X113146525Y-87306632D01*
X113353368Y-87513475D01*
X113527760Y-87630000D01*
X113353368Y-87746525D01*
X113146525Y-87953368D01*
X112984010Y-88196589D01*
X112872068Y-88466842D01*
X112815000Y-88753740D01*
X112815000Y-89046260D01*
X112872068Y-89333158D01*
X112984010Y-89603411D01*
X113146525Y-89846632D01*
X113353368Y-90053475D01*
X113527760Y-90170000D01*
X113353368Y-90286525D01*
X113146525Y-90493368D01*
X112984010Y-90736589D01*
X112872068Y-91006842D01*
X112815000Y-91293740D01*
X112815000Y-91586260D01*
X112872068Y-91873158D01*
X112984010Y-92143411D01*
X113146525Y-92386632D01*
X113353368Y-92593475D01*
X113526729Y-92709311D01*
X113451208Y-92951603D01*
X114300000Y-93800395D01*
X115148792Y-92951603D01*
X115073271Y-92709311D01*
X115246632Y-92593475D01*
X115453475Y-92386632D01*
X115570000Y-92212240D01*
X115686525Y-92386632D01*
X115893368Y-92593475D01*
X116066729Y-92709311D01*
X115991208Y-92951603D01*
X116840000Y-93800395D01*
X117688792Y-92951603D01*
X117613271Y-92709311D01*
X117786632Y-92593475D01*
X117993475Y-92386632D01*
X118155990Y-92143411D01*
X118267932Y-91873158D01*
X118325000Y-91586260D01*
X118325000Y-91293740D01*
X118267932Y-91006842D01*
X118155990Y-90736589D01*
X117993475Y-90493368D01*
X117786632Y-90286525D01*
X117612240Y-90170000D01*
X117786632Y-90053475D01*
X117993475Y-89846632D01*
X118155990Y-89603411D01*
X118267932Y-89333158D01*
X118325000Y-89046260D01*
X118325000Y-88753740D01*
X118267932Y-88466842D01*
X118155990Y-88196589D01*
X117993475Y-87953368D01*
X117786632Y-87746525D01*
X117612240Y-87630000D01*
X117786632Y-87513475D01*
X117993475Y-87306632D01*
X118155990Y-87063411D01*
X118267932Y-86793158D01*
X118325000Y-86506260D01*
X118325000Y-86213740D01*
X118267932Y-85926842D01*
X118155990Y-85656589D01*
X117993475Y-85413368D01*
X117786632Y-85206525D01*
X117612240Y-85090000D01*
X117786632Y-84973475D01*
X117993475Y-84766632D01*
X118155990Y-84523411D01*
X118267932Y-84253158D01*
X118325000Y-83966260D01*
X118325000Y-83673740D01*
X128055000Y-83673740D01*
X128055000Y-83966260D01*
X128112068Y-84253158D01*
X128224010Y-84523411D01*
X128386525Y-84766632D01*
X128593368Y-84973475D01*
X128767760Y-85090000D01*
X128593368Y-85206525D01*
X128386525Y-85413368D01*
X128224010Y-85656589D01*
X128112068Y-85926842D01*
X128055000Y-86213740D01*
X128055000Y-86506260D01*
X128112068Y-86793158D01*
X128224010Y-87063411D01*
X128386525Y-87306632D01*
X128593368Y-87513475D01*
X128767760Y-87630000D01*
X128593368Y-87746525D01*
X128386525Y-87953368D01*
X128224010Y-88196589D01*
X128112068Y-88466842D01*
X128055000Y-88753740D01*
X128055000Y-89046260D01*
X128112068Y-89333158D01*
X128224010Y-89603411D01*
X128386525Y-89846632D01*
X128593368Y-90053475D01*
X128767760Y-90170000D01*
X128593368Y-90286525D01*
X128386525Y-90493368D01*
X128224010Y-90736589D01*
X128112068Y-91006842D01*
X128055000Y-91293740D01*
X128055000Y-91586260D01*
X128112068Y-91873158D01*
X128224010Y-92143411D01*
X128386525Y-92386632D01*
X128593368Y-92593475D01*
X128766729Y-92709311D01*
X128691208Y-92951603D01*
X129540000Y-93800395D01*
X130388792Y-92951603D01*
X130313271Y-92709311D01*
X130486632Y-92593475D01*
X130693475Y-92386632D01*
X130810000Y-92212240D01*
X130926525Y-92386632D01*
X131133368Y-92593475D01*
X131306729Y-92709311D01*
X131231208Y-92951603D01*
X132080000Y-93800395D01*
X132928792Y-92951603D01*
X132853271Y-92709311D01*
X133026632Y-92593475D01*
X133233475Y-92386632D01*
X133395990Y-92143411D01*
X133507932Y-91873158D01*
X133565000Y-91586260D01*
X133565000Y-91293740D01*
X133507932Y-91006842D01*
X133395990Y-90736589D01*
X133233475Y-90493368D01*
X133026632Y-90286525D01*
X132852240Y-90170000D01*
X133026632Y-90053475D01*
X133233475Y-89846632D01*
X133395990Y-89603411D01*
X133507932Y-89333158D01*
X133565000Y-89046260D01*
X133565000Y-88753740D01*
X133507932Y-88466842D01*
X133395990Y-88196589D01*
X133233475Y-87953368D01*
X133026632Y-87746525D01*
X132852240Y-87630000D01*
X133026632Y-87513475D01*
X133233475Y-87306632D01*
X133395990Y-87063411D01*
X133507932Y-86793158D01*
X133565000Y-86506260D01*
X133565000Y-86213740D01*
X133507932Y-85926842D01*
X133395990Y-85656589D01*
X133233475Y-85413368D01*
X133026632Y-85206525D01*
X132852240Y-85090000D01*
X133026632Y-84973475D01*
X133233475Y-84766632D01*
X133395990Y-84523411D01*
X133507932Y-84253158D01*
X133565000Y-83966260D01*
X133565000Y-83673740D01*
X143295000Y-83673740D01*
X143295000Y-83966260D01*
X143352068Y-84253158D01*
X143464010Y-84523411D01*
X143626525Y-84766632D01*
X143833368Y-84973475D01*
X144007760Y-85090000D01*
X143833368Y-85206525D01*
X143626525Y-85413368D01*
X143464010Y-85656589D01*
X143352068Y-85926842D01*
X143295000Y-86213740D01*
X143295000Y-86506260D01*
X143352068Y-86793158D01*
X143464010Y-87063411D01*
X143626525Y-87306632D01*
X143833368Y-87513475D01*
X144007760Y-87630000D01*
X143833368Y-87746525D01*
X143626525Y-87953368D01*
X143464010Y-88196589D01*
X143352068Y-88466842D01*
X143295000Y-88753740D01*
X143295000Y-89046260D01*
X143352068Y-89333158D01*
X143464010Y-89603411D01*
X143626525Y-89846632D01*
X143833368Y-90053475D01*
X144007760Y-90170000D01*
X143833368Y-90286525D01*
X143626525Y-90493368D01*
X143464010Y-90736589D01*
X143352068Y-91006842D01*
X143295000Y-91293740D01*
X143295000Y-91586260D01*
X143352068Y-91873158D01*
X143464010Y-92143411D01*
X143626525Y-92386632D01*
X143833368Y-92593475D01*
X144006729Y-92709311D01*
X143931208Y-92951603D01*
X144780000Y-93800395D01*
X145628792Y-92951603D01*
X145553271Y-92709311D01*
X145726632Y-92593475D01*
X145933475Y-92386632D01*
X146050000Y-92212240D01*
X146166525Y-92386632D01*
X146373368Y-92593475D01*
X146546729Y-92709311D01*
X146471208Y-92951603D01*
X147320000Y-93800395D01*
X148168792Y-92951603D01*
X148093271Y-92709311D01*
X148266632Y-92593475D01*
X148473475Y-92386632D01*
X148635990Y-92143411D01*
X148747932Y-91873158D01*
X148805000Y-91586260D01*
X148805000Y-91293740D01*
X148747932Y-91006842D01*
X148635990Y-90736589D01*
X148473475Y-90493368D01*
X148266632Y-90286525D01*
X148092240Y-90170000D01*
X148266632Y-90053475D01*
X148473475Y-89846632D01*
X148635990Y-89603411D01*
X148747932Y-89333158D01*
X148805000Y-89046260D01*
X148805000Y-88753740D01*
X148747932Y-88466842D01*
X148635990Y-88196589D01*
X148473475Y-87953368D01*
X148266632Y-87746525D01*
X148092240Y-87630000D01*
X148266632Y-87513475D01*
X148473475Y-87306632D01*
X148635990Y-87063411D01*
X148747932Y-86793158D01*
X148805000Y-86506260D01*
X148805000Y-86213740D01*
X148747932Y-85926842D01*
X148635990Y-85656589D01*
X148473475Y-85413368D01*
X148266632Y-85206525D01*
X148092240Y-85090000D01*
X148266632Y-84973475D01*
X148473475Y-84766632D01*
X148635990Y-84523411D01*
X148747932Y-84253158D01*
X148805000Y-83966260D01*
X148805000Y-83673740D01*
X158535000Y-83673740D01*
X158535000Y-83966260D01*
X158592068Y-84253158D01*
X158704010Y-84523411D01*
X158866525Y-84766632D01*
X159073368Y-84973475D01*
X159247760Y-85090000D01*
X159073368Y-85206525D01*
X158866525Y-85413368D01*
X158704010Y-85656589D01*
X158592068Y-85926842D01*
X158535000Y-86213740D01*
X158535000Y-86506260D01*
X158592068Y-86793158D01*
X158704010Y-87063411D01*
X158866525Y-87306632D01*
X159073368Y-87513475D01*
X159247760Y-87630000D01*
X159073368Y-87746525D01*
X158866525Y-87953368D01*
X158704010Y-88196589D01*
X158592068Y-88466842D01*
X158535000Y-88753740D01*
X158535000Y-89046260D01*
X158592068Y-89333158D01*
X158704010Y-89603411D01*
X158866525Y-89846632D01*
X159073368Y-90053475D01*
X159247760Y-90170000D01*
X159073368Y-90286525D01*
X158866525Y-90493368D01*
X158704010Y-90736589D01*
X158592068Y-91006842D01*
X158535000Y-91293740D01*
X158535000Y-91586260D01*
X158592068Y-91873158D01*
X158704010Y-92143411D01*
X158866525Y-92386632D01*
X159073368Y-92593475D01*
X159246729Y-92709311D01*
X159171208Y-92951603D01*
X160020000Y-93800395D01*
X160868792Y-92951603D01*
X160793271Y-92709311D01*
X160966632Y-92593475D01*
X161173475Y-92386632D01*
X161290000Y-92212240D01*
X161406525Y-92386632D01*
X161613368Y-92593475D01*
X161786729Y-92709311D01*
X161711208Y-92951603D01*
X162560000Y-93800395D01*
X163408792Y-92951603D01*
X163333271Y-92709311D01*
X163506632Y-92593475D01*
X163713475Y-92386632D01*
X163875990Y-92143411D01*
X163987932Y-91873158D01*
X164045000Y-91586260D01*
X164045000Y-91293740D01*
X163987932Y-91006842D01*
X163875990Y-90736589D01*
X163713475Y-90493368D01*
X163506632Y-90286525D01*
X163332240Y-90170000D01*
X163506632Y-90053475D01*
X163713475Y-89846632D01*
X163875990Y-89603411D01*
X163987932Y-89333158D01*
X164045000Y-89046260D01*
X164045000Y-88753740D01*
X163987932Y-88466842D01*
X163875990Y-88196589D01*
X163713475Y-87953368D01*
X163506632Y-87746525D01*
X163332240Y-87630000D01*
X163506632Y-87513475D01*
X163713475Y-87306632D01*
X163875990Y-87063411D01*
X163987932Y-86793158D01*
X164045000Y-86506260D01*
X164045000Y-86213740D01*
X163987932Y-85926842D01*
X163875990Y-85656589D01*
X163713475Y-85413368D01*
X163506632Y-85206525D01*
X163332240Y-85090000D01*
X163506632Y-84973475D01*
X163713475Y-84766632D01*
X163875990Y-84523411D01*
X163987932Y-84253158D01*
X164045000Y-83966260D01*
X164045000Y-83673740D01*
X173775000Y-83673740D01*
X173775000Y-83966260D01*
X173832068Y-84253158D01*
X173944010Y-84523411D01*
X174106525Y-84766632D01*
X174313368Y-84973475D01*
X174487760Y-85090000D01*
X174313368Y-85206525D01*
X174106525Y-85413368D01*
X173944010Y-85656589D01*
X173832068Y-85926842D01*
X173775000Y-86213740D01*
X173775000Y-86506260D01*
X173832068Y-86793158D01*
X173944010Y-87063411D01*
X174106525Y-87306632D01*
X174313368Y-87513475D01*
X174487760Y-87630000D01*
X174313368Y-87746525D01*
X174106525Y-87953368D01*
X173944010Y-88196589D01*
X173832068Y-88466842D01*
X173775000Y-88753740D01*
X173775000Y-89046260D01*
X173832068Y-89333158D01*
X173944010Y-89603411D01*
X174106525Y-89846632D01*
X174313368Y-90053475D01*
X174487760Y-90170000D01*
X174313368Y-90286525D01*
X174106525Y-90493368D01*
X173944010Y-90736589D01*
X173832068Y-91006842D01*
X173775000Y-91293740D01*
X173775000Y-91586260D01*
X173832068Y-91873158D01*
X173944010Y-92143411D01*
X174106525Y-92386632D01*
X174313368Y-92593475D01*
X174486729Y-92709311D01*
X174411208Y-92951603D01*
X175260000Y-93800395D01*
X176108792Y-92951603D01*
X176033271Y-92709311D01*
X176206632Y-92593475D01*
X176413475Y-92386632D01*
X176530000Y-92212240D01*
X176646525Y-92386632D01*
X176853368Y-92593475D01*
X177026729Y-92709311D01*
X176951208Y-92951603D01*
X177800000Y-93800395D01*
X178648792Y-92951603D01*
X178573271Y-92709311D01*
X178746632Y-92593475D01*
X178953475Y-92386632D01*
X179115990Y-92143411D01*
X179227932Y-91873158D01*
X179285000Y-91586260D01*
X179285000Y-91293740D01*
X179227932Y-91006842D01*
X179115990Y-90736589D01*
X178953475Y-90493368D01*
X178746632Y-90286525D01*
X178572240Y-90170000D01*
X178746632Y-90053475D01*
X178953475Y-89846632D01*
X179115990Y-89603411D01*
X179227932Y-89333158D01*
X179285000Y-89046260D01*
X179285000Y-88753740D01*
X179227932Y-88466842D01*
X179115990Y-88196589D01*
X178953475Y-87953368D01*
X178746632Y-87746525D01*
X178572240Y-87630000D01*
X178746632Y-87513475D01*
X178953475Y-87306632D01*
X179115990Y-87063411D01*
X179227932Y-86793158D01*
X179285000Y-86506260D01*
X179285000Y-86213740D01*
X179227932Y-85926842D01*
X179115990Y-85656589D01*
X178953475Y-85413368D01*
X178746632Y-85206525D01*
X178572240Y-85090000D01*
X178746632Y-84973475D01*
X178953475Y-84766632D01*
X179115990Y-84523411D01*
X179227932Y-84253158D01*
X179285000Y-83966260D01*
X179285000Y-83673740D01*
X189015000Y-83673740D01*
X189015000Y-83966260D01*
X189072068Y-84253158D01*
X189184010Y-84523411D01*
X189346525Y-84766632D01*
X189553368Y-84973475D01*
X189727760Y-85090000D01*
X189553368Y-85206525D01*
X189346525Y-85413368D01*
X189184010Y-85656589D01*
X189072068Y-85926842D01*
X189015000Y-86213740D01*
X189015000Y-86506260D01*
X189072068Y-86793158D01*
X189184010Y-87063411D01*
X189346525Y-87306632D01*
X189553368Y-87513475D01*
X189727760Y-87630000D01*
X189553368Y-87746525D01*
X189346525Y-87953368D01*
X189184010Y-88196589D01*
X189072068Y-88466842D01*
X189015000Y-88753740D01*
X189015000Y-89046260D01*
X189072068Y-89333158D01*
X189184010Y-89603411D01*
X189346525Y-89846632D01*
X189553368Y-90053475D01*
X189727760Y-90170000D01*
X189553368Y-90286525D01*
X189346525Y-90493368D01*
X189184010Y-90736589D01*
X189072068Y-91006842D01*
X189015000Y-91293740D01*
X189015000Y-91586260D01*
X189072068Y-91873158D01*
X189184010Y-92143411D01*
X189346525Y-92386632D01*
X189553368Y-92593475D01*
X189726729Y-92709311D01*
X189651208Y-92951603D01*
X190500000Y-93800395D01*
X191348792Y-92951603D01*
X191273271Y-92709311D01*
X191446632Y-92593475D01*
X191653475Y-92386632D01*
X191770000Y-92212240D01*
X191886525Y-92386632D01*
X192093368Y-92593475D01*
X192266729Y-92709311D01*
X192191208Y-92951603D01*
X193040000Y-93800395D01*
X193888792Y-92951603D01*
X193813271Y-92709311D01*
X193986632Y-92593475D01*
X194193475Y-92386632D01*
X194355990Y-92143411D01*
X194467932Y-91873158D01*
X194525000Y-91586260D01*
X194525000Y-91293740D01*
X194467932Y-91006842D01*
X194355990Y-90736589D01*
X194193475Y-90493368D01*
X193986632Y-90286525D01*
X193812240Y-90170000D01*
X193986632Y-90053475D01*
X194193475Y-89846632D01*
X194355990Y-89603411D01*
X194467932Y-89333158D01*
X194525000Y-89046260D01*
X194525000Y-88753740D01*
X194467932Y-88466842D01*
X194355990Y-88196589D01*
X194193475Y-87953368D01*
X193986632Y-87746525D01*
X193812240Y-87630000D01*
X193986632Y-87513475D01*
X194193475Y-87306632D01*
X194355990Y-87063411D01*
X194467932Y-86793158D01*
X194525000Y-86506260D01*
X194525000Y-86213740D01*
X194467932Y-85926842D01*
X194355990Y-85656589D01*
X194193475Y-85413368D01*
X193986632Y-85206525D01*
X193812240Y-85090000D01*
X193986632Y-84973475D01*
X194193475Y-84766632D01*
X194355990Y-84523411D01*
X194467932Y-84253158D01*
X194525000Y-83966260D01*
X194525000Y-83673740D01*
X194467932Y-83386842D01*
X194355990Y-83116589D01*
X194193475Y-82873368D01*
X193986632Y-82666525D01*
X193743411Y-82504010D01*
X193473158Y-82392068D01*
X193186260Y-82335000D01*
X192893740Y-82335000D01*
X192606842Y-82392068D01*
X192336589Y-82504010D01*
X192093368Y-82666525D01*
X191886525Y-82873368D01*
X191770000Y-83047760D01*
X191653475Y-82873368D01*
X191446632Y-82666525D01*
X191203411Y-82504010D01*
X190933158Y-82392068D01*
X190646260Y-82335000D01*
X190353740Y-82335000D01*
X190066842Y-82392068D01*
X189796589Y-82504010D01*
X189553368Y-82666525D01*
X189346525Y-82873368D01*
X189184010Y-83116589D01*
X189072068Y-83386842D01*
X189015000Y-83673740D01*
X179285000Y-83673740D01*
X179227932Y-83386842D01*
X179115990Y-83116589D01*
X178953475Y-82873368D01*
X178746632Y-82666525D01*
X178503411Y-82504010D01*
X178233158Y-82392068D01*
X177946260Y-82335000D01*
X177653740Y-82335000D01*
X177366842Y-82392068D01*
X177096589Y-82504010D01*
X176853368Y-82666525D01*
X176646525Y-82873368D01*
X176530000Y-83047760D01*
X176413475Y-82873368D01*
X176206632Y-82666525D01*
X175963411Y-82504010D01*
X175693158Y-82392068D01*
X175406260Y-82335000D01*
X175113740Y-82335000D01*
X174826842Y-82392068D01*
X174556589Y-82504010D01*
X174313368Y-82666525D01*
X174106525Y-82873368D01*
X173944010Y-83116589D01*
X173832068Y-83386842D01*
X173775000Y-83673740D01*
X164045000Y-83673740D01*
X163987932Y-83386842D01*
X163875990Y-83116589D01*
X163713475Y-82873368D01*
X163506632Y-82666525D01*
X163263411Y-82504010D01*
X162993158Y-82392068D01*
X162706260Y-82335000D01*
X162413740Y-82335000D01*
X162126842Y-82392068D01*
X161856589Y-82504010D01*
X161613368Y-82666525D01*
X161406525Y-82873368D01*
X161290000Y-83047760D01*
X161173475Y-82873368D01*
X160966632Y-82666525D01*
X160723411Y-82504010D01*
X160453158Y-82392068D01*
X160166260Y-82335000D01*
X159873740Y-82335000D01*
X159586842Y-82392068D01*
X159316589Y-82504010D01*
X159073368Y-82666525D01*
X158866525Y-82873368D01*
X158704010Y-83116589D01*
X158592068Y-83386842D01*
X158535000Y-83673740D01*
X148805000Y-83673740D01*
X148747932Y-83386842D01*
X148635990Y-83116589D01*
X148473475Y-82873368D01*
X148266632Y-82666525D01*
X148023411Y-82504010D01*
X147753158Y-82392068D01*
X147466260Y-82335000D01*
X147173740Y-82335000D01*
X146886842Y-82392068D01*
X146616589Y-82504010D01*
X146373368Y-82666525D01*
X146166525Y-82873368D01*
X146050000Y-83047760D01*
X145933475Y-82873368D01*
X145726632Y-82666525D01*
X145483411Y-82504010D01*
X145213158Y-82392068D01*
X144926260Y-82335000D01*
X144633740Y-82335000D01*
X144346842Y-82392068D01*
X144076589Y-82504010D01*
X143833368Y-82666525D01*
X143626525Y-82873368D01*
X143464010Y-83116589D01*
X143352068Y-83386842D01*
X143295000Y-83673740D01*
X133565000Y-83673740D01*
X133507932Y-83386842D01*
X133395990Y-83116589D01*
X133233475Y-82873368D01*
X133026632Y-82666525D01*
X132783411Y-82504010D01*
X132513158Y-82392068D01*
X132226260Y-82335000D01*
X131933740Y-82335000D01*
X131646842Y-82392068D01*
X131376589Y-82504010D01*
X131133368Y-82666525D01*
X130926525Y-82873368D01*
X130810000Y-83047760D01*
X130693475Y-82873368D01*
X130486632Y-82666525D01*
X130243411Y-82504010D01*
X129973158Y-82392068D01*
X129686260Y-82335000D01*
X129393740Y-82335000D01*
X129106842Y-82392068D01*
X128836589Y-82504010D01*
X128593368Y-82666525D01*
X128386525Y-82873368D01*
X128224010Y-83116589D01*
X128112068Y-83386842D01*
X128055000Y-83673740D01*
X118325000Y-83673740D01*
X118267932Y-83386842D01*
X118155990Y-83116589D01*
X117993475Y-82873368D01*
X117786632Y-82666525D01*
X117543411Y-82504010D01*
X117273158Y-82392068D01*
X116986260Y-82335000D01*
X116693740Y-82335000D01*
X116406842Y-82392068D01*
X116136589Y-82504010D01*
X115893368Y-82666525D01*
X115686525Y-82873368D01*
X115570000Y-83047760D01*
X115453475Y-82873368D01*
X115246632Y-82666525D01*
X115003411Y-82504010D01*
X114733158Y-82392068D01*
X114446260Y-82335000D01*
X114153740Y-82335000D01*
X113866842Y-82392068D01*
X113596589Y-82504010D01*
X113353368Y-82666525D01*
X113146525Y-82873368D01*
X112984010Y-83116589D01*
X112872068Y-83386842D01*
X112815000Y-83673740D01*
X103085000Y-83673740D01*
X103027932Y-83386842D01*
X102915990Y-83116589D01*
X102753475Y-82873368D01*
X102546632Y-82666525D01*
X102303411Y-82504010D01*
X102033158Y-82392068D01*
X101746260Y-82335000D01*
X101453740Y-82335000D01*
X101166842Y-82392068D01*
X100896589Y-82504010D01*
X100653368Y-82666525D01*
X100446525Y-82873368D01*
X100330000Y-83047760D01*
X100213475Y-82873368D01*
X100006632Y-82666525D01*
X99763411Y-82504010D01*
X99493158Y-82392068D01*
X99206260Y-82335000D01*
X98913740Y-82335000D01*
X98626842Y-82392068D01*
X98356589Y-82504010D01*
X98113368Y-82666525D01*
X97906525Y-82873368D01*
X97744010Y-83116589D01*
X97632068Y-83386842D01*
X97575000Y-83673740D01*
X97180000Y-83673740D01*
X97180000Y-73899872D01*
X97285000Y-73899872D01*
X97285000Y-74340128D01*
X97370890Y-74771925D01*
X97539369Y-75178669D01*
X97783962Y-75544729D01*
X98095271Y-75856038D01*
X98461331Y-76100631D01*
X98868075Y-76269110D01*
X99299872Y-76355000D01*
X99740128Y-76355000D01*
X100171925Y-76269110D01*
X100578669Y-76100631D01*
X100944729Y-75856038D01*
X101256038Y-75544729D01*
X101500631Y-75178669D01*
X101669110Y-74771925D01*
X101755000Y-74340128D01*
X101755000Y-73899872D01*
X190345000Y-73899872D01*
X190345000Y-74340128D01*
X190430890Y-74771925D01*
X190599369Y-75178669D01*
X190843962Y-75544729D01*
X191155271Y-75856038D01*
X191521331Y-76100631D01*
X191928075Y-76269110D01*
X192359872Y-76355000D01*
X192800128Y-76355000D01*
X193231925Y-76269110D01*
X193638669Y-76100631D01*
X194004729Y-75856038D01*
X194316038Y-75544729D01*
X194560631Y-75178669D01*
X194729110Y-74771925D01*
X194815000Y-74340128D01*
X194815000Y-73899872D01*
X194729110Y-73468075D01*
X194560631Y-73061331D01*
X194316038Y-72695271D01*
X194004729Y-72383962D01*
X193638669Y-72139369D01*
X193231925Y-71970890D01*
X192800128Y-71885000D01*
X192359872Y-71885000D01*
X191928075Y-71970890D01*
X191521331Y-72139369D01*
X191155271Y-72383962D01*
X190843962Y-72695271D01*
X190599369Y-73061331D01*
X190430890Y-73468075D01*
X190345000Y-73899872D01*
X101755000Y-73899872D01*
X101669110Y-73468075D01*
X101500631Y-73061331D01*
X101256038Y-72695271D01*
X100944729Y-72383962D01*
X100578669Y-72139369D01*
X100171925Y-71970890D01*
X99740128Y-71885000D01*
X99299872Y-71885000D01*
X98868075Y-71970890D01*
X98461331Y-72139369D01*
X98095271Y-72383962D01*
X97783962Y-72695271D01*
X97539369Y-73061331D01*
X97370890Y-73468075D01*
X97285000Y-73899872D01*
X97180000Y-73899872D01*
X97180000Y-71780000D01*
X194920001Y-71780000D01*
X194920000Y-126340000D01*
G37*
X194920000Y-126340000D02*
X97180000Y-126340000D01*
X97180000Y-123779872D01*
X97285000Y-123779872D01*
X97285000Y-124220128D01*
X97370890Y-124651925D01*
X97539369Y-125058669D01*
X97783962Y-125424729D01*
X98095271Y-125736038D01*
X98461331Y-125980631D01*
X98868075Y-126149110D01*
X99299872Y-126235000D01*
X99740128Y-126235000D01*
X100171925Y-126149110D01*
X100578669Y-125980631D01*
X100944729Y-125736038D01*
X101256038Y-125424729D01*
X101500631Y-125058669D01*
X101669110Y-124651925D01*
X101755000Y-124220128D01*
X101755000Y-123779872D01*
X190345000Y-123779872D01*
X190345000Y-124220128D01*
X190430890Y-124651925D01*
X190599369Y-125058669D01*
X190843962Y-125424729D01*
X191155271Y-125736038D01*
X191521331Y-125980631D01*
X191928075Y-126149110D01*
X192359872Y-126235000D01*
X192800128Y-126235000D01*
X193231925Y-126149110D01*
X193638669Y-125980631D01*
X194004729Y-125736038D01*
X194316038Y-125424729D01*
X194560631Y-125058669D01*
X194729110Y-124651925D01*
X194815000Y-124220128D01*
X194815000Y-123779872D01*
X194729110Y-123348075D01*
X194560631Y-122941331D01*
X194316038Y-122575271D01*
X194004729Y-122263962D01*
X193638669Y-122019369D01*
X193231925Y-121850890D01*
X192800128Y-121765000D01*
X192359872Y-121765000D01*
X191928075Y-121850890D01*
X191521331Y-122019369D01*
X191155271Y-122263962D01*
X190843962Y-122575271D01*
X190599369Y-122941331D01*
X190430890Y-123348075D01*
X190345000Y-123779872D01*
X101755000Y-123779872D01*
X101669110Y-123348075D01*
X101500631Y-122941331D01*
X101256038Y-122575271D01*
X100944729Y-122263962D01*
X100578669Y-122019369D01*
X100171925Y-121850890D01*
X99740128Y-121765000D01*
X99299872Y-121765000D01*
X98868075Y-121850890D01*
X98461331Y-122019369D01*
X98095271Y-122263962D01*
X97783962Y-122575271D01*
X97539369Y-122941331D01*
X97370890Y-123348075D01*
X97285000Y-123779872D01*
X97180000Y-123779872D01*
X97180000Y-116240000D01*
X99986928Y-116240000D01*
X99986928Y-117440000D01*
X100003992Y-117613254D01*
X100054528Y-117779850D01*
X100136595Y-117933386D01*
X100247038Y-118067962D01*
X100381614Y-118178405D01*
X100535150Y-118260472D01*
X100701746Y-118311008D01*
X100875000Y-118328072D01*
X102325000Y-118328072D01*
X102498254Y-118311008D01*
X102664850Y-118260472D01*
X102818386Y-118178405D01*
X102952962Y-118067962D01*
X103063405Y-117933386D01*
X103145472Y-117779850D01*
X103196008Y-117613254D01*
X103213072Y-117440000D01*
X103213072Y-116240000D01*
X112686928Y-116240000D01*
X112686928Y-117440000D01*
X112703992Y-117613254D01*
X112754528Y-117779850D01*
X112836595Y-117933386D01*
X112947038Y-118067962D01*
X113081614Y-118178405D01*
X113235150Y-118260472D01*
X113401746Y-118311008D01*
X113575000Y-118328072D01*
X115025000Y-118328072D01*
X115198254Y-118311008D01*
X115364850Y-118260472D01*
X115518386Y-118178405D01*
X115652962Y-118067962D01*
X115763405Y-117933386D01*
X115845472Y-117779850D01*
X115896008Y-117613254D01*
X115913072Y-117440000D01*
X115913072Y-116240000D01*
X125386928Y-116240000D01*
X125386928Y-117440000D01*
X125403992Y-117613254D01*
X125454528Y-117779850D01*
X125536595Y-117933386D01*
X125647038Y-118067962D01*
X125781614Y-118178405D01*
X125935150Y-118260472D01*
X126101746Y-118311008D01*
X126275000Y-118328072D01*
X127725000Y-118328072D01*
X127898254Y-118311008D01*
X128064850Y-118260472D01*
X128218386Y-118178405D01*
X128352962Y-118067962D01*
X128463405Y-117933386D01*
X128545472Y-117779850D01*
X128596008Y-117613254D01*
X128613072Y-117440000D01*
X128613072Y-116688816D01*
X133085000Y-116688816D01*
X133085000Y-116991184D01*
X133143989Y-117287743D01*
X133259701Y-117567095D01*
X133427688Y-117818505D01*
X133641495Y-118032312D01*
X133892905Y-118200299D01*
X134172257Y-118316011D01*
X134468816Y-118375000D01*
X134771184Y-118375000D01*
X135067743Y-118316011D01*
X135347095Y-118200299D01*
X135598505Y-118032312D01*
X135664944Y-117965873D01*
X135670498Y-117984180D01*
X135729463Y-118094494D01*
X135808815Y-118191185D01*
X135905506Y-118270537D01*
X136015820Y-118329502D01*
X136135518Y-118365812D01*
X136260000Y-118378072D01*
X138060000Y-118378072D01*
X138184482Y-118365812D01*
X138304180Y-118329502D01*
X138414494Y-118270537D01*
X138511185Y-118191185D01*
X138590537Y-118094494D01*
X138649502Y-117984180D01*
X138685812Y-117864482D01*
X138686643Y-117856039D01*
X138785241Y-117954637D01*
X139020273Y-118111680D01*
X139281426Y-118219853D01*
X139558665Y-118275000D01*
X139841335Y-118275000D01*
X140118574Y-118219853D01*
X140379727Y-118111680D01*
X140614759Y-117954637D01*
X140736694Y-117832702D01*
X146506903Y-117832702D01*
X146578486Y-118076671D01*
X146833996Y-118197571D01*
X147108184Y-118266300D01*
X147390512Y-118280217D01*
X147670130Y-118238787D01*
X147936292Y-118143603D01*
X148061514Y-118076671D01*
X148093204Y-117968665D01*
X150965000Y-117968665D01*
X150965000Y-118251335D01*
X151020147Y-118528574D01*
X151128320Y-118789727D01*
X151285363Y-119024759D01*
X151485241Y-119224637D01*
X151720273Y-119381680D01*
X151981426Y-119489853D01*
X152258665Y-119545000D01*
X152541335Y-119545000D01*
X152818574Y-119489853D01*
X153079727Y-119381680D01*
X153314759Y-119224637D01*
X153514637Y-119024759D01*
X153671680Y-118789727D01*
X153779853Y-118528574D01*
X153835000Y-118251335D01*
X153835000Y-117968665D01*
X153779853Y-117691426D01*
X153671680Y-117430273D01*
X153514637Y-117195241D01*
X153314759Y-116995363D01*
X153079727Y-116838320D01*
X152818574Y-116730147D01*
X152541335Y-116675000D01*
X152258665Y-116675000D01*
X151981426Y-116730147D01*
X151720273Y-116838320D01*
X151485241Y-116995363D01*
X151285363Y-117195241D01*
X151128320Y-117430273D01*
X151020147Y-117691426D01*
X150965000Y-117968665D01*
X148093204Y-117968665D01*
X148133097Y-117832702D01*
X147320000Y-117019605D01*
X146506903Y-117832702D01*
X140736694Y-117832702D01*
X140814637Y-117754759D01*
X140971680Y-117519727D01*
X141079853Y-117258574D01*
X141135000Y-116981335D01*
X141135000Y-116910512D01*
X145879783Y-116910512D01*
X145921213Y-117190130D01*
X146016397Y-117456292D01*
X146083329Y-117581514D01*
X146327298Y-117653097D01*
X147140395Y-116840000D01*
X147499605Y-116840000D01*
X148312702Y-117653097D01*
X148556671Y-117581514D01*
X148677571Y-117326004D01*
X148746300Y-117051816D01*
X148760217Y-116769488D01*
X148718787Y-116489870D01*
X148623603Y-116223708D01*
X148556671Y-116098486D01*
X148312702Y-116026903D01*
X147499605Y-116840000D01*
X147140395Y-116840000D01*
X146327298Y-116026903D01*
X146083329Y-116098486D01*
X145962429Y-116353996D01*
X145893700Y-116628184D01*
X145879783Y-116910512D01*
X141135000Y-116910512D01*
X141135000Y-116698665D01*
X141079853Y-116421426D01*
X140971680Y-116160273D01*
X140814637Y-115925241D01*
X140736694Y-115847298D01*
X146506903Y-115847298D01*
X147320000Y-116660395D01*
X148040395Y-115940000D01*
X154671928Y-115940000D01*
X154671928Y-117740000D01*
X154684188Y-117864482D01*
X154720498Y-117984180D01*
X154779463Y-118094494D01*
X154858815Y-118191185D01*
X154955506Y-118270537D01*
X155065820Y-118329502D01*
X155185518Y-118365812D01*
X155310000Y-118378072D01*
X157110000Y-118378072D01*
X157234482Y-118365812D01*
X157354180Y-118329502D01*
X157464494Y-118270537D01*
X157561185Y-118191185D01*
X157640537Y-118094494D01*
X157699502Y-117984180D01*
X157705056Y-117965873D01*
X157771495Y-118032312D01*
X158022905Y-118200299D01*
X158302257Y-118316011D01*
X158598816Y-118375000D01*
X158901184Y-118375000D01*
X159197743Y-118316011D01*
X159477095Y-118200299D01*
X159728505Y-118032312D01*
X159942312Y-117818505D01*
X160110299Y-117567095D01*
X160226011Y-117287743D01*
X160285000Y-116991184D01*
X160285000Y-116688816D01*
X160226011Y-116392257D01*
X160162944Y-116240000D01*
X166001928Y-116240000D01*
X166001928Y-117440000D01*
X166018992Y-117613254D01*
X166069528Y-117779850D01*
X166151595Y-117933386D01*
X166262038Y-118067962D01*
X166396614Y-118178405D01*
X166550150Y-118260472D01*
X166716746Y-118311008D01*
X166890000Y-118328072D01*
X168390000Y-118328072D01*
X168563254Y-118311008D01*
X168729850Y-118260472D01*
X168883386Y-118178405D01*
X169017962Y-118067962D01*
X169128405Y-117933386D01*
X169210472Y-117779850D01*
X169261008Y-117613254D01*
X169278072Y-117440000D01*
X169278072Y-116240000D01*
X176161928Y-116240000D01*
X176161928Y-117440000D01*
X176178992Y-117613254D01*
X176229528Y-117779850D01*
X176311595Y-117933386D01*
X176422038Y-118067962D01*
X176556614Y-118178405D01*
X176710150Y-118260472D01*
X176876746Y-118311008D01*
X177050000Y-118328072D01*
X178550000Y-118328072D01*
X178723254Y-118311008D01*
X178889850Y-118260472D01*
X179043386Y-118178405D01*
X179177962Y-118067962D01*
X179288405Y-117933386D01*
X179370472Y-117779850D01*
X179421008Y-117613254D01*
X179438072Y-117440000D01*
X179438072Y-116240000D01*
X186321928Y-116240000D01*
X186321928Y-117440000D01*
X186338992Y-117613254D01*
X186389528Y-117779850D01*
X186471595Y-117933386D01*
X186582038Y-118067962D01*
X186716614Y-118178405D01*
X186870150Y-118260472D01*
X187036746Y-118311008D01*
X187210000Y-118328072D01*
X188710000Y-118328072D01*
X188883254Y-118311008D01*
X189049850Y-118260472D01*
X189203386Y-118178405D01*
X189337962Y-118067962D01*
X189448405Y-117933386D01*
X189530472Y-117779850D01*
X189581008Y-117613254D01*
X189598072Y-117440000D01*
X189598072Y-116240000D01*
X189581008Y-116066746D01*
X189530472Y-115900150D01*
X189448405Y-115746614D01*
X189337962Y-115612038D01*
X189203386Y-115501595D01*
X189101407Y-115447086D01*
X189101795Y-115446802D01*
X189298664Y-115232046D01*
X189449854Y-114983009D01*
X189549554Y-114709261D01*
X189551476Y-114696890D01*
X189430155Y-114467000D01*
X188087000Y-114467000D01*
X188087000Y-114487000D01*
X187833000Y-114487000D01*
X187833000Y-114467000D01*
X186489845Y-114467000D01*
X186368524Y-114696890D01*
X186370446Y-114709261D01*
X186470146Y-114983009D01*
X186621336Y-115232046D01*
X186818205Y-115446802D01*
X186818593Y-115447086D01*
X186716614Y-115501595D01*
X186582038Y-115612038D01*
X186471595Y-115746614D01*
X186389528Y-115900150D01*
X186338992Y-116066746D01*
X186321928Y-116240000D01*
X179438072Y-116240000D01*
X179421008Y-116066746D01*
X179370472Y-115900150D01*
X179288405Y-115746614D01*
X179177962Y-115612038D01*
X179043386Y-115501595D01*
X178941407Y-115447086D01*
X178941795Y-115446802D01*
X179138664Y-115232046D01*
X179289854Y-114983009D01*
X179389554Y-114709261D01*
X179391476Y-114696890D01*
X179270155Y-114467000D01*
X177927000Y-114467000D01*
X177927000Y-114487000D01*
X177673000Y-114487000D01*
X177673000Y-114467000D01*
X176329845Y-114467000D01*
X176208524Y-114696890D01*
X176210446Y-114709261D01*
X176310146Y-114983009D01*
X176461336Y-115232046D01*
X176658205Y-115446802D01*
X176658593Y-115447086D01*
X176556614Y-115501595D01*
X176422038Y-115612038D01*
X176311595Y-115746614D01*
X176229528Y-115900150D01*
X176178992Y-116066746D01*
X176161928Y-116240000D01*
X169278072Y-116240000D01*
X169261008Y-116066746D01*
X169210472Y-115900150D01*
X169128405Y-115746614D01*
X169017962Y-115612038D01*
X168883386Y-115501595D01*
X168781407Y-115447086D01*
X168781795Y-115446802D01*
X168978664Y-115232046D01*
X169129854Y-114983009D01*
X169229554Y-114709261D01*
X169231476Y-114696890D01*
X169110155Y-114467000D01*
X167767000Y-114467000D01*
X167767000Y-114487000D01*
X167513000Y-114487000D01*
X167513000Y-114467000D01*
X166169845Y-114467000D01*
X166048524Y-114696890D01*
X166050446Y-114709261D01*
X166150146Y-114983009D01*
X166301336Y-115232046D01*
X166498205Y-115446802D01*
X166498593Y-115447086D01*
X166396614Y-115501595D01*
X166262038Y-115612038D01*
X166151595Y-115746614D01*
X166069528Y-115900150D01*
X166018992Y-116066746D01*
X166001928Y-116240000D01*
X160162944Y-116240000D01*
X160110299Y-116112905D01*
X159942312Y-115861495D01*
X159728505Y-115647688D01*
X159477095Y-115479701D01*
X159197743Y-115363989D01*
X158901184Y-115305000D01*
X158598816Y-115305000D01*
X158302257Y-115363989D01*
X158022905Y-115479701D01*
X157771495Y-115647688D01*
X157705056Y-115714127D01*
X157699502Y-115695820D01*
X157640537Y-115585506D01*
X157561185Y-115488815D01*
X157464494Y-115409463D01*
X157354180Y-115350498D01*
X157234482Y-115314188D01*
X157110000Y-115301928D01*
X155310000Y-115301928D01*
X155185518Y-115314188D01*
X155065820Y-115350498D01*
X154955506Y-115409463D01*
X154858815Y-115488815D01*
X154779463Y-115585506D01*
X154720498Y-115695820D01*
X154684188Y-115815518D01*
X154671928Y-115940000D01*
X148040395Y-115940000D01*
X148133097Y-115847298D01*
X148061514Y-115603329D01*
X147806004Y-115482429D01*
X147531816Y-115413700D01*
X147249488Y-115399783D01*
X146969870Y-115441213D01*
X146703708Y-115536397D01*
X146578486Y-115603329D01*
X146506903Y-115847298D01*
X140736694Y-115847298D01*
X140614759Y-115725363D01*
X140379727Y-115568320D01*
X140118574Y-115460147D01*
X139841335Y-115405000D01*
X139558665Y-115405000D01*
X139281426Y-115460147D01*
X139020273Y-115568320D01*
X138785241Y-115725363D01*
X138686643Y-115823961D01*
X138685812Y-115815518D01*
X138649502Y-115695820D01*
X138590537Y-115585506D01*
X138511185Y-115488815D01*
X138414494Y-115409463D01*
X138304180Y-115350498D01*
X138184482Y-115314188D01*
X138060000Y-115301928D01*
X136260000Y-115301928D01*
X136135518Y-115314188D01*
X136015820Y-115350498D01*
X135905506Y-115409463D01*
X135808815Y-115488815D01*
X135729463Y-115585506D01*
X135670498Y-115695820D01*
X135664944Y-115714127D01*
X135598505Y-115647688D01*
X135347095Y-115479701D01*
X135067743Y-115363989D01*
X134771184Y-115305000D01*
X134468816Y-115305000D01*
X134172257Y-115363989D01*
X133892905Y-115479701D01*
X133641495Y-115647688D01*
X133427688Y-115861495D01*
X133259701Y-116112905D01*
X133143989Y-116392257D01*
X133085000Y-116688816D01*
X128613072Y-116688816D01*
X128613072Y-116240000D01*
X128596008Y-116066746D01*
X128545472Y-115900150D01*
X128463405Y-115746614D01*
X128352962Y-115612038D01*
X128218386Y-115501595D01*
X128113039Y-115445286D01*
X128134429Y-115429049D01*
X128327496Y-115211193D01*
X128474352Y-114959858D01*
X128566476Y-114696890D01*
X128445155Y-114467000D01*
X127127000Y-114467000D01*
X127127000Y-114487000D01*
X126873000Y-114487000D01*
X126873000Y-114467000D01*
X125554845Y-114467000D01*
X125433524Y-114696890D01*
X125525648Y-114959858D01*
X125672504Y-115211193D01*
X125865571Y-115429049D01*
X125886961Y-115445286D01*
X125781614Y-115501595D01*
X125647038Y-115612038D01*
X125536595Y-115746614D01*
X125454528Y-115900150D01*
X125403992Y-116066746D01*
X125386928Y-116240000D01*
X115913072Y-116240000D01*
X115896008Y-116066746D01*
X115845472Y-115900150D01*
X115763405Y-115746614D01*
X115652962Y-115612038D01*
X115518386Y-115501595D01*
X115413039Y-115445286D01*
X115434429Y-115429049D01*
X115627496Y-115211193D01*
X115774352Y-114959858D01*
X115866476Y-114696890D01*
X115745155Y-114467000D01*
X114427000Y-114467000D01*
X114427000Y-114487000D01*
X114173000Y-114487000D01*
X114173000Y-114467000D01*
X112854845Y-114467000D01*
X112733524Y-114696890D01*
X112825648Y-114959858D01*
X112972504Y-115211193D01*
X113165571Y-115429049D01*
X113186961Y-115445286D01*
X113081614Y-115501595D01*
X112947038Y-115612038D01*
X112836595Y-115746614D01*
X112754528Y-115900150D01*
X112703992Y-116066746D01*
X112686928Y-116240000D01*
X103213072Y-116240000D01*
X103196008Y-116066746D01*
X103145472Y-115900150D01*
X103063405Y-115746614D01*
X102952962Y-115612038D01*
X102818386Y-115501595D01*
X102713039Y-115445286D01*
X102734429Y-115429049D01*
X102927496Y-115211193D01*
X103074352Y-114959858D01*
X103166476Y-114696890D01*
X103045155Y-114467000D01*
X101727000Y-114467000D01*
X101727000Y-114487000D01*
X101473000Y-114487000D01*
X101473000Y-114467000D01*
X100154845Y-114467000D01*
X100033524Y-114696890D01*
X100125648Y-114959858D01*
X100272504Y-115211193D01*
X100465571Y-115429049D01*
X100486961Y-115445286D01*
X100381614Y-115501595D01*
X100247038Y-115612038D01*
X100136595Y-115746614D01*
X100054528Y-115900150D01*
X100003992Y-116066746D01*
X99986928Y-116240000D01*
X97180000Y-116240000D01*
X97180000Y-111840000D01*
X99982815Y-111840000D01*
X100011487Y-112131111D01*
X100096401Y-112411034D01*
X100234294Y-112669014D01*
X100419866Y-112895134D01*
X100645986Y-113080706D01*
X100671722Y-113094462D01*
X100465571Y-113250951D01*
X100272504Y-113468807D01*
X100125648Y-113720142D01*
X100033524Y-113983110D01*
X100154845Y-114213000D01*
X101473000Y-114213000D01*
X101473000Y-114193000D01*
X101727000Y-114193000D01*
X101727000Y-114213000D01*
X103045155Y-114213000D01*
X103166476Y-113983110D01*
X103074352Y-113720142D01*
X102927496Y-113468807D01*
X102734429Y-113250951D01*
X102528278Y-113094462D01*
X102554014Y-113080706D01*
X102780134Y-112895134D01*
X102965706Y-112669014D01*
X103103599Y-112411034D01*
X103188513Y-112131111D01*
X103217185Y-111840000D01*
X112682815Y-111840000D01*
X112711487Y-112131111D01*
X112796401Y-112411034D01*
X112934294Y-112669014D01*
X113119866Y-112895134D01*
X113345986Y-113080706D01*
X113371722Y-113094462D01*
X113165571Y-113250951D01*
X112972504Y-113468807D01*
X112825648Y-113720142D01*
X112733524Y-113983110D01*
X112854845Y-114213000D01*
X114173000Y-114213000D01*
X114173000Y-114193000D01*
X114427000Y-114193000D01*
X114427000Y-114213000D01*
X115745155Y-114213000D01*
X115866476Y-113983110D01*
X115774352Y-113720142D01*
X115627496Y-113468807D01*
X115434429Y-113250951D01*
X115228278Y-113094462D01*
X115254014Y-113080706D01*
X115480134Y-112895134D01*
X115665706Y-112669014D01*
X115803599Y-112411034D01*
X115888513Y-112131111D01*
X115917185Y-111840000D01*
X125382815Y-111840000D01*
X125411487Y-112131111D01*
X125496401Y-112411034D01*
X125634294Y-112669014D01*
X125819866Y-112895134D01*
X126045986Y-113080706D01*
X126071722Y-113094462D01*
X125865571Y-113250951D01*
X125672504Y-113468807D01*
X125525648Y-113720142D01*
X125433524Y-113983110D01*
X125554845Y-114213000D01*
X126873000Y-114213000D01*
X126873000Y-114193000D01*
X127127000Y-114193000D01*
X127127000Y-114213000D01*
X128445155Y-114213000D01*
X128566476Y-113983110D01*
X166048524Y-113983110D01*
X166169845Y-114213000D01*
X167513000Y-114213000D01*
X167513000Y-113012768D01*
X167767000Y-113012768D01*
X167767000Y-114213000D01*
X169110155Y-114213000D01*
X169231476Y-113983110D01*
X176208524Y-113983110D01*
X176329845Y-114213000D01*
X177673000Y-114213000D01*
X177673000Y-113012768D01*
X177927000Y-113012768D01*
X177927000Y-114213000D01*
X179270155Y-114213000D01*
X179391476Y-113983110D01*
X186368524Y-113983110D01*
X186489845Y-114213000D01*
X187833000Y-114213000D01*
X187833000Y-113012768D01*
X188087000Y-113012768D01*
X188087000Y-114213000D01*
X189430155Y-114213000D01*
X189551476Y-113983110D01*
X189549554Y-113970739D01*
X189449854Y-113696991D01*
X189298664Y-113447954D01*
X189101795Y-113233198D01*
X188866812Y-113060975D01*
X188602745Y-112937904D01*
X188319742Y-112868715D01*
X188087000Y-113012768D01*
X187833000Y-113012768D01*
X187600258Y-112868715D01*
X187317255Y-112937904D01*
X187053188Y-113060975D01*
X186818205Y-113233198D01*
X186621336Y-113447954D01*
X186470146Y-113696991D01*
X186370446Y-113970739D01*
X186368524Y-113983110D01*
X179391476Y-113983110D01*
X179389554Y-113970739D01*
X179289854Y-113696991D01*
X179138664Y-113447954D01*
X178941795Y-113233198D01*
X178706812Y-113060975D01*
X178442745Y-112937904D01*
X178159742Y-112868715D01*
X177927000Y-113012768D01*
X177673000Y-113012768D01*
X177440258Y-112868715D01*
X177157255Y-112937904D01*
X176893188Y-113060975D01*
X176658205Y-113233198D01*
X176461336Y-113447954D01*
X176310146Y-113696991D01*
X176210446Y-113970739D01*
X176208524Y-113983110D01*
X169231476Y-113983110D01*
X169229554Y-113970739D01*
X169129854Y-113696991D01*
X168978664Y-113447954D01*
X168781795Y-113233198D01*
X168546812Y-113060975D01*
X168282745Y-112937904D01*
X167999742Y-112868715D01*
X167767000Y-113012768D01*
X167513000Y-113012768D01*
X167280258Y-112868715D01*
X166997255Y-112937904D01*
X166733188Y-113060975D01*
X166498205Y-113233198D01*
X166301336Y-113447954D01*
X166150146Y-113696991D01*
X166050446Y-113970739D01*
X166048524Y-113983110D01*
X128566476Y-113983110D01*
X128474352Y-113720142D01*
X128327496Y-113468807D01*
X128134429Y-113250951D01*
X127928278Y-113094462D01*
X127954014Y-113080706D01*
X128180134Y-112895134D01*
X128365706Y-112669014D01*
X128503599Y-112411034D01*
X128588513Y-112131111D01*
X128617185Y-111840000D01*
X128594416Y-111608816D01*
X133085000Y-111608816D01*
X133085000Y-111911184D01*
X133143989Y-112207743D01*
X133259701Y-112487095D01*
X133427688Y-112738505D01*
X133641495Y-112952312D01*
X133892905Y-113120299D01*
X134172257Y-113236011D01*
X134468816Y-113295000D01*
X134771184Y-113295000D01*
X135067743Y-113236011D01*
X135347095Y-113120299D01*
X135598505Y-112952312D01*
X135664944Y-112885873D01*
X135670498Y-112904180D01*
X135729463Y-113014494D01*
X135808815Y-113111185D01*
X135905506Y-113190537D01*
X136015820Y-113249502D01*
X136135518Y-113285812D01*
X136260000Y-113298072D01*
X138060000Y-113298072D01*
X138184482Y-113285812D01*
X138304180Y-113249502D01*
X138414494Y-113190537D01*
X138511185Y-113111185D01*
X138590537Y-113014494D01*
X138649502Y-112904180D01*
X138685812Y-112784482D01*
X138686643Y-112776039D01*
X138785241Y-112874637D01*
X139020273Y-113031680D01*
X139281426Y-113139853D01*
X139558665Y-113195000D01*
X139841335Y-113195000D01*
X140118574Y-113139853D01*
X140379727Y-113031680D01*
X140614759Y-112874637D01*
X140736694Y-112752702D01*
X146506903Y-112752702D01*
X146578486Y-112996671D01*
X146833996Y-113117571D01*
X147108184Y-113186300D01*
X147390512Y-113200217D01*
X147670130Y-113158787D01*
X147936292Y-113063603D01*
X148061514Y-112996671D01*
X148133097Y-112752702D01*
X147320000Y-111939605D01*
X146506903Y-112752702D01*
X140736694Y-112752702D01*
X140814637Y-112674759D01*
X140971680Y-112439727D01*
X141079853Y-112178574D01*
X141135000Y-111901335D01*
X141135000Y-111830512D01*
X145879783Y-111830512D01*
X145921213Y-112110130D01*
X146016397Y-112376292D01*
X146083329Y-112501514D01*
X146327298Y-112573097D01*
X147140395Y-111760000D01*
X147499605Y-111760000D01*
X148312702Y-112573097D01*
X148556671Y-112501514D01*
X148677571Y-112246004D01*
X148746300Y-111971816D01*
X148760217Y-111689488D01*
X148729579Y-111482702D01*
X151586903Y-111482702D01*
X151658486Y-111726671D01*
X151913996Y-111847571D01*
X152188184Y-111916300D01*
X152470512Y-111930217D01*
X152750130Y-111888787D01*
X153016292Y-111793603D01*
X153141514Y-111726671D01*
X153213097Y-111482702D01*
X152400000Y-110669605D01*
X151586903Y-111482702D01*
X148729579Y-111482702D01*
X148718787Y-111409870D01*
X148623603Y-111143708D01*
X148556671Y-111018486D01*
X148312702Y-110946903D01*
X147499605Y-111760000D01*
X147140395Y-111760000D01*
X146327298Y-110946903D01*
X146083329Y-111018486D01*
X145962429Y-111273996D01*
X145893700Y-111548184D01*
X145879783Y-111830512D01*
X141135000Y-111830512D01*
X141135000Y-111618665D01*
X141079853Y-111341426D01*
X140971680Y-111080273D01*
X140814637Y-110845241D01*
X140736694Y-110767298D01*
X146506903Y-110767298D01*
X147320000Y-111580395D01*
X148133097Y-110767298D01*
X148072424Y-110560512D01*
X150959783Y-110560512D01*
X151001213Y-110840130D01*
X151096397Y-111106292D01*
X151163329Y-111231514D01*
X151407298Y-111303097D01*
X152220395Y-110490000D01*
X152579605Y-110490000D01*
X153392702Y-111303097D01*
X153636671Y-111231514D01*
X153757571Y-110976004D01*
X153826300Y-110701816D01*
X153840217Y-110419488D01*
X153798787Y-110139870D01*
X153703603Y-109873708D01*
X153636671Y-109748486D01*
X153392702Y-109676903D01*
X152579605Y-110490000D01*
X152220395Y-110490000D01*
X151407298Y-109676903D01*
X151163329Y-109748486D01*
X151042429Y-110003996D01*
X150973700Y-110278184D01*
X150959783Y-110560512D01*
X148072424Y-110560512D01*
X148061514Y-110523329D01*
X147806004Y-110402429D01*
X147531816Y-110333700D01*
X147249488Y-110319783D01*
X146969870Y-110361213D01*
X146703708Y-110456397D01*
X146578486Y-110523329D01*
X146506903Y-110767298D01*
X140736694Y-110767298D01*
X140614759Y-110645363D01*
X140379727Y-110488320D01*
X140118574Y-110380147D01*
X139841335Y-110325000D01*
X139558665Y-110325000D01*
X139281426Y-110380147D01*
X139020273Y-110488320D01*
X138785241Y-110645363D01*
X138686643Y-110743961D01*
X138685812Y-110735518D01*
X138649502Y-110615820D01*
X138590537Y-110505506D01*
X138511185Y-110408815D01*
X138414494Y-110329463D01*
X138304180Y-110270498D01*
X138184482Y-110234188D01*
X138060000Y-110221928D01*
X136260000Y-110221928D01*
X136135518Y-110234188D01*
X136015820Y-110270498D01*
X135905506Y-110329463D01*
X135808815Y-110408815D01*
X135729463Y-110505506D01*
X135670498Y-110615820D01*
X135664944Y-110634127D01*
X135598505Y-110567688D01*
X135347095Y-110399701D01*
X135067743Y-110283989D01*
X134771184Y-110225000D01*
X134468816Y-110225000D01*
X134172257Y-110283989D01*
X133892905Y-110399701D01*
X133641495Y-110567688D01*
X133427688Y-110781495D01*
X133259701Y-111032905D01*
X133143989Y-111312257D01*
X133085000Y-111608816D01*
X128594416Y-111608816D01*
X128588513Y-111548889D01*
X128503599Y-111268966D01*
X128365706Y-111010986D01*
X128180134Y-110784866D01*
X127954014Y-110599294D01*
X127696034Y-110461401D01*
X127416111Y-110376487D01*
X127197950Y-110355000D01*
X126802050Y-110355000D01*
X126583889Y-110376487D01*
X126303966Y-110461401D01*
X126045986Y-110599294D01*
X125819866Y-110784866D01*
X125634294Y-111010986D01*
X125496401Y-111268966D01*
X125411487Y-111548889D01*
X125382815Y-111840000D01*
X115917185Y-111840000D01*
X115888513Y-111548889D01*
X115803599Y-111268966D01*
X115665706Y-111010986D01*
X115480134Y-110784866D01*
X115254014Y-110599294D01*
X114996034Y-110461401D01*
X114716111Y-110376487D01*
X114497950Y-110355000D01*
X114102050Y-110355000D01*
X113883889Y-110376487D01*
X113603966Y-110461401D01*
X113345986Y-110599294D01*
X113119866Y-110784866D01*
X112934294Y-111010986D01*
X112796401Y-111268966D01*
X112711487Y-111548889D01*
X112682815Y-111840000D01*
X103217185Y-111840000D01*
X103188513Y-111548889D01*
X103103599Y-111268966D01*
X102965706Y-111010986D01*
X102780134Y-110784866D01*
X102554014Y-110599294D01*
X102296034Y-110461401D01*
X102016111Y-110376487D01*
X101797950Y-110355000D01*
X101402050Y-110355000D01*
X101183889Y-110376487D01*
X100903966Y-110461401D01*
X100645986Y-110599294D01*
X100419866Y-110784866D01*
X100234294Y-111010986D01*
X100096401Y-111268966D01*
X100011487Y-111548889D01*
X99982815Y-111840000D01*
X97180000Y-111840000D01*
X97180000Y-109497298D01*
X151586903Y-109497298D01*
X152400000Y-110310395D01*
X153213097Y-109497298D01*
X153141514Y-109253329D01*
X152886004Y-109132429D01*
X152611816Y-109063700D01*
X152329488Y-109049783D01*
X152049870Y-109091213D01*
X151783708Y-109186397D01*
X151658486Y-109253329D01*
X151586903Y-109497298D01*
X97180000Y-109497298D01*
X97180000Y-101453740D01*
X97575000Y-101453740D01*
X97575000Y-101746260D01*
X97632068Y-102033158D01*
X97744010Y-102303411D01*
X97906525Y-102546632D01*
X98113368Y-102753475D01*
X98356589Y-102915990D01*
X98626842Y-103027932D01*
X98913740Y-103085000D01*
X99206260Y-103085000D01*
X99493158Y-103027932D01*
X99763411Y-102915990D01*
X100006632Y-102753475D01*
X100193715Y-102566392D01*
X100261595Y-102693386D01*
X100372038Y-102827962D01*
X100506614Y-102938405D01*
X100660150Y-103020472D01*
X100826746Y-103071008D01*
X101000000Y-103088072D01*
X102200000Y-103088072D01*
X102373254Y-103071008D01*
X102539850Y-103020472D01*
X102693386Y-102938405D01*
X102827962Y-102827962D01*
X102938405Y-102693386D01*
X103020472Y-102539850D01*
X103071008Y-102373254D01*
X103088072Y-102200000D01*
X103088072Y-101453740D01*
X112815000Y-101453740D01*
X112815000Y-101746260D01*
X112872068Y-102033158D01*
X112984010Y-102303411D01*
X113146525Y-102546632D01*
X113353368Y-102753475D01*
X113596589Y-102915990D01*
X113866842Y-103027932D01*
X114153740Y-103085000D01*
X114446260Y-103085000D01*
X114733158Y-103027932D01*
X115003411Y-102915990D01*
X115246632Y-102753475D01*
X115433715Y-102566392D01*
X115501595Y-102693386D01*
X115612038Y-102827962D01*
X115746614Y-102938405D01*
X115900150Y-103020472D01*
X116066746Y-103071008D01*
X116240000Y-103088072D01*
X117440000Y-103088072D01*
X117613254Y-103071008D01*
X117779850Y-103020472D01*
X117933386Y-102938405D01*
X118067962Y-102827962D01*
X118178405Y-102693386D01*
X118260472Y-102539850D01*
X118311008Y-102373254D01*
X118328072Y-102200000D01*
X118328072Y-101453740D01*
X128055000Y-101453740D01*
X128055000Y-101746260D01*
X128112068Y-102033158D01*
X128224010Y-102303411D01*
X128386525Y-102546632D01*
X128593368Y-102753475D01*
X128836589Y-102915990D01*
X129106842Y-103027932D01*
X129393740Y-103085000D01*
X129686260Y-103085000D01*
X129973158Y-103027932D01*
X130243411Y-102915990D01*
X130486632Y-102753475D01*
X130673715Y-102566392D01*
X130741595Y-102693386D01*
X130852038Y-102827962D01*
X130986614Y-102938405D01*
X131140150Y-103020472D01*
X131306746Y-103071008D01*
X131480000Y-103088072D01*
X132680000Y-103088072D01*
X132853254Y-103071008D01*
X133019850Y-103020472D01*
X133173386Y-102938405D01*
X133307962Y-102827962D01*
X133418405Y-102693386D01*
X133500472Y-102539850D01*
X133551008Y-102373254D01*
X133568072Y-102200000D01*
X133568072Y-101453740D01*
X143295000Y-101453740D01*
X143295000Y-101746260D01*
X143352068Y-102033158D01*
X143464010Y-102303411D01*
X143626525Y-102546632D01*
X143833368Y-102753475D01*
X144076589Y-102915990D01*
X144346842Y-103027932D01*
X144633740Y-103085000D01*
X144926260Y-103085000D01*
X145213158Y-103027932D01*
X145483411Y-102915990D01*
X145726632Y-102753475D01*
X145913715Y-102566392D01*
X145981595Y-102693386D01*
X146092038Y-102827962D01*
X146226614Y-102938405D01*
X146380150Y-103020472D01*
X146546746Y-103071008D01*
X146720000Y-103088072D01*
X147920000Y-103088072D01*
X148093254Y-103071008D01*
X148259850Y-103020472D01*
X148413386Y-102938405D01*
X148547962Y-102827962D01*
X148658405Y-102693386D01*
X148740472Y-102539850D01*
X148791008Y-102373254D01*
X148808072Y-102200000D01*
X148808072Y-101453740D01*
X158535000Y-101453740D01*
X158535000Y-101746260D01*
X158592068Y-102033158D01*
X158704010Y-102303411D01*
X158866525Y-102546632D01*
X159073368Y-102753475D01*
X159316589Y-102915990D01*
X159586842Y-103027932D01*
X159873740Y-103085000D01*
X160166260Y-103085000D01*
X160453158Y-103027932D01*
X160723411Y-102915990D01*
X160966632Y-102753475D01*
X161153715Y-102566392D01*
X161221595Y-102693386D01*
X161332038Y-102827962D01*
X161466614Y-102938405D01*
X161620150Y-103020472D01*
X161786746Y-103071008D01*
X161960000Y-103088072D01*
X163160000Y-103088072D01*
X163333254Y-103071008D01*
X163499850Y-103020472D01*
X163653386Y-102938405D01*
X163787962Y-102827962D01*
X163898405Y-102693386D01*
X163980472Y-102539850D01*
X164031008Y-102373254D01*
X164048072Y-102200000D01*
X164048072Y-101453740D01*
X173775000Y-101453740D01*
X173775000Y-101746260D01*
X173832068Y-102033158D01*
X173944010Y-102303411D01*
X174106525Y-102546632D01*
X174313368Y-102753475D01*
X174556589Y-102915990D01*
X174826842Y-103027932D01*
X175113740Y-103085000D01*
X175406260Y-103085000D01*
X175693158Y-103027932D01*
X175963411Y-102915990D01*
X176206632Y-102753475D01*
X176393715Y-102566392D01*
X176461595Y-102693386D01*
X176572038Y-102827962D01*
X176706614Y-102938405D01*
X176860150Y-103020472D01*
X177026746Y-103071008D01*
X177200000Y-103088072D01*
X178400000Y-103088072D01*
X178573254Y-103071008D01*
X178739850Y-103020472D01*
X178893386Y-102938405D01*
X179027962Y-102827962D01*
X179138405Y-102693386D01*
X179220472Y-102539850D01*
X179271008Y-102373254D01*
X179288072Y-102200000D01*
X179288072Y-101453740D01*
X189015000Y-101453740D01*
X189015000Y-101746260D01*
X189072068Y-102033158D01*
X189184010Y-102303411D01*
X189346525Y-102546632D01*
X189553368Y-102753475D01*
X189796589Y-102915990D01*
X190066842Y-103027932D01*
X190353740Y-103085000D01*
X190646260Y-103085000D01*
X190933158Y-103027932D01*
X191203411Y-102915990D01*
X191446632Y-102753475D01*
X191633715Y-102566392D01*
X191701595Y-102693386D01*
X191812038Y-102827962D01*
X191946614Y-102938405D01*
X192100150Y-103020472D01*
X192266746Y-103071008D01*
X192440000Y-103088072D01*
X193640000Y-103088072D01*
X193813254Y-103071008D01*
X193979850Y-103020472D01*
X194133386Y-102938405D01*
X194267962Y-102827962D01*
X194378405Y-102693386D01*
X194460472Y-102539850D01*
X194511008Y-102373254D01*
X194528072Y-102200000D01*
X194528072Y-101000000D01*
X194511008Y-100826746D01*
X194460472Y-100660150D01*
X194378405Y-100506614D01*
X194267962Y-100372038D01*
X194133386Y-100261595D01*
X193979850Y-100179528D01*
X193870707Y-100146420D01*
X193888792Y-100088397D01*
X193040000Y-99239605D01*
X192191208Y-100088397D01*
X192209293Y-100146420D01*
X192100150Y-100179528D01*
X191946614Y-100261595D01*
X191812038Y-100372038D01*
X191701595Y-100506614D01*
X191633715Y-100633608D01*
X191446632Y-100446525D01*
X191273271Y-100330689D01*
X191348792Y-100088397D01*
X190500000Y-99239605D01*
X189651208Y-100088397D01*
X189726729Y-100330689D01*
X189553368Y-100446525D01*
X189346525Y-100653368D01*
X189184010Y-100896589D01*
X189072068Y-101166842D01*
X189015000Y-101453740D01*
X179288072Y-101453740D01*
X179288072Y-101000000D01*
X179271008Y-100826746D01*
X179220472Y-100660150D01*
X179138405Y-100506614D01*
X179027962Y-100372038D01*
X178893386Y-100261595D01*
X178739850Y-100179528D01*
X178630707Y-100146420D01*
X178648792Y-100088397D01*
X177800000Y-99239605D01*
X176951208Y-100088397D01*
X176969293Y-100146420D01*
X176860150Y-100179528D01*
X176706614Y-100261595D01*
X176572038Y-100372038D01*
X176461595Y-100506614D01*
X176393715Y-100633608D01*
X176206632Y-100446525D01*
X176033271Y-100330689D01*
X176108792Y-100088397D01*
X175260000Y-99239605D01*
X174411208Y-100088397D01*
X174486729Y-100330689D01*
X174313368Y-100446525D01*
X174106525Y-100653368D01*
X173944010Y-100896589D01*
X173832068Y-101166842D01*
X173775000Y-101453740D01*
X164048072Y-101453740D01*
X164048072Y-101000000D01*
X164031008Y-100826746D01*
X163980472Y-100660150D01*
X163898405Y-100506614D01*
X163787962Y-100372038D01*
X163653386Y-100261595D01*
X163499850Y-100179528D01*
X163390707Y-100146420D01*
X163408792Y-100088397D01*
X162560000Y-99239605D01*
X161711208Y-100088397D01*
X161729293Y-100146420D01*
X161620150Y-100179528D01*
X161466614Y-100261595D01*
X161332038Y-100372038D01*
X161221595Y-100506614D01*
X161153715Y-100633608D01*
X160966632Y-100446525D01*
X160793271Y-100330689D01*
X160868792Y-100088397D01*
X160020000Y-99239605D01*
X159171208Y-100088397D01*
X159246729Y-100330689D01*
X159073368Y-100446525D01*
X158866525Y-100653368D01*
X158704010Y-100896589D01*
X158592068Y-101166842D01*
X158535000Y-101453740D01*
X148808072Y-101453740D01*
X148808072Y-101000000D01*
X148791008Y-100826746D01*
X148740472Y-100660150D01*
X148658405Y-100506614D01*
X148547962Y-100372038D01*
X148413386Y-100261595D01*
X148259850Y-100179528D01*
X148150707Y-100146420D01*
X148168792Y-100088397D01*
X147320000Y-99239605D01*
X146471208Y-100088397D01*
X146489293Y-100146420D01*
X146380150Y-100179528D01*
X146226614Y-100261595D01*
X146092038Y-100372038D01*
X145981595Y-100506614D01*
X145913715Y-100633608D01*
X145726632Y-100446525D01*
X145553271Y-100330689D01*
X145628792Y-100088397D01*
X144780000Y-99239605D01*
X143931208Y-100088397D01*
X144006729Y-100330689D01*
X143833368Y-100446525D01*
X143626525Y-100653368D01*
X143464010Y-100896589D01*
X143352068Y-101166842D01*
X143295000Y-101453740D01*
X133568072Y-101453740D01*
X133568072Y-101000000D01*
X133551008Y-100826746D01*
X133500472Y-100660150D01*
X133418405Y-100506614D01*
X133307962Y-100372038D01*
X133173386Y-100261595D01*
X133019850Y-100179528D01*
X132910707Y-100146420D01*
X132928792Y-100088397D01*
X132080000Y-99239605D01*
X131231208Y-100088397D01*
X131249293Y-100146420D01*
X131140150Y-100179528D01*
X130986614Y-100261595D01*
X130852038Y-100372038D01*
X130741595Y-100506614D01*
X130673715Y-100633608D01*
X130486632Y-100446525D01*
X130313271Y-100330689D01*
X130388792Y-100088397D01*
X129540000Y-99239605D01*
X128691208Y-100088397D01*
X128766729Y-100330689D01*
X128593368Y-100446525D01*
X128386525Y-100653368D01*
X128224010Y-100896589D01*
X128112068Y-101166842D01*
X128055000Y-101453740D01*
X118328072Y-101453740D01*
X118328072Y-101000000D01*
X118311008Y-100826746D01*
X118260472Y-100660150D01*
X118178405Y-100506614D01*
X118067962Y-100372038D01*
X117933386Y-100261595D01*
X117779850Y-100179528D01*
X117670707Y-100146420D01*
X117688792Y-100088397D01*
X116840000Y-99239605D01*
X115991208Y-100088397D01*
X116009293Y-100146420D01*
X115900150Y-100179528D01*
X115746614Y-100261595D01*
X115612038Y-100372038D01*
X115501595Y-100506614D01*
X115433715Y-100633608D01*
X115246632Y-100446525D01*
X115073271Y-100330689D01*
X115148792Y-100088397D01*
X114300000Y-99239605D01*
X113451208Y-100088397D01*
X113526729Y-100330689D01*
X113353368Y-100446525D01*
X113146525Y-100653368D01*
X112984010Y-100896589D01*
X112872068Y-101166842D01*
X112815000Y-101453740D01*
X103088072Y-101453740D01*
X103088072Y-101000000D01*
X103071008Y-100826746D01*
X103020472Y-100660150D01*
X102938405Y-100506614D01*
X102827962Y-100372038D01*
X102693386Y-100261595D01*
X102539850Y-100179528D01*
X102430707Y-100146420D01*
X102448792Y-100088397D01*
X101600000Y-99239605D01*
X100751208Y-100088397D01*
X100769293Y-100146420D01*
X100660150Y-100179528D01*
X100506614Y-100261595D01*
X100372038Y-100372038D01*
X100261595Y-100506614D01*
X100193715Y-100633608D01*
X100006632Y-100446525D01*
X99833271Y-100330689D01*
X99908792Y-100088397D01*
X99060000Y-99239605D01*
X98211208Y-100088397D01*
X98286729Y-100330689D01*
X98113368Y-100446525D01*
X97906525Y-100653368D01*
X97744010Y-100896589D01*
X97632068Y-101166842D01*
X97575000Y-101453740D01*
X97180000Y-101453740D01*
X97180000Y-99128531D01*
X97569389Y-99128531D01*
X97611401Y-99418019D01*
X97709081Y-99693747D01*
X97782528Y-99831157D01*
X98031603Y-99908792D01*
X98880395Y-99060000D01*
X99239605Y-99060000D01*
X100088397Y-99908792D01*
X100330000Y-99833486D01*
X100571603Y-99908792D01*
X101420395Y-99060000D01*
X101779605Y-99060000D01*
X102628397Y-99908792D01*
X102877472Y-99831157D01*
X103003371Y-99567117D01*
X103075339Y-99283589D01*
X103083445Y-99128531D01*
X112809389Y-99128531D01*
X112851401Y-99418019D01*
X112949081Y-99693747D01*
X113022528Y-99831157D01*
X113271603Y-99908792D01*
X114120395Y-99060000D01*
X114479605Y-99060000D01*
X115328397Y-99908792D01*
X115570000Y-99833486D01*
X115811603Y-99908792D01*
X116660395Y-99060000D01*
X117019605Y-99060000D01*
X117868397Y-99908792D01*
X118117472Y-99831157D01*
X118243371Y-99567117D01*
X118315339Y-99283589D01*
X118323445Y-99128531D01*
X128049389Y-99128531D01*
X128091401Y-99418019D01*
X128189081Y-99693747D01*
X128262528Y-99831157D01*
X128511603Y-99908792D01*
X129360395Y-99060000D01*
X129719605Y-99060000D01*
X130568397Y-99908792D01*
X130810000Y-99833486D01*
X131051603Y-99908792D01*
X131900395Y-99060000D01*
X132259605Y-99060000D01*
X133108397Y-99908792D01*
X133357472Y-99831157D01*
X133483371Y-99567117D01*
X133555339Y-99283589D01*
X133563445Y-99128531D01*
X143289389Y-99128531D01*
X143331401Y-99418019D01*
X143429081Y-99693747D01*
X143502528Y-99831157D01*
X143751603Y-99908792D01*
X144600395Y-99060000D01*
X144959605Y-99060000D01*
X145808397Y-99908792D01*
X146050000Y-99833486D01*
X146291603Y-99908792D01*
X147140395Y-99060000D01*
X147499605Y-99060000D01*
X148348397Y-99908792D01*
X148597472Y-99831157D01*
X148723371Y-99567117D01*
X148795339Y-99283589D01*
X148803445Y-99128531D01*
X158529389Y-99128531D01*
X158571401Y-99418019D01*
X158669081Y-99693747D01*
X158742528Y-99831157D01*
X158991603Y-99908792D01*
X159840395Y-99060000D01*
X160199605Y-99060000D01*
X161048397Y-99908792D01*
X161290000Y-99833486D01*
X161531603Y-99908792D01*
X162380395Y-99060000D01*
X162739605Y-99060000D01*
X163588397Y-99908792D01*
X163837472Y-99831157D01*
X163963371Y-99567117D01*
X164035339Y-99283589D01*
X164043445Y-99128531D01*
X173769389Y-99128531D01*
X173811401Y-99418019D01*
X173909081Y-99693747D01*
X173982528Y-99831157D01*
X174231603Y-99908792D01*
X175080395Y-99060000D01*
X175439605Y-99060000D01*
X176288397Y-99908792D01*
X176530000Y-99833486D01*
X176771603Y-99908792D01*
X177620395Y-99060000D01*
X177979605Y-99060000D01*
X178828397Y-99908792D01*
X179077472Y-99831157D01*
X179203371Y-99567117D01*
X179275339Y-99283589D01*
X179283445Y-99128531D01*
X189009389Y-99128531D01*
X189051401Y-99418019D01*
X189149081Y-99693747D01*
X189222528Y-99831157D01*
X189471603Y-99908792D01*
X190320395Y-99060000D01*
X190679605Y-99060000D01*
X191528397Y-99908792D01*
X191770000Y-99833486D01*
X192011603Y-99908792D01*
X192860395Y-99060000D01*
X193219605Y-99060000D01*
X194068397Y-99908792D01*
X194317472Y-99831157D01*
X194443371Y-99567117D01*
X194515339Y-99283589D01*
X194530611Y-98991469D01*
X194488599Y-98701981D01*
X194390919Y-98426253D01*
X194317472Y-98288843D01*
X194068397Y-98211208D01*
X193219605Y-99060000D01*
X192860395Y-99060000D01*
X192011603Y-98211208D01*
X191770000Y-98286514D01*
X191528397Y-98211208D01*
X190679605Y-99060000D01*
X190320395Y-99060000D01*
X189471603Y-98211208D01*
X189222528Y-98288843D01*
X189096629Y-98552883D01*
X189024661Y-98836411D01*
X189009389Y-99128531D01*
X179283445Y-99128531D01*
X179290611Y-98991469D01*
X179248599Y-98701981D01*
X179150919Y-98426253D01*
X179077472Y-98288843D01*
X178828397Y-98211208D01*
X177979605Y-99060000D01*
X177620395Y-99060000D01*
X176771603Y-98211208D01*
X176530000Y-98286514D01*
X176288397Y-98211208D01*
X175439605Y-99060000D01*
X175080395Y-99060000D01*
X174231603Y-98211208D01*
X173982528Y-98288843D01*
X173856629Y-98552883D01*
X173784661Y-98836411D01*
X173769389Y-99128531D01*
X164043445Y-99128531D01*
X164050611Y-98991469D01*
X164008599Y-98701981D01*
X163910919Y-98426253D01*
X163837472Y-98288843D01*
X163588397Y-98211208D01*
X162739605Y-99060000D01*
X162380395Y-99060000D01*
X161531603Y-98211208D01*
X161290000Y-98286514D01*
X161048397Y-98211208D01*
X160199605Y-99060000D01*
X159840395Y-99060000D01*
X158991603Y-98211208D01*
X158742528Y-98288843D01*
X158616629Y-98552883D01*
X158544661Y-98836411D01*
X158529389Y-99128531D01*
X148803445Y-99128531D01*
X148810611Y-98991469D01*
X148768599Y-98701981D01*
X148670919Y-98426253D01*
X148597472Y-98288843D01*
X148348397Y-98211208D01*
X147499605Y-99060000D01*
X147140395Y-99060000D01*
X146291603Y-98211208D01*
X146050000Y-98286514D01*
X145808397Y-98211208D01*
X144959605Y-99060000D01*
X144600395Y-99060000D01*
X143751603Y-98211208D01*
X143502528Y-98288843D01*
X143376629Y-98552883D01*
X143304661Y-98836411D01*
X143289389Y-99128531D01*
X133563445Y-99128531D01*
X133570611Y-98991469D01*
X133528599Y-98701981D01*
X133430919Y-98426253D01*
X133357472Y-98288843D01*
X133108397Y-98211208D01*
X132259605Y-99060000D01*
X131900395Y-99060000D01*
X131051603Y-98211208D01*
X130810000Y-98286514D01*
X130568397Y-98211208D01*
X129719605Y-99060000D01*
X129360395Y-99060000D01*
X128511603Y-98211208D01*
X128262528Y-98288843D01*
X128136629Y-98552883D01*
X128064661Y-98836411D01*
X128049389Y-99128531D01*
X118323445Y-99128531D01*
X118330611Y-98991469D01*
X118288599Y-98701981D01*
X118190919Y-98426253D01*
X118117472Y-98288843D01*
X117868397Y-98211208D01*
X117019605Y-99060000D01*
X116660395Y-99060000D01*
X115811603Y-98211208D01*
X115570000Y-98286514D01*
X115328397Y-98211208D01*
X114479605Y-99060000D01*
X114120395Y-99060000D01*
X113271603Y-98211208D01*
X113022528Y-98288843D01*
X112896629Y-98552883D01*
X112824661Y-98836411D01*
X112809389Y-99128531D01*
X103083445Y-99128531D01*
X103090611Y-98991469D01*
X103048599Y-98701981D01*
X102950919Y-98426253D01*
X102877472Y-98288843D01*
X102628397Y-98211208D01*
X101779605Y-99060000D01*
X101420395Y-99060000D01*
X100571603Y-98211208D01*
X100330000Y-98286514D01*
X100088397Y-98211208D01*
X99239605Y-99060000D01*
X98880395Y-99060000D01*
X98031603Y-98211208D01*
X97782528Y-98288843D01*
X97656629Y-98552883D01*
X97584661Y-98836411D01*
X97569389Y-99128531D01*
X97180000Y-99128531D01*
X97180000Y-97548397D01*
X98211208Y-97548397D01*
X98286514Y-97790000D01*
X98211208Y-98031603D01*
X99060000Y-98880395D01*
X99908792Y-98031603D01*
X99833486Y-97790000D01*
X99908792Y-97548397D01*
X100751208Y-97548397D01*
X100826514Y-97790000D01*
X100751208Y-98031603D01*
X101600000Y-98880395D01*
X102448792Y-98031603D01*
X102373486Y-97790000D01*
X102448792Y-97548397D01*
X113451208Y-97548397D01*
X113526514Y-97790000D01*
X113451208Y-98031603D01*
X114300000Y-98880395D01*
X115148792Y-98031603D01*
X115073486Y-97790000D01*
X115148792Y-97548397D01*
X115991208Y-97548397D01*
X116066514Y-97790000D01*
X115991208Y-98031603D01*
X116840000Y-98880395D01*
X117688792Y-98031603D01*
X117613486Y-97790000D01*
X117688792Y-97548397D01*
X128691208Y-97548397D01*
X128766514Y-97790000D01*
X128691208Y-98031603D01*
X129540000Y-98880395D01*
X130388792Y-98031603D01*
X130313486Y-97790000D01*
X130388792Y-97548397D01*
X131231208Y-97548397D01*
X131306514Y-97790000D01*
X131231208Y-98031603D01*
X132080000Y-98880395D01*
X132928792Y-98031603D01*
X132853486Y-97790000D01*
X132928792Y-97548397D01*
X143931208Y-97548397D01*
X144006514Y-97790000D01*
X143931208Y-98031603D01*
X144780000Y-98880395D01*
X145628792Y-98031603D01*
X145553486Y-97790000D01*
X145628792Y-97548397D01*
X146471208Y-97548397D01*
X146546514Y-97790000D01*
X146471208Y-98031603D01*
X147320000Y-98880395D01*
X148168792Y-98031603D01*
X148093486Y-97790000D01*
X148168792Y-97548397D01*
X159171208Y-97548397D01*
X159246514Y-97790000D01*
X159171208Y-98031603D01*
X160020000Y-98880395D01*
X160868792Y-98031603D01*
X160793486Y-97790000D01*
X160868792Y-97548397D01*
X161711208Y-97548397D01*
X161786514Y-97790000D01*
X161711208Y-98031603D01*
X162560000Y-98880395D01*
X163408792Y-98031603D01*
X163333486Y-97790000D01*
X163408792Y-97548397D01*
X174411208Y-97548397D01*
X174486514Y-97790000D01*
X174411208Y-98031603D01*
X175260000Y-98880395D01*
X176108792Y-98031603D01*
X176033486Y-97790000D01*
X176108792Y-97548397D01*
X176951208Y-97548397D01*
X177026514Y-97790000D01*
X176951208Y-98031603D01*
X177800000Y-98880395D01*
X178648792Y-98031603D01*
X178573486Y-97790000D01*
X178648792Y-97548397D01*
X189651208Y-97548397D01*
X189726514Y-97790000D01*
X189651208Y-98031603D01*
X190500000Y-98880395D01*
X191348792Y-98031603D01*
X191273486Y-97790000D01*
X191348792Y-97548397D01*
X192191208Y-97548397D01*
X192266514Y-97790000D01*
X192191208Y-98031603D01*
X193040000Y-98880395D01*
X193888792Y-98031603D01*
X193813486Y-97790000D01*
X193888792Y-97548397D01*
X193040000Y-96699605D01*
X192191208Y-97548397D01*
X191348792Y-97548397D01*
X190500000Y-96699605D01*
X189651208Y-97548397D01*
X178648792Y-97548397D01*
X177800000Y-96699605D01*
X176951208Y-97548397D01*
X176108792Y-97548397D01*
X175260000Y-96699605D01*
X174411208Y-97548397D01*
X163408792Y-97548397D01*
X162560000Y-96699605D01*
X161711208Y-97548397D01*
X160868792Y-97548397D01*
X160020000Y-96699605D01*
X159171208Y-97548397D01*
X148168792Y-97548397D01*
X147320000Y-96699605D01*
X146471208Y-97548397D01*
X145628792Y-97548397D01*
X144780000Y-96699605D01*
X143931208Y-97548397D01*
X132928792Y-97548397D01*
X132080000Y-96699605D01*
X131231208Y-97548397D01*
X130388792Y-97548397D01*
X129540000Y-96699605D01*
X128691208Y-97548397D01*
X117688792Y-97548397D01*
X116840000Y-96699605D01*
X115991208Y-97548397D01*
X115148792Y-97548397D01*
X114300000Y-96699605D01*
X113451208Y-97548397D01*
X102448792Y-97548397D01*
X101600000Y-96699605D01*
X100751208Y-97548397D01*
X99908792Y-97548397D01*
X99060000Y-96699605D01*
X98211208Y-97548397D01*
X97180000Y-97548397D01*
X97180000Y-96588531D01*
X97569389Y-96588531D01*
X97611401Y-96878019D01*
X97709081Y-97153747D01*
X97782528Y-97291157D01*
X98031603Y-97368792D01*
X98880395Y-96520000D01*
X99239605Y-96520000D01*
X100088397Y-97368792D01*
X100330000Y-97293486D01*
X100571603Y-97368792D01*
X101420395Y-96520000D01*
X101779605Y-96520000D01*
X102628397Y-97368792D01*
X102877472Y-97291157D01*
X103003371Y-97027117D01*
X103075339Y-96743589D01*
X103083445Y-96588531D01*
X112809389Y-96588531D01*
X112851401Y-96878019D01*
X112949081Y-97153747D01*
X113022528Y-97291157D01*
X113271603Y-97368792D01*
X114120395Y-96520000D01*
X114479605Y-96520000D01*
X115328397Y-97368792D01*
X115570000Y-97293486D01*
X115811603Y-97368792D01*
X116660395Y-96520000D01*
X117019605Y-96520000D01*
X117868397Y-97368792D01*
X118117472Y-97291157D01*
X118243371Y-97027117D01*
X118315339Y-96743589D01*
X118323445Y-96588531D01*
X128049389Y-96588531D01*
X128091401Y-96878019D01*
X128189081Y-97153747D01*
X128262528Y-97291157D01*
X128511603Y-97368792D01*
X129360395Y-96520000D01*
X129719605Y-96520000D01*
X130568397Y-97368792D01*
X130810000Y-97293486D01*
X131051603Y-97368792D01*
X131900395Y-96520000D01*
X132259605Y-96520000D01*
X133108397Y-97368792D01*
X133357472Y-97291157D01*
X133483371Y-97027117D01*
X133555339Y-96743589D01*
X133563445Y-96588531D01*
X143289389Y-96588531D01*
X143331401Y-96878019D01*
X143429081Y-97153747D01*
X143502528Y-97291157D01*
X143751603Y-97368792D01*
X144600395Y-96520000D01*
X144959605Y-96520000D01*
X145808397Y-97368792D01*
X146050000Y-97293486D01*
X146291603Y-97368792D01*
X147140395Y-96520000D01*
X147499605Y-96520000D01*
X148348397Y-97368792D01*
X148597472Y-97291157D01*
X148723371Y-97027117D01*
X148795339Y-96743589D01*
X148803445Y-96588531D01*
X158529389Y-96588531D01*
X158571401Y-96878019D01*
X158669081Y-97153747D01*
X158742528Y-97291157D01*
X158991603Y-97368792D01*
X159840395Y-96520000D01*
X160199605Y-96520000D01*
X161048397Y-97368792D01*
X161290000Y-97293486D01*
X161531603Y-97368792D01*
X162380395Y-96520000D01*
X162739605Y-96520000D01*
X163588397Y-97368792D01*
X163837472Y-97291157D01*
X163963371Y-97027117D01*
X164035339Y-96743589D01*
X164043445Y-96588531D01*
X173769389Y-96588531D01*
X173811401Y-96878019D01*
X173909081Y-97153747D01*
X173982528Y-97291157D01*
X174231603Y-97368792D01*
X175080395Y-96520000D01*
X175439605Y-96520000D01*
X176288397Y-97368792D01*
X176530000Y-97293486D01*
X176771603Y-97368792D01*
X177620395Y-96520000D01*
X177979605Y-96520000D01*
X178828397Y-97368792D01*
X179077472Y-97291157D01*
X179203371Y-97027117D01*
X179275339Y-96743589D01*
X179283445Y-96588531D01*
X189009389Y-96588531D01*
X189051401Y-96878019D01*
X189149081Y-97153747D01*
X189222528Y-97291157D01*
X189471603Y-97368792D01*
X190320395Y-96520000D01*
X190679605Y-96520000D01*
X191528397Y-97368792D01*
X191770000Y-97293486D01*
X192011603Y-97368792D01*
X192860395Y-96520000D01*
X193219605Y-96520000D01*
X194068397Y-97368792D01*
X194317472Y-97291157D01*
X194443371Y-97027117D01*
X194515339Y-96743589D01*
X194530611Y-96451469D01*
X194488599Y-96161981D01*
X194390919Y-95886253D01*
X194317472Y-95748843D01*
X194068397Y-95671208D01*
X193219605Y-96520000D01*
X192860395Y-96520000D01*
X192011603Y-95671208D01*
X191770000Y-95746514D01*
X191528397Y-95671208D01*
X190679605Y-96520000D01*
X190320395Y-96520000D01*
X189471603Y-95671208D01*
X189222528Y-95748843D01*
X189096629Y-96012883D01*
X189024661Y-96296411D01*
X189009389Y-96588531D01*
X179283445Y-96588531D01*
X179290611Y-96451469D01*
X179248599Y-96161981D01*
X179150919Y-95886253D01*
X179077472Y-95748843D01*
X178828397Y-95671208D01*
X177979605Y-96520000D01*
X177620395Y-96520000D01*
X176771603Y-95671208D01*
X176530000Y-95746514D01*
X176288397Y-95671208D01*
X175439605Y-96520000D01*
X175080395Y-96520000D01*
X174231603Y-95671208D01*
X173982528Y-95748843D01*
X173856629Y-96012883D01*
X173784661Y-96296411D01*
X173769389Y-96588531D01*
X164043445Y-96588531D01*
X164050611Y-96451469D01*
X164008599Y-96161981D01*
X163910919Y-95886253D01*
X163837472Y-95748843D01*
X163588397Y-95671208D01*
X162739605Y-96520000D01*
X162380395Y-96520000D01*
X161531603Y-95671208D01*
X161290000Y-95746514D01*
X161048397Y-95671208D01*
X160199605Y-96520000D01*
X159840395Y-96520000D01*
X158991603Y-95671208D01*
X158742528Y-95748843D01*
X158616629Y-96012883D01*
X158544661Y-96296411D01*
X158529389Y-96588531D01*
X148803445Y-96588531D01*
X148810611Y-96451469D01*
X148768599Y-96161981D01*
X148670919Y-95886253D01*
X148597472Y-95748843D01*
X148348397Y-95671208D01*
X147499605Y-96520000D01*
X147140395Y-96520000D01*
X146291603Y-95671208D01*
X146050000Y-95746514D01*
X145808397Y-95671208D01*
X144959605Y-96520000D01*
X144600395Y-96520000D01*
X143751603Y-95671208D01*
X143502528Y-95748843D01*
X143376629Y-96012883D01*
X143304661Y-96296411D01*
X143289389Y-96588531D01*
X133563445Y-96588531D01*
X133570611Y-96451469D01*
X133528599Y-96161981D01*
X133430919Y-95886253D01*
X133357472Y-95748843D01*
X133108397Y-95671208D01*
X132259605Y-96520000D01*
X131900395Y-96520000D01*
X131051603Y-95671208D01*
X130810000Y-95746514D01*
X130568397Y-95671208D01*
X129719605Y-96520000D01*
X129360395Y-96520000D01*
X128511603Y-95671208D01*
X128262528Y-95748843D01*
X128136629Y-96012883D01*
X128064661Y-96296411D01*
X128049389Y-96588531D01*
X118323445Y-96588531D01*
X118330611Y-96451469D01*
X118288599Y-96161981D01*
X118190919Y-95886253D01*
X118117472Y-95748843D01*
X117868397Y-95671208D01*
X117019605Y-96520000D01*
X116660395Y-96520000D01*
X115811603Y-95671208D01*
X115570000Y-95746514D01*
X115328397Y-95671208D01*
X114479605Y-96520000D01*
X114120395Y-96520000D01*
X113271603Y-95671208D01*
X113022528Y-95748843D01*
X112896629Y-96012883D01*
X112824661Y-96296411D01*
X112809389Y-96588531D01*
X103083445Y-96588531D01*
X103090611Y-96451469D01*
X103048599Y-96161981D01*
X102950919Y-95886253D01*
X102877472Y-95748843D01*
X102628397Y-95671208D01*
X101779605Y-96520000D01*
X101420395Y-96520000D01*
X100571603Y-95671208D01*
X100330000Y-95746514D01*
X100088397Y-95671208D01*
X99239605Y-96520000D01*
X98880395Y-96520000D01*
X98031603Y-95671208D01*
X97782528Y-95748843D01*
X97656629Y-96012883D01*
X97584661Y-96296411D01*
X97569389Y-96588531D01*
X97180000Y-96588531D01*
X97180000Y-95008397D01*
X98211208Y-95008397D01*
X98286514Y-95250000D01*
X98211208Y-95491603D01*
X99060000Y-96340395D01*
X99908792Y-95491603D01*
X99833486Y-95250000D01*
X99908792Y-95008397D01*
X100751208Y-95008397D01*
X100826514Y-95250000D01*
X100751208Y-95491603D01*
X101600000Y-96340395D01*
X102448792Y-95491603D01*
X102373486Y-95250000D01*
X102448792Y-95008397D01*
X113451208Y-95008397D01*
X113526514Y-95250000D01*
X113451208Y-95491603D01*
X114300000Y-96340395D01*
X115148792Y-95491603D01*
X115073486Y-95250000D01*
X115148792Y-95008397D01*
X115991208Y-95008397D01*
X116066514Y-95250000D01*
X115991208Y-95491603D01*
X116840000Y-96340395D01*
X117688792Y-95491603D01*
X117613486Y-95250000D01*
X117688792Y-95008397D01*
X128691208Y-95008397D01*
X128766514Y-95250000D01*
X128691208Y-95491603D01*
X129540000Y-96340395D01*
X130388792Y-95491603D01*
X130313486Y-95250000D01*
X130388792Y-95008397D01*
X131231208Y-95008397D01*
X131306514Y-95250000D01*
X131231208Y-95491603D01*
X132080000Y-96340395D01*
X132928792Y-95491603D01*
X132853486Y-95250000D01*
X132928792Y-95008397D01*
X143931208Y-95008397D01*
X144006514Y-95250000D01*
X143931208Y-95491603D01*
X144780000Y-96340395D01*
X145628792Y-95491603D01*
X145553486Y-95250000D01*
X145628792Y-95008397D01*
X146471208Y-95008397D01*
X146546514Y-95250000D01*
X146471208Y-95491603D01*
X147320000Y-96340395D01*
X148168792Y-95491603D01*
X148093486Y-95250000D01*
X148168792Y-95008397D01*
X159171208Y-95008397D01*
X159246514Y-95250000D01*
X159171208Y-95491603D01*
X160020000Y-96340395D01*
X160868792Y-95491603D01*
X160793486Y-95250000D01*
X160868792Y-95008397D01*
X161711208Y-95008397D01*
X161786514Y-95250000D01*
X161711208Y-95491603D01*
X162560000Y-96340395D01*
X163408792Y-95491603D01*
X163333486Y-95250000D01*
X163408792Y-95008397D01*
X174411208Y-95008397D01*
X174486514Y-95250000D01*
X174411208Y-95491603D01*
X175260000Y-96340395D01*
X176108792Y-95491603D01*
X176033486Y-95250000D01*
X176108792Y-95008397D01*
X176951208Y-95008397D01*
X177026514Y-95250000D01*
X176951208Y-95491603D01*
X177800000Y-96340395D01*
X178648792Y-95491603D01*
X178573486Y-95250000D01*
X178648792Y-95008397D01*
X189651208Y-95008397D01*
X189726514Y-95250000D01*
X189651208Y-95491603D01*
X190500000Y-96340395D01*
X191348792Y-95491603D01*
X191273486Y-95250000D01*
X191348792Y-95008397D01*
X192191208Y-95008397D01*
X192266514Y-95250000D01*
X192191208Y-95491603D01*
X193040000Y-96340395D01*
X193888792Y-95491603D01*
X193813486Y-95250000D01*
X193888792Y-95008397D01*
X193040000Y-94159605D01*
X192191208Y-95008397D01*
X191348792Y-95008397D01*
X190500000Y-94159605D01*
X189651208Y-95008397D01*
X178648792Y-95008397D01*
X177800000Y-94159605D01*
X176951208Y-95008397D01*
X176108792Y-95008397D01*
X175260000Y-94159605D01*
X174411208Y-95008397D01*
X163408792Y-95008397D01*
X162560000Y-94159605D01*
X161711208Y-95008397D01*
X160868792Y-95008397D01*
X160020000Y-94159605D01*
X159171208Y-95008397D01*
X148168792Y-95008397D01*
X147320000Y-94159605D01*
X146471208Y-95008397D01*
X145628792Y-95008397D01*
X144780000Y-94159605D01*
X143931208Y-95008397D01*
X132928792Y-95008397D01*
X132080000Y-94159605D01*
X131231208Y-95008397D01*
X130388792Y-95008397D01*
X129540000Y-94159605D01*
X128691208Y-95008397D01*
X117688792Y-95008397D01*
X116840000Y-94159605D01*
X115991208Y-95008397D01*
X115148792Y-95008397D01*
X114300000Y-94159605D01*
X113451208Y-95008397D01*
X102448792Y-95008397D01*
X101600000Y-94159605D01*
X100751208Y-95008397D01*
X99908792Y-95008397D01*
X99060000Y-94159605D01*
X98211208Y-95008397D01*
X97180000Y-95008397D01*
X97180000Y-94048531D01*
X97569389Y-94048531D01*
X97611401Y-94338019D01*
X97709081Y-94613747D01*
X97782528Y-94751157D01*
X98031603Y-94828792D01*
X98880395Y-93980000D01*
X99239605Y-93980000D01*
X100088397Y-94828792D01*
X100330000Y-94753486D01*
X100571603Y-94828792D01*
X101420395Y-93980000D01*
X101779605Y-93980000D01*
X102628397Y-94828792D01*
X102877472Y-94751157D01*
X103003371Y-94487117D01*
X103075339Y-94203589D01*
X103083445Y-94048531D01*
X112809389Y-94048531D01*
X112851401Y-94338019D01*
X112949081Y-94613747D01*
X113022528Y-94751157D01*
X113271603Y-94828792D01*
X114120395Y-93980000D01*
X114479605Y-93980000D01*
X115328397Y-94828792D01*
X115570000Y-94753486D01*
X115811603Y-94828792D01*
X116660395Y-93980000D01*
X117019605Y-93980000D01*
X117868397Y-94828792D01*
X118117472Y-94751157D01*
X118243371Y-94487117D01*
X118315339Y-94203589D01*
X118323445Y-94048531D01*
X128049389Y-94048531D01*
X128091401Y-94338019D01*
X128189081Y-94613747D01*
X128262528Y-94751157D01*
X128511603Y-94828792D01*
X129360395Y-93980000D01*
X129719605Y-93980000D01*
X130568397Y-94828792D01*
X130810000Y-94753486D01*
X131051603Y-94828792D01*
X131900395Y-93980000D01*
X132259605Y-93980000D01*
X133108397Y-94828792D01*
X133357472Y-94751157D01*
X133483371Y-94487117D01*
X133555339Y-94203589D01*
X133563445Y-94048531D01*
X143289389Y-94048531D01*
X143331401Y-94338019D01*
X143429081Y-94613747D01*
X143502528Y-94751157D01*
X143751603Y-94828792D01*
X144600395Y-93980000D01*
X144959605Y-93980000D01*
X145808397Y-94828792D01*
X146050000Y-94753486D01*
X146291603Y-94828792D01*
X147140395Y-93980000D01*
X147499605Y-93980000D01*
X148348397Y-94828792D01*
X148597472Y-94751157D01*
X148723371Y-94487117D01*
X148795339Y-94203589D01*
X148803445Y-94048531D01*
X158529389Y-94048531D01*
X158571401Y-94338019D01*
X158669081Y-94613747D01*
X158742528Y-94751157D01*
X158991603Y-94828792D01*
X159840395Y-93980000D01*
X160199605Y-93980000D01*
X161048397Y-94828792D01*
X161290000Y-94753486D01*
X161531603Y-94828792D01*
X162380395Y-93980000D01*
X162739605Y-93980000D01*
X163588397Y-94828792D01*
X163837472Y-94751157D01*
X163963371Y-94487117D01*
X164035339Y-94203589D01*
X164043445Y-94048531D01*
X173769389Y-94048531D01*
X173811401Y-94338019D01*
X173909081Y-94613747D01*
X173982528Y-94751157D01*
X174231603Y-94828792D01*
X175080395Y-93980000D01*
X175439605Y-93980000D01*
X176288397Y-94828792D01*
X176530000Y-94753486D01*
X176771603Y-94828792D01*
X177620395Y-93980000D01*
X177979605Y-93980000D01*
X178828397Y-94828792D01*
X179077472Y-94751157D01*
X179203371Y-94487117D01*
X179275339Y-94203589D01*
X179283445Y-94048531D01*
X189009389Y-94048531D01*
X189051401Y-94338019D01*
X189149081Y-94613747D01*
X189222528Y-94751157D01*
X189471603Y-94828792D01*
X190320395Y-93980000D01*
X190679605Y-93980000D01*
X191528397Y-94828792D01*
X191770000Y-94753486D01*
X192011603Y-94828792D01*
X192860395Y-93980000D01*
X193219605Y-93980000D01*
X194068397Y-94828792D01*
X194317472Y-94751157D01*
X194443371Y-94487117D01*
X194515339Y-94203589D01*
X194530611Y-93911469D01*
X194488599Y-93621981D01*
X194390919Y-93346253D01*
X194317472Y-93208843D01*
X194068397Y-93131208D01*
X193219605Y-93980000D01*
X192860395Y-93980000D01*
X192011603Y-93131208D01*
X191770000Y-93206514D01*
X191528397Y-93131208D01*
X190679605Y-93980000D01*
X190320395Y-93980000D01*
X189471603Y-93131208D01*
X189222528Y-93208843D01*
X189096629Y-93472883D01*
X189024661Y-93756411D01*
X189009389Y-94048531D01*
X179283445Y-94048531D01*
X179290611Y-93911469D01*
X179248599Y-93621981D01*
X179150919Y-93346253D01*
X179077472Y-93208843D01*
X178828397Y-93131208D01*
X177979605Y-93980000D01*
X177620395Y-93980000D01*
X176771603Y-93131208D01*
X176530000Y-93206514D01*
X176288397Y-93131208D01*
X175439605Y-93980000D01*
X175080395Y-93980000D01*
X174231603Y-93131208D01*
X173982528Y-93208843D01*
X173856629Y-93472883D01*
X173784661Y-93756411D01*
X173769389Y-94048531D01*
X164043445Y-94048531D01*
X164050611Y-93911469D01*
X164008599Y-93621981D01*
X163910919Y-93346253D01*
X163837472Y-93208843D01*
X163588397Y-93131208D01*
X162739605Y-93980000D01*
X162380395Y-93980000D01*
X161531603Y-93131208D01*
X161290000Y-93206514D01*
X161048397Y-93131208D01*
X160199605Y-93980000D01*
X159840395Y-93980000D01*
X158991603Y-93131208D01*
X158742528Y-93208843D01*
X158616629Y-93472883D01*
X158544661Y-93756411D01*
X158529389Y-94048531D01*
X148803445Y-94048531D01*
X148810611Y-93911469D01*
X148768599Y-93621981D01*
X148670919Y-93346253D01*
X148597472Y-93208843D01*
X148348397Y-93131208D01*
X147499605Y-93980000D01*
X147140395Y-93980000D01*
X146291603Y-93131208D01*
X146050000Y-93206514D01*
X145808397Y-93131208D01*
X144959605Y-93980000D01*
X144600395Y-93980000D01*
X143751603Y-93131208D01*
X143502528Y-93208843D01*
X143376629Y-93472883D01*
X143304661Y-93756411D01*
X143289389Y-94048531D01*
X133563445Y-94048531D01*
X133570611Y-93911469D01*
X133528599Y-93621981D01*
X133430919Y-93346253D01*
X133357472Y-93208843D01*
X133108397Y-93131208D01*
X132259605Y-93980000D01*
X131900395Y-93980000D01*
X131051603Y-93131208D01*
X130810000Y-93206514D01*
X130568397Y-93131208D01*
X129719605Y-93980000D01*
X129360395Y-93980000D01*
X128511603Y-93131208D01*
X128262528Y-93208843D01*
X128136629Y-93472883D01*
X128064661Y-93756411D01*
X128049389Y-94048531D01*
X118323445Y-94048531D01*
X118330611Y-93911469D01*
X118288599Y-93621981D01*
X118190919Y-93346253D01*
X118117472Y-93208843D01*
X117868397Y-93131208D01*
X117019605Y-93980000D01*
X116660395Y-93980000D01*
X115811603Y-93131208D01*
X115570000Y-93206514D01*
X115328397Y-93131208D01*
X114479605Y-93980000D01*
X114120395Y-93980000D01*
X113271603Y-93131208D01*
X113022528Y-93208843D01*
X112896629Y-93472883D01*
X112824661Y-93756411D01*
X112809389Y-94048531D01*
X103083445Y-94048531D01*
X103090611Y-93911469D01*
X103048599Y-93621981D01*
X102950919Y-93346253D01*
X102877472Y-93208843D01*
X102628397Y-93131208D01*
X101779605Y-93980000D01*
X101420395Y-93980000D01*
X100571603Y-93131208D01*
X100330000Y-93206514D01*
X100088397Y-93131208D01*
X99239605Y-93980000D01*
X98880395Y-93980000D01*
X98031603Y-93131208D01*
X97782528Y-93208843D01*
X97656629Y-93472883D01*
X97584661Y-93756411D01*
X97569389Y-94048531D01*
X97180000Y-94048531D01*
X97180000Y-83673740D01*
X97575000Y-83673740D01*
X97575000Y-83966260D01*
X97632068Y-84253158D01*
X97744010Y-84523411D01*
X97906525Y-84766632D01*
X98113368Y-84973475D01*
X98287760Y-85090000D01*
X98113368Y-85206525D01*
X97906525Y-85413368D01*
X97744010Y-85656589D01*
X97632068Y-85926842D01*
X97575000Y-86213740D01*
X97575000Y-86506260D01*
X97632068Y-86793158D01*
X97744010Y-87063411D01*
X97906525Y-87306632D01*
X98113368Y-87513475D01*
X98287760Y-87630000D01*
X98113368Y-87746525D01*
X97906525Y-87953368D01*
X97744010Y-88196589D01*
X97632068Y-88466842D01*
X97575000Y-88753740D01*
X97575000Y-89046260D01*
X97632068Y-89333158D01*
X97744010Y-89603411D01*
X97906525Y-89846632D01*
X98113368Y-90053475D01*
X98287760Y-90170000D01*
X98113368Y-90286525D01*
X97906525Y-90493368D01*
X97744010Y-90736589D01*
X97632068Y-91006842D01*
X97575000Y-91293740D01*
X97575000Y-91586260D01*
X97632068Y-91873158D01*
X97744010Y-92143411D01*
X97906525Y-92386632D01*
X98113368Y-92593475D01*
X98286729Y-92709311D01*
X98211208Y-92951603D01*
X99060000Y-93800395D01*
X99908792Y-92951603D01*
X99833271Y-92709311D01*
X100006632Y-92593475D01*
X100213475Y-92386632D01*
X100330000Y-92212240D01*
X100446525Y-92386632D01*
X100653368Y-92593475D01*
X100826729Y-92709311D01*
X100751208Y-92951603D01*
X101600000Y-93800395D01*
X102448792Y-92951603D01*
X102373271Y-92709311D01*
X102546632Y-92593475D01*
X102753475Y-92386632D01*
X102915990Y-92143411D01*
X103027932Y-91873158D01*
X103085000Y-91586260D01*
X103085000Y-91293740D01*
X103027932Y-91006842D01*
X102915990Y-90736589D01*
X102753475Y-90493368D01*
X102546632Y-90286525D01*
X102372240Y-90170000D01*
X102546632Y-90053475D01*
X102753475Y-89846632D01*
X102915990Y-89603411D01*
X103027932Y-89333158D01*
X103085000Y-89046260D01*
X103085000Y-88753740D01*
X103027932Y-88466842D01*
X102915990Y-88196589D01*
X102753475Y-87953368D01*
X102546632Y-87746525D01*
X102372240Y-87630000D01*
X102546632Y-87513475D01*
X102753475Y-87306632D01*
X102915990Y-87063411D01*
X103027932Y-86793158D01*
X103085000Y-86506260D01*
X103085000Y-86213740D01*
X103027932Y-85926842D01*
X102915990Y-85656589D01*
X102753475Y-85413368D01*
X102546632Y-85206525D01*
X102372240Y-85090000D01*
X102546632Y-84973475D01*
X102753475Y-84766632D01*
X102915990Y-84523411D01*
X103027932Y-84253158D01*
X103085000Y-83966260D01*
X103085000Y-83673740D01*
X112815000Y-83673740D01*
X112815000Y-83966260D01*
X112872068Y-84253158D01*
X112984010Y-84523411D01*
X113146525Y-84766632D01*
X113353368Y-84973475D01*
X113527760Y-85090000D01*
X113353368Y-85206525D01*
X113146525Y-85413368D01*
X112984010Y-85656589D01*
X112872068Y-85926842D01*
X112815000Y-86213740D01*
X112815000Y-86506260D01*
X112872068Y-86793158D01*
X112984010Y-87063411D01*
X113146525Y-87306632D01*
X113353368Y-87513475D01*
X113527760Y-87630000D01*
X113353368Y-87746525D01*
X113146525Y-87953368D01*
X112984010Y-88196589D01*
X112872068Y-88466842D01*
X112815000Y-88753740D01*
X112815000Y-89046260D01*
X112872068Y-89333158D01*
X112984010Y-89603411D01*
X113146525Y-89846632D01*
X113353368Y-90053475D01*
X113527760Y-90170000D01*
X113353368Y-90286525D01*
X113146525Y-90493368D01*
X112984010Y-90736589D01*
X112872068Y-91006842D01*
X112815000Y-91293740D01*
X112815000Y-91586260D01*
X112872068Y-91873158D01*
X112984010Y-92143411D01*
X113146525Y-92386632D01*
X113353368Y-92593475D01*
X113526729Y-92709311D01*
X113451208Y-92951603D01*
X114300000Y-93800395D01*
X115148792Y-92951603D01*
X115073271Y-92709311D01*
X115246632Y-92593475D01*
X115453475Y-92386632D01*
X115570000Y-92212240D01*
X115686525Y-92386632D01*
X115893368Y-92593475D01*
X116066729Y-92709311D01*
X115991208Y-92951603D01*
X116840000Y-93800395D01*
X117688792Y-92951603D01*
X117613271Y-92709311D01*
X117786632Y-92593475D01*
X117993475Y-92386632D01*
X118155990Y-92143411D01*
X118267932Y-91873158D01*
X118325000Y-91586260D01*
X118325000Y-91293740D01*
X118267932Y-91006842D01*
X118155990Y-90736589D01*
X117993475Y-90493368D01*
X117786632Y-90286525D01*
X117612240Y-90170000D01*
X117786632Y-90053475D01*
X117993475Y-89846632D01*
X118155990Y-89603411D01*
X118267932Y-89333158D01*
X118325000Y-89046260D01*
X118325000Y-88753740D01*
X118267932Y-88466842D01*
X118155990Y-88196589D01*
X117993475Y-87953368D01*
X117786632Y-87746525D01*
X117612240Y-87630000D01*
X117786632Y-87513475D01*
X117993475Y-87306632D01*
X118155990Y-87063411D01*
X118267932Y-86793158D01*
X118325000Y-86506260D01*
X118325000Y-86213740D01*
X118267932Y-85926842D01*
X118155990Y-85656589D01*
X117993475Y-85413368D01*
X117786632Y-85206525D01*
X117612240Y-85090000D01*
X117786632Y-84973475D01*
X117993475Y-84766632D01*
X118155990Y-84523411D01*
X118267932Y-84253158D01*
X118325000Y-83966260D01*
X118325000Y-83673740D01*
X128055000Y-83673740D01*
X128055000Y-83966260D01*
X128112068Y-84253158D01*
X128224010Y-84523411D01*
X128386525Y-84766632D01*
X128593368Y-84973475D01*
X128767760Y-85090000D01*
X128593368Y-85206525D01*
X128386525Y-85413368D01*
X128224010Y-85656589D01*
X128112068Y-85926842D01*
X128055000Y-86213740D01*
X128055000Y-86506260D01*
X128112068Y-86793158D01*
X128224010Y-87063411D01*
X128386525Y-87306632D01*
X128593368Y-87513475D01*
X128767760Y-87630000D01*
X128593368Y-87746525D01*
X128386525Y-87953368D01*
X128224010Y-88196589D01*
X128112068Y-88466842D01*
X128055000Y-88753740D01*
X128055000Y-89046260D01*
X128112068Y-89333158D01*
X128224010Y-89603411D01*
X128386525Y-89846632D01*
X128593368Y-90053475D01*
X128767760Y-90170000D01*
X128593368Y-90286525D01*
X128386525Y-90493368D01*
X128224010Y-90736589D01*
X128112068Y-91006842D01*
X128055000Y-91293740D01*
X128055000Y-91586260D01*
X128112068Y-91873158D01*
X128224010Y-92143411D01*
X128386525Y-92386632D01*
X128593368Y-92593475D01*
X128766729Y-92709311D01*
X128691208Y-92951603D01*
X129540000Y-93800395D01*
X130388792Y-92951603D01*
X130313271Y-92709311D01*
X130486632Y-92593475D01*
X130693475Y-92386632D01*
X130810000Y-92212240D01*
X130926525Y-92386632D01*
X131133368Y-92593475D01*
X131306729Y-92709311D01*
X131231208Y-92951603D01*
X132080000Y-93800395D01*
X132928792Y-92951603D01*
X132853271Y-92709311D01*
X133026632Y-92593475D01*
X133233475Y-92386632D01*
X133395990Y-92143411D01*
X133507932Y-91873158D01*
X133565000Y-91586260D01*
X133565000Y-91293740D01*
X133507932Y-91006842D01*
X133395990Y-90736589D01*
X133233475Y-90493368D01*
X133026632Y-90286525D01*
X132852240Y-90170000D01*
X133026632Y-90053475D01*
X133233475Y-89846632D01*
X133395990Y-89603411D01*
X133507932Y-89333158D01*
X133565000Y-89046260D01*
X133565000Y-88753740D01*
X133507932Y-88466842D01*
X133395990Y-88196589D01*
X133233475Y-87953368D01*
X133026632Y-87746525D01*
X132852240Y-87630000D01*
X133026632Y-87513475D01*
X133233475Y-87306632D01*
X133395990Y-87063411D01*
X133507932Y-86793158D01*
X133565000Y-86506260D01*
X133565000Y-86213740D01*
X133507932Y-85926842D01*
X133395990Y-85656589D01*
X133233475Y-85413368D01*
X133026632Y-85206525D01*
X132852240Y-85090000D01*
X133026632Y-84973475D01*
X133233475Y-84766632D01*
X133395990Y-84523411D01*
X133507932Y-84253158D01*
X133565000Y-83966260D01*
X133565000Y-83673740D01*
X143295000Y-83673740D01*
X143295000Y-83966260D01*
X143352068Y-84253158D01*
X143464010Y-84523411D01*
X143626525Y-84766632D01*
X143833368Y-84973475D01*
X144007760Y-85090000D01*
X143833368Y-85206525D01*
X143626525Y-85413368D01*
X143464010Y-85656589D01*
X143352068Y-85926842D01*
X143295000Y-86213740D01*
X143295000Y-86506260D01*
X143352068Y-86793158D01*
X143464010Y-87063411D01*
X143626525Y-87306632D01*
X143833368Y-87513475D01*
X144007760Y-87630000D01*
X143833368Y-87746525D01*
X143626525Y-87953368D01*
X143464010Y-88196589D01*
X143352068Y-88466842D01*
X143295000Y-88753740D01*
X143295000Y-89046260D01*
X143352068Y-89333158D01*
X143464010Y-89603411D01*
X143626525Y-89846632D01*
X143833368Y-90053475D01*
X144007760Y-90170000D01*
X143833368Y-90286525D01*
X143626525Y-90493368D01*
X143464010Y-90736589D01*
X143352068Y-91006842D01*
X143295000Y-91293740D01*
X143295000Y-91586260D01*
X143352068Y-91873158D01*
X143464010Y-92143411D01*
X143626525Y-92386632D01*
X143833368Y-92593475D01*
X144006729Y-92709311D01*
X143931208Y-92951603D01*
X144780000Y-93800395D01*
X145628792Y-92951603D01*
X145553271Y-92709311D01*
X145726632Y-92593475D01*
X145933475Y-92386632D01*
X146050000Y-92212240D01*
X146166525Y-92386632D01*
X146373368Y-92593475D01*
X146546729Y-92709311D01*
X146471208Y-92951603D01*
X147320000Y-93800395D01*
X148168792Y-92951603D01*
X148093271Y-92709311D01*
X148266632Y-92593475D01*
X148473475Y-92386632D01*
X148635990Y-92143411D01*
X148747932Y-91873158D01*
X148805000Y-91586260D01*
X148805000Y-91293740D01*
X148747932Y-91006842D01*
X148635990Y-90736589D01*
X148473475Y-90493368D01*
X148266632Y-90286525D01*
X148092240Y-90170000D01*
X148266632Y-90053475D01*
X148473475Y-89846632D01*
X148635990Y-89603411D01*
X148747932Y-89333158D01*
X148805000Y-89046260D01*
X148805000Y-88753740D01*
X148747932Y-88466842D01*
X148635990Y-88196589D01*
X148473475Y-87953368D01*
X148266632Y-87746525D01*
X148092240Y-87630000D01*
X148266632Y-87513475D01*
X148473475Y-87306632D01*
X148635990Y-87063411D01*
X148747932Y-86793158D01*
X148805000Y-86506260D01*
X148805000Y-86213740D01*
X148747932Y-85926842D01*
X148635990Y-85656589D01*
X148473475Y-85413368D01*
X148266632Y-85206525D01*
X148092240Y-85090000D01*
X148266632Y-84973475D01*
X148473475Y-84766632D01*
X148635990Y-84523411D01*
X148747932Y-84253158D01*
X148805000Y-83966260D01*
X148805000Y-83673740D01*
X158535000Y-83673740D01*
X158535000Y-83966260D01*
X158592068Y-84253158D01*
X158704010Y-84523411D01*
X158866525Y-84766632D01*
X159073368Y-84973475D01*
X159247760Y-85090000D01*
X159073368Y-85206525D01*
X158866525Y-85413368D01*
X158704010Y-85656589D01*
X158592068Y-85926842D01*
X158535000Y-86213740D01*
X158535000Y-86506260D01*
X158592068Y-86793158D01*
X158704010Y-87063411D01*
X158866525Y-87306632D01*
X159073368Y-87513475D01*
X159247760Y-87630000D01*
X159073368Y-87746525D01*
X158866525Y-87953368D01*
X158704010Y-88196589D01*
X158592068Y-88466842D01*
X158535000Y-88753740D01*
X158535000Y-89046260D01*
X158592068Y-89333158D01*
X158704010Y-89603411D01*
X158866525Y-89846632D01*
X159073368Y-90053475D01*
X159247760Y-90170000D01*
X159073368Y-90286525D01*
X158866525Y-90493368D01*
X158704010Y-90736589D01*
X158592068Y-91006842D01*
X158535000Y-91293740D01*
X158535000Y-91586260D01*
X158592068Y-91873158D01*
X158704010Y-92143411D01*
X158866525Y-92386632D01*
X159073368Y-92593475D01*
X159246729Y-92709311D01*
X159171208Y-92951603D01*
X160020000Y-93800395D01*
X160868792Y-92951603D01*
X160793271Y-92709311D01*
X160966632Y-92593475D01*
X161173475Y-92386632D01*
X161290000Y-92212240D01*
X161406525Y-92386632D01*
X161613368Y-92593475D01*
X161786729Y-92709311D01*
X161711208Y-92951603D01*
X162560000Y-93800395D01*
X163408792Y-92951603D01*
X163333271Y-92709311D01*
X163506632Y-92593475D01*
X163713475Y-92386632D01*
X163875990Y-92143411D01*
X163987932Y-91873158D01*
X164045000Y-91586260D01*
X164045000Y-91293740D01*
X163987932Y-91006842D01*
X163875990Y-90736589D01*
X163713475Y-90493368D01*
X163506632Y-90286525D01*
X163332240Y-90170000D01*
X163506632Y-90053475D01*
X163713475Y-89846632D01*
X163875990Y-89603411D01*
X163987932Y-89333158D01*
X164045000Y-89046260D01*
X164045000Y-88753740D01*
X163987932Y-88466842D01*
X163875990Y-88196589D01*
X163713475Y-87953368D01*
X163506632Y-87746525D01*
X163332240Y-87630000D01*
X163506632Y-87513475D01*
X163713475Y-87306632D01*
X163875990Y-87063411D01*
X163987932Y-86793158D01*
X164045000Y-86506260D01*
X164045000Y-86213740D01*
X163987932Y-85926842D01*
X163875990Y-85656589D01*
X163713475Y-85413368D01*
X163506632Y-85206525D01*
X163332240Y-85090000D01*
X163506632Y-84973475D01*
X163713475Y-84766632D01*
X163875990Y-84523411D01*
X163987932Y-84253158D01*
X164045000Y-83966260D01*
X164045000Y-83673740D01*
X173775000Y-83673740D01*
X173775000Y-83966260D01*
X173832068Y-84253158D01*
X173944010Y-84523411D01*
X174106525Y-84766632D01*
X174313368Y-84973475D01*
X174487760Y-85090000D01*
X174313368Y-85206525D01*
X174106525Y-85413368D01*
X173944010Y-85656589D01*
X173832068Y-85926842D01*
X173775000Y-86213740D01*
X173775000Y-86506260D01*
X173832068Y-86793158D01*
X173944010Y-87063411D01*
X174106525Y-87306632D01*
X174313368Y-87513475D01*
X174487760Y-87630000D01*
X174313368Y-87746525D01*
X174106525Y-87953368D01*
X173944010Y-88196589D01*
X173832068Y-88466842D01*
X173775000Y-88753740D01*
X173775000Y-89046260D01*
X173832068Y-89333158D01*
X173944010Y-89603411D01*
X174106525Y-89846632D01*
X174313368Y-90053475D01*
X174487760Y-90170000D01*
X174313368Y-90286525D01*
X174106525Y-90493368D01*
X173944010Y-90736589D01*
X173832068Y-91006842D01*
X173775000Y-91293740D01*
X173775000Y-91586260D01*
X173832068Y-91873158D01*
X173944010Y-92143411D01*
X174106525Y-92386632D01*
X174313368Y-92593475D01*
X174486729Y-92709311D01*
X174411208Y-92951603D01*
X175260000Y-93800395D01*
X176108792Y-92951603D01*
X176033271Y-92709311D01*
X176206632Y-92593475D01*
X176413475Y-92386632D01*
X176530000Y-92212240D01*
X176646525Y-92386632D01*
X176853368Y-92593475D01*
X177026729Y-92709311D01*
X176951208Y-92951603D01*
X177800000Y-93800395D01*
X178648792Y-92951603D01*
X178573271Y-92709311D01*
X178746632Y-92593475D01*
X178953475Y-92386632D01*
X179115990Y-92143411D01*
X179227932Y-91873158D01*
X179285000Y-91586260D01*
X179285000Y-91293740D01*
X179227932Y-91006842D01*
X179115990Y-90736589D01*
X178953475Y-90493368D01*
X178746632Y-90286525D01*
X178572240Y-90170000D01*
X178746632Y-90053475D01*
X178953475Y-89846632D01*
X179115990Y-89603411D01*
X179227932Y-89333158D01*
X179285000Y-89046260D01*
X179285000Y-88753740D01*
X179227932Y-88466842D01*
X179115990Y-88196589D01*
X178953475Y-87953368D01*
X178746632Y-87746525D01*
X178572240Y-87630000D01*
X178746632Y-87513475D01*
X178953475Y-87306632D01*
X179115990Y-87063411D01*
X179227932Y-86793158D01*
X179285000Y-86506260D01*
X179285000Y-86213740D01*
X179227932Y-85926842D01*
X179115990Y-85656589D01*
X178953475Y-85413368D01*
X178746632Y-85206525D01*
X178572240Y-85090000D01*
X178746632Y-84973475D01*
X178953475Y-84766632D01*
X179115990Y-84523411D01*
X179227932Y-84253158D01*
X179285000Y-83966260D01*
X179285000Y-83673740D01*
X189015000Y-83673740D01*
X189015000Y-83966260D01*
X189072068Y-84253158D01*
X189184010Y-84523411D01*
X189346525Y-84766632D01*
X189553368Y-84973475D01*
X189727760Y-85090000D01*
X189553368Y-85206525D01*
X189346525Y-85413368D01*
X189184010Y-85656589D01*
X189072068Y-85926842D01*
X189015000Y-86213740D01*
X189015000Y-86506260D01*
X189072068Y-86793158D01*
X189184010Y-87063411D01*
X189346525Y-87306632D01*
X189553368Y-87513475D01*
X189727760Y-87630000D01*
X189553368Y-87746525D01*
X189346525Y-87953368D01*
X189184010Y-88196589D01*
X189072068Y-88466842D01*
X189015000Y-88753740D01*
X189015000Y-89046260D01*
X189072068Y-89333158D01*
X189184010Y-89603411D01*
X189346525Y-89846632D01*
X189553368Y-90053475D01*
X189727760Y-90170000D01*
X189553368Y-90286525D01*
X189346525Y-90493368D01*
X189184010Y-90736589D01*
X189072068Y-91006842D01*
X189015000Y-91293740D01*
X189015000Y-91586260D01*
X189072068Y-91873158D01*
X189184010Y-92143411D01*
X189346525Y-92386632D01*
X189553368Y-92593475D01*
X189726729Y-92709311D01*
X189651208Y-92951603D01*
X190500000Y-93800395D01*
X191348792Y-92951603D01*
X191273271Y-92709311D01*
X191446632Y-92593475D01*
X191653475Y-92386632D01*
X191770000Y-92212240D01*
X191886525Y-92386632D01*
X192093368Y-92593475D01*
X192266729Y-92709311D01*
X192191208Y-92951603D01*
X193040000Y-93800395D01*
X193888792Y-92951603D01*
X193813271Y-92709311D01*
X193986632Y-92593475D01*
X194193475Y-92386632D01*
X194355990Y-92143411D01*
X194467932Y-91873158D01*
X194525000Y-91586260D01*
X194525000Y-91293740D01*
X194467932Y-91006842D01*
X194355990Y-90736589D01*
X194193475Y-90493368D01*
X193986632Y-90286525D01*
X193812240Y-90170000D01*
X193986632Y-90053475D01*
X194193475Y-89846632D01*
X194355990Y-89603411D01*
X194467932Y-89333158D01*
X194525000Y-89046260D01*
X194525000Y-88753740D01*
X194467932Y-88466842D01*
X194355990Y-88196589D01*
X194193475Y-87953368D01*
X193986632Y-87746525D01*
X193812240Y-87630000D01*
X193986632Y-87513475D01*
X194193475Y-87306632D01*
X194355990Y-87063411D01*
X194467932Y-86793158D01*
X194525000Y-86506260D01*
X194525000Y-86213740D01*
X194467932Y-85926842D01*
X194355990Y-85656589D01*
X194193475Y-85413368D01*
X193986632Y-85206525D01*
X193812240Y-85090000D01*
X193986632Y-84973475D01*
X194193475Y-84766632D01*
X194355990Y-84523411D01*
X194467932Y-84253158D01*
X194525000Y-83966260D01*
X194525000Y-83673740D01*
X194467932Y-83386842D01*
X194355990Y-83116589D01*
X194193475Y-82873368D01*
X193986632Y-82666525D01*
X193743411Y-82504010D01*
X193473158Y-82392068D01*
X193186260Y-82335000D01*
X192893740Y-82335000D01*
X192606842Y-82392068D01*
X192336589Y-82504010D01*
X192093368Y-82666525D01*
X191886525Y-82873368D01*
X191770000Y-83047760D01*
X191653475Y-82873368D01*
X191446632Y-82666525D01*
X191203411Y-82504010D01*
X190933158Y-82392068D01*
X190646260Y-82335000D01*
X190353740Y-82335000D01*
X190066842Y-82392068D01*
X189796589Y-82504010D01*
X189553368Y-82666525D01*
X189346525Y-82873368D01*
X189184010Y-83116589D01*
X189072068Y-83386842D01*
X189015000Y-83673740D01*
X179285000Y-83673740D01*
X179227932Y-83386842D01*
X179115990Y-83116589D01*
X178953475Y-82873368D01*
X178746632Y-82666525D01*
X178503411Y-82504010D01*
X178233158Y-82392068D01*
X177946260Y-82335000D01*
X177653740Y-82335000D01*
X177366842Y-82392068D01*
X177096589Y-82504010D01*
X176853368Y-82666525D01*
X176646525Y-82873368D01*
X176530000Y-83047760D01*
X176413475Y-82873368D01*
X176206632Y-82666525D01*
X175963411Y-82504010D01*
X175693158Y-82392068D01*
X175406260Y-82335000D01*
X175113740Y-82335000D01*
X174826842Y-82392068D01*
X174556589Y-82504010D01*
X174313368Y-82666525D01*
X174106525Y-82873368D01*
X173944010Y-83116589D01*
X173832068Y-83386842D01*
X173775000Y-83673740D01*
X164045000Y-83673740D01*
X163987932Y-83386842D01*
X163875990Y-83116589D01*
X163713475Y-82873368D01*
X163506632Y-82666525D01*
X163263411Y-82504010D01*
X162993158Y-82392068D01*
X162706260Y-82335000D01*
X162413740Y-82335000D01*
X162126842Y-82392068D01*
X161856589Y-82504010D01*
X161613368Y-82666525D01*
X161406525Y-82873368D01*
X161290000Y-83047760D01*
X161173475Y-82873368D01*
X160966632Y-82666525D01*
X160723411Y-82504010D01*
X160453158Y-82392068D01*
X160166260Y-82335000D01*
X159873740Y-82335000D01*
X159586842Y-82392068D01*
X159316589Y-82504010D01*
X159073368Y-82666525D01*
X158866525Y-82873368D01*
X158704010Y-83116589D01*
X158592068Y-83386842D01*
X158535000Y-83673740D01*
X148805000Y-83673740D01*
X148747932Y-83386842D01*
X148635990Y-83116589D01*
X148473475Y-82873368D01*
X148266632Y-82666525D01*
X148023411Y-82504010D01*
X147753158Y-82392068D01*
X147466260Y-82335000D01*
X147173740Y-82335000D01*
X146886842Y-82392068D01*
X146616589Y-82504010D01*
X146373368Y-82666525D01*
X146166525Y-82873368D01*
X146050000Y-83047760D01*
X145933475Y-82873368D01*
X145726632Y-82666525D01*
X145483411Y-82504010D01*
X145213158Y-82392068D01*
X144926260Y-82335000D01*
X144633740Y-82335000D01*
X144346842Y-82392068D01*
X144076589Y-82504010D01*
X143833368Y-82666525D01*
X143626525Y-82873368D01*
X143464010Y-83116589D01*
X143352068Y-83386842D01*
X143295000Y-83673740D01*
X133565000Y-83673740D01*
X133507932Y-83386842D01*
X133395990Y-83116589D01*
X133233475Y-82873368D01*
X133026632Y-82666525D01*
X132783411Y-82504010D01*
X132513158Y-82392068D01*
X132226260Y-82335000D01*
X131933740Y-82335000D01*
X131646842Y-82392068D01*
X131376589Y-82504010D01*
X131133368Y-82666525D01*
X130926525Y-82873368D01*
X130810000Y-83047760D01*
X130693475Y-82873368D01*
X130486632Y-82666525D01*
X130243411Y-82504010D01*
X129973158Y-82392068D01*
X129686260Y-82335000D01*
X129393740Y-82335000D01*
X129106842Y-82392068D01*
X128836589Y-82504010D01*
X128593368Y-82666525D01*
X128386525Y-82873368D01*
X128224010Y-83116589D01*
X128112068Y-83386842D01*
X128055000Y-83673740D01*
X118325000Y-83673740D01*
X118267932Y-83386842D01*
X118155990Y-83116589D01*
X117993475Y-82873368D01*
X117786632Y-82666525D01*
X117543411Y-82504010D01*
X117273158Y-82392068D01*
X116986260Y-82335000D01*
X116693740Y-82335000D01*
X116406842Y-82392068D01*
X116136589Y-82504010D01*
X115893368Y-82666525D01*
X115686525Y-82873368D01*
X115570000Y-83047760D01*
X115453475Y-82873368D01*
X115246632Y-82666525D01*
X115003411Y-82504010D01*
X114733158Y-82392068D01*
X114446260Y-82335000D01*
X114153740Y-82335000D01*
X113866842Y-82392068D01*
X113596589Y-82504010D01*
X113353368Y-82666525D01*
X113146525Y-82873368D01*
X112984010Y-83116589D01*
X112872068Y-83386842D01*
X112815000Y-83673740D01*
X103085000Y-83673740D01*
X103027932Y-83386842D01*
X102915990Y-83116589D01*
X102753475Y-82873368D01*
X102546632Y-82666525D01*
X102303411Y-82504010D01*
X102033158Y-82392068D01*
X101746260Y-82335000D01*
X101453740Y-82335000D01*
X101166842Y-82392068D01*
X100896589Y-82504010D01*
X100653368Y-82666525D01*
X100446525Y-82873368D01*
X100330000Y-83047760D01*
X100213475Y-82873368D01*
X100006632Y-82666525D01*
X99763411Y-82504010D01*
X99493158Y-82392068D01*
X99206260Y-82335000D01*
X98913740Y-82335000D01*
X98626842Y-82392068D01*
X98356589Y-82504010D01*
X98113368Y-82666525D01*
X97906525Y-82873368D01*
X97744010Y-83116589D01*
X97632068Y-83386842D01*
X97575000Y-83673740D01*
X97180000Y-83673740D01*
X97180000Y-73899872D01*
X97285000Y-73899872D01*
X97285000Y-74340128D01*
X97370890Y-74771925D01*
X97539369Y-75178669D01*
X97783962Y-75544729D01*
X98095271Y-75856038D01*
X98461331Y-76100631D01*
X98868075Y-76269110D01*
X99299872Y-76355000D01*
X99740128Y-76355000D01*
X100171925Y-76269110D01*
X100578669Y-76100631D01*
X100944729Y-75856038D01*
X101256038Y-75544729D01*
X101500631Y-75178669D01*
X101669110Y-74771925D01*
X101755000Y-74340128D01*
X101755000Y-73899872D01*
X190345000Y-73899872D01*
X190345000Y-74340128D01*
X190430890Y-74771925D01*
X190599369Y-75178669D01*
X190843962Y-75544729D01*
X191155271Y-75856038D01*
X191521331Y-76100631D01*
X191928075Y-76269110D01*
X192359872Y-76355000D01*
X192800128Y-76355000D01*
X193231925Y-76269110D01*
X193638669Y-76100631D01*
X194004729Y-75856038D01*
X194316038Y-75544729D01*
X194560631Y-75178669D01*
X194729110Y-74771925D01*
X194815000Y-74340128D01*
X194815000Y-73899872D01*
X194729110Y-73468075D01*
X194560631Y-73061331D01*
X194316038Y-72695271D01*
X194004729Y-72383962D01*
X193638669Y-72139369D01*
X193231925Y-71970890D01*
X192800128Y-71885000D01*
X192359872Y-71885000D01*
X191928075Y-71970890D01*
X191521331Y-72139369D01*
X191155271Y-72383962D01*
X190843962Y-72695271D01*
X190599369Y-73061331D01*
X190430890Y-73468075D01*
X190345000Y-73899872D01*
X101755000Y-73899872D01*
X101669110Y-73468075D01*
X101500631Y-73061331D01*
X101256038Y-72695271D01*
X100944729Y-72383962D01*
X100578669Y-72139369D01*
X100171925Y-71970890D01*
X99740128Y-71885000D01*
X99299872Y-71885000D01*
X98868075Y-71970890D01*
X98461331Y-72139369D01*
X98095271Y-72383962D01*
X97783962Y-72695271D01*
X97539369Y-73061331D01*
X97370890Y-73468075D01*
X97285000Y-73899872D01*
X97180000Y-73899872D01*
X97180000Y-71780000D01*
X194920001Y-71780000D01*
X194920000Y-126340000D01*
G04 #@! TD*
M02*
